{"glyphs":{"0":{"ha":1414,"x_min":158,"x_max":1256,"o":"m 708 -26 q 418 78 542 -26 q 226 383 294 182 q 158 871 158 583 q 176 1135 158 1014 q 227 1357 193 1257 q 308 1534 261 1457 q 417 1663 356 1611 q 553 1740 479 1714 q 710 1767 626 1767 q 997 1663 875 1767 q 1188 1358 1119 1558 q 1256 871 1256 1157 q 1238 605 1256 726 q 1188 383 1221 483 q 1106 206 1154 283 q 997 78 1058 129 q 864 0 936 26 q 708 -26 792 -26 m 710 26 q 850 51 785 26 q 969 126 915 76 q 1067 247 1024 175 q 1140 413 1110 319 q 1184 622 1169 507 q 1199 871 1199 736 q 1139 1328 1199 1140 q 969 1616 1079 1517 q 710 1715 860 1715 q 567 1690 633 1715 q 447 1616 501 1665 q 349 1494 392 1567 q 276 1328 306 1422 q 231 1120 247 1235 q 215 871 215 1006 q 276 413 215 601 q 448 126 336 225 q 710 26 560 26 z "},"1":{"ha":833,"x_min":57,"x_max":475,"o":"m 450 -19 q 429 -15 435 -19 q 424 1 424 -10 l 424 1683 q 322 1586 375 1633 q 215 1499 268 1539 q 113 1424 163 1458 q 85 1411 97 1414 q 65 1422 72 1408 q 61 1443 57 1435 q 75 1458 65 1451 q 188 1538 129 1490 q 307 1640 247 1585 q 419 1756 367 1696 q 428 1763 425 1761 q 438 1766 432 1765 q 451 1767 443 1767 q 470 1762 465 1767 q 475 1746 475 1757 l 475 1 q 470 -15 475 -10 q 450 -19 465 -19 z "},"2":{"ha":1231,"x_min":118,"x_max":1067,"o":"m 142 0 q 124 7 129 0 q 119 22 118 14 q 126 36 119 31 l 399 328 q 547 496 475 411 q 685 665 619 581 q 804 835 750 750 q 899 1004 858 921 q 961 1167 939 1088 q 983 1322 983 1247 q 937 1537 983 1450 q 807 1669 890 1624 q 610 1715 724 1715 q 389 1671 490 1715 q 199 1540 288 1626 q 181 1529 190 1531 q 161 1538 171 1528 q 152 1554 151 1544 q 161 1572 153 1564 q 276 1669 208 1625 q 430 1740 344 1714 q 608 1767 515 1767 q 785 1738 706 1767 q 921 1652 864 1708 q 1008 1514 978 1596 q 1039 1326 1039 1432 q 1014 1154 1039 1243 q 944 974 989 1065 q 838 791 899 882 q 709 611 778 700 q 566 437 640 522 q 419 275 492 351 l 207 49 l 1051 49 q 1063 44 1058 49 q 1067 26 1067 39 q 1063 6 1067 13 q 1051 0 1058 0 l 142 0 z "},"3":{"ha":1314,"x_min":99,"x_max":1138,"o":"m 624 -26 q 446 -3 535 -26 q 272 76 357 21 q 113 224 188 131 q 101 247 103 238 q 110 265 99 257 q 129 274 121 275 q 147 263 138 274 q 293 126 218 179 q 449 50 368 74 q 624 26 531 26 q 818 59 733 26 q 961 153 903 92 q 1050 298 1019 214 q 1081 483 1081 382 q 1022 706 1081 611 q 856 853 963 800 q 604 906 749 906 l 468 906 q 458 911 463 906 q 453 929 453 917 q 458 949 453 943 q 468 954 464 954 l 607 954 q 786 989 710 954 q 911 1081 863 1024 q 983 1209 960 1139 q 1007 1351 1007 1279 q 976 1512 1007 1443 q 890 1626 944 1581 q 766 1693 836 1671 q 617 1715 696 1715 q 456 1697 528 1715 q 321 1644 383 1679 q 196 1557 258 1610 q 178 1547 189 1550 q 156 1553 167 1543 q 147 1574 143 1564 q 156 1589 150 1583 q 283 1683 213 1644 q 438 1744 353 1722 q 617 1767 522 1767 q 790 1740 708 1767 q 933 1663 871 1714 q 1029 1533 994 1611 q 1064 1351 1064 1456 q 1046 1225 1064 1289 q 991 1103 1028 1161 q 895 1001 954 1046 q 751 933 836 957 q 967 844 882 908 q 1095 688 1053 781 q 1138 481 1138 594 q 1104 277 1138 369 q 1005 116 1071 185 q 843 10 939 47 q 624 -26 747 -26 z "},"4":{"ha":1339,"x_min":99,"x_max":1261,"o":"m 1004 -19 q 985 -14 990 -19 q 979 1 979 -8 l 979 526 l 131 526 q 108 533 117 526 q 106 554 99 539 l 665 1749 q 678 1765 671 1761 q 699 1767 685 1768 q 713 1762 708 1765 q 719 1752 718 1758 q 717 1738 721 1746 l 171 575 l 979 575 l 979 1235 q 1004 1256 979 1256 q 1025 1250 1019 1256 q 1031 1235 1031 1244 l 1031 575 l 1239 575 q 1256 570 1250 575 q 1261 550 1261 565 q 1256 531 1261 536 q 1239 526 1250 526 l 1031 526 l 1031 1 q 1004 -19 1031 -19 z "},"5":{"ha":1314,"x_min":150,"x_max":1169,"o":"m 658 -26 q 528 -12 594 -26 q 399 31 463 1 q 276 108 336 61 q 163 222 215 154 q 151 246 153 236 q 161 265 150 256 q 180 274 172 274 q 197 261 188 274 q 341 126 268 178 q 494 50 414 74 q 663 26 574 26 q 850 60 767 26 q 993 158 933 93 q 1083 315 1053 222 q 1113 528 1113 408 q 1081 728 1113 638 q 990 881 1050 818 q 847 976 929 943 q 663 1010 764 1010 q 521 995 588 1010 q 394 947 454 981 q 286 856 335 913 q 271 851 281 851 q 253 858 261 851 q 246 875 246 864 l 278 1714 q 285 1731 278 1726 q 306 1736 292 1736 l 1076 1736 q 1087 1731 1082 1736 q 1092 1713 1092 1726 q 1088 1693 1092 1699 q 1076 1688 1083 1688 l 328 1688 l 300 933 q 403 1002 344 974 q 528 1046 461 1031 q 664 1061 594 1061 q 936 994 822 1061 q 1110 808 1050 928 q 1169 528 1169 688 q 1134 292 1169 394 q 1031 118 1099 189 q 870 10 964 47 q 658 -26 776 -26 z "},"6":{"ha":1413,"x_min":210,"x_max":1251,"o":"m 744 -26 q 454 64 574 -26 q 272 319 335 154 q 210 707 210 483 q 233 1024 210 872 q 310 1306 256 1176 q 457 1533 364 1435 q 690 1692 550 1631 q 1028 1767 831 1753 q 1057 1765 1049 1768 q 1067 1747 1065 1763 q 1065 1731 1068 1738 q 1049 1722 1063 1724 q 725 1649 860 1707 q 501 1499 590 1592 q 360 1285 411 1407 q 288 1015 308 1163 q 267 751 269 889 q 315 825 288 789 q 437 935 367 888 q 590 1008 507 982 q 758 1033 672 1033 q 965 998 874 1033 q 1120 894 1056 963 q 1218 731 1185 826 q 1251 514 1251 635 q 1217 290 1251 390 q 1116 120 1182 190 q 957 12 1050 50 q 744 -26 864 -26 m 267 657 q 304 403 272 513 q 406 192 340 275 q 558 67 471 108 q 744 26 644 26 q 933 60 850 26 q 1074 157 1015 93 q 1163 311 1132 221 q 1194 514 1194 401 q 1141 765 1194 661 q 990 926 1088 869 q 758 982 892 982 q 621 963 688 982 q 493 909 554 944 q 383 826 432 874 q 299 719 333 778 q 267 657 281 689 z "},"7":{"ha":1067,"x_min":50,"x_max":1026,"o":"m 292 -17 q 276 -5 279 -11 q 278 13 274 1 l 960 1688 l 67 1688 q 55 1694 60 1688 q 50 1713 50 1700 q 55 1731 50 1725 q 67 1736 60 1736 l 1004 1736 q 1019 1729 1013 1736 q 1021 1708 1026 1722 l 326 4 q 313 -18 319 -14 q 292 -17 307 -22 z "},"8":{"ha":1314,"x_min":133,"x_max":1182,"o":"m 657 -26 q 439 4 536 -26 q 274 93 342 35 q 169 234 206 151 q 133 419 133 317 q 159 586 133 507 q 239 733 185 665 q 376 853 293 800 q 571 940 458 907 q 363 1040 443 978 q 244 1183 283 1103 q 206 1356 206 1263 q 242 1535 206 1458 q 344 1665 279 1613 q 492 1742 408 1717 q 664 1767 575 1767 q 839 1744 758 1767 q 981 1674 919 1722 q 1076 1555 1042 1626 q 1110 1383 1110 1483 q 1090 1250 1110 1315 q 1025 1126 1069 1185 q 913 1019 981 1067 q 753 939 846 971 q 1004 819 910 892 q 1140 656 1099 747 q 1182 461 1182 565 q 1147 259 1182 349 q 1043 106 1111 169 q 877 8 975 42 q 657 -26 779 -26 m 658 26 q 853 56 767 26 q 999 142 939 85 q 1092 278 1060 199 q 1125 458 1125 358 q 1069 667 1125 578 q 910 817 1013 757 q 668 911 808 878 q 469 844 557 888 q 318 738 381 800 q 222 597 256 675 q 189 422 189 518 q 222 255 189 329 q 317 130 256 181 q 466 53 379 79 q 658 26 553 26 m 665 963 q 888 1060 803 996 q 1013 1208 972 1124 q 1053 1385 1053 1293 q 1021 1538 1053 1474 q 933 1641 989 1601 q 808 1698 878 1681 q 663 1715 739 1715 q 513 1694 583 1715 q 385 1627 442 1672 q 297 1515 329 1582 q 264 1358 264 1447 q 306 1186 264 1265 q 438 1049 349 1107 q 665 963 528 992 z "},"9":{"ha":1413,"x_min":160,"x_max":1201,"o":"m 668 1772 q 958 1682 839 1772 q 1140 1428 1078 1592 q 1201 1039 1201 1264 q 1179 722 1201 874 q 1103 440 1157 569 q 956 213 1049 311 q 722 54 863 115 q 385 -21 582 -7 q 356 -19 363 -22 q 346 -1 349 -17 q 347 16 344 10 q 364 24 350 22 q 688 97 553 40 q 911 247 822 154 q 1051 461 1000 339 q 1124 732 1103 583 q 1144 992 1142 856 q 1097 922 1125 956 q 976 811 1046 858 q 823 738 906 764 q 653 713 740 713 q 447 748 539 713 q 292 851 356 783 q 194 1015 228 919 q 160 1232 160 1111 q 194 1456 160 1356 q 296 1626 229 1556 q 456 1734 363 1696 q 668 1772 550 1772 m 1144 1088 q 1108 1344 1140 1233 q 1006 1554 1071 1471 q 854 1678 940 1638 q 668 1719 768 1719 q 479 1686 563 1719 q 338 1589 396 1653 q 249 1435 279 1525 q 218 1232 218 1346 q 272 981 218 1085 q 423 820 325 876 q 654 764 521 764 q 791 783 724 764 q 919 837 858 801 q 1030 920 981 872 q 1114 1028 1079 968 q 1144 1088 1131 1057 z "},"\r":{"ha":417,"x_min":0,"x_max":0,"o":""}," ":{"ha":417,"x_min":0,"x_max":0,"o":""}," ":{"ha":139,"x_min":0,"x_max":0,"o":""}," ":{"ha":417,"x_min":0,"x_max":0,"o":""},"Ð":{"ha":1611,"x_min":68,"x_max":1433,"o":"m 313 0 q 286 21 286 0 l 286 840 l 89 840 q 73 846 78 840 q 68 863 68 851 q 73 883 68 876 q 89 889 78 889 l 286 889 l 286 1715 q 293 1731 286 1726 q 314 1736 300 1736 l 650 1736 q 976 1688 831 1736 q 1223 1542 1121 1639 q 1379 1299 1325 1444 q 1433 957 1433 1154 q 1395 644 1433 790 q 1282 379 1357 497 q 1099 176 1207 261 q 853 46 992 92 q 549 0 714 0 l 313 0 m 340 49 l 544 49 q 831 92 701 49 q 1063 217 961 136 q 1234 409 1164 297 q 1340 660 1304 521 q 1376 957 1376 799 q 1326 1280 1376 1143 q 1181 1507 1276 1417 q 952 1642 1086 1597 q 650 1688 818 1688 l 340 1688 l 340 889 l 733 889 q 750 883 746 889 q 754 863 754 876 q 750 846 754 851 q 733 840 746 840 l 340 840 l 340 49 z "},"Ŋ":{"ha":1647,"x_min":286,"x_max":1361,"o":"m 1361 -249 q 1340 -397 1361 -337 q 1277 -484 1319 -456 q 1164 -512 1235 -512 q 1052 -476 1099 -512 q 983 -376 1006 -439 q 983 -361 981 -369 q 993 -349 986 -353 q 1013 -344 1004 -342 q 1026 -356 1022 -346 q 1063 -415 1042 -390 q 1109 -453 1083 -440 q 1165 -465 1135 -465 q 1252 -441 1221 -465 q 1297 -368 1283 -417 q 1311 -247 1311 -319 l 1311 -12 l 339 1657 l 339 1 q 333 -15 339 -10 q 313 -19 328 -19 q 286 1 286 -19 l 286 1746 q 293 1762 286 1757 q 311 1767 300 1767 q 329 1764 324 1767 q 340 1754 335 1761 l 1308 92 l 1308 1746 q 1315 1762 1308 1757 q 1335 1767 1321 1767 q 1361 1746 1361 1767 l 1361 -249 z "},"Þ":{"ha":1336,"x_min":286,"x_max":1203,"o":"m 313 -19 q 292 -15 299 -19 q 286 1 286 -10 l 286 1746 q 292 1762 286 1757 q 313 1767 299 1767 q 333 1762 326 1767 q 339 1746 339 1757 l 339 1456 l 668 1456 q 962 1413 843 1456 q 1142 1274 1081 1369 q 1203 1022 1203 1178 q 1163 810 1203 904 q 1047 649 1124 717 q 862 539 971 581 q 615 482 753 497 q 476 469 544 475 q 339 460 407 464 l 339 1 q 333 -15 339 -10 q 313 -19 328 -19 m 339 508 q 431 515 383 511 q 526 523 479 518 q 613 531 574 528 q 897 608 778 549 q 1081 772 1015 668 q 1146 1019 1146 875 q 1092 1246 1146 1161 q 932 1369 1038 1331 q 668 1407 826 1407 l 339 1407 l 339 508 z "},"ẞ":{"ha":1604,"x_min":272,"x_max":1438,"o":"m 947 -26 q 838 -19 888 -26 q 740 2 788 -12 q 635 42 692 17 q 610 61 615 50 q 613 89 606 72 q 628 97 617 93 q 660 90 640 100 q 754 54 708 68 q 847 33 800 40 q 947 26 894 26 q 1109 55 1032 26 q 1248 140 1186 83 q 1345 284 1310 197 q 1381 485 1381 371 q 1355 651 1381 581 q 1285 775 1329 721 q 1185 873 1240 829 q 1072 956 1131 917 q 959 1036 1014 996 q 860 1126 904 1076 q 790 1238 815 1175 q 764 1383 764 1300 q 789 1526 764 1461 q 858 1641 814 1592 q 964 1718 903 1690 q 647 1647 772 1703 q 451 1502 522 1590 q 353 1298 381 1414 q 325 1044 325 1182 l 325 3 q 319 -14 325 -10 q 299 -18 314 -18 q 278 -14 285 -18 q 272 3 272 -10 l 272 1043 q 295 1279 272 1169 q 373 1479 318 1389 q 524 1633 428 1569 q 764 1732 619 1697 q 1113 1767 908 1767 l 1174 1767 q 1191 1761 1186 1767 q 1196 1743 1196 1756 q 1191 1724 1196 1729 q 1174 1718 1186 1718 q 1006 1690 1074 1718 q 897 1615 938 1663 q 838 1507 856 1567 q 819 1382 819 1447 q 845 1249 819 1307 q 915 1147 871 1192 q 1014 1062 958 1101 q 1128 983 1069 1022 q 1242 898 1188 943 q 1341 795 1296 853 q 1412 662 1386 738 q 1438 485 1438 586 q 1398 267 1438 363 q 1289 106 1358 171 q 1132 8 1219 42 q 947 -26 1044 -26 z "},"ŋ":{"ha":851,"x_min":157,"x_max":699,"o":"m 699 -169 q 683 -265 699 -224 q 634 -331 668 -307 q 546 -354 600 -354 q 460 -327 496 -354 q 408 -260 424 -300 q 406 -244 406 -253 q 417 -231 407 -236 q 435 -226 428 -224 q 449 -237 443 -228 q 488 -287 464 -268 q 547 -306 511 -306 q 628 -267 610 -306 q 647 -167 647 -229 l 647 453 q 629 571 647 522 q 572 646 611 619 q 467 672 532 672 q 384 660 425 672 q 308 619 343 647 q 247 545 274 592 q 207 429 221 499 l 207 0 q 201 -16 207 -11 q 181 -21 194 -21 q 163 -16 168 -21 q 157 0 157 -11 l 157 694 q 163 710 157 706 q 181 715 168 715 q 201 710 194 715 q 207 694 207 706 l 207 549 q 262 635 231 601 q 329 687 293 668 q 402 713 365 706 q 474 721 439 721 q 588 694 538 721 q 669 612 639 668 q 699 464 699 556 l 699 -169 z "},"$":{"ha":1265,"x_min":138,"x_max":1107,"o":"m 613 -26 q 478 -15 543 -26 q 353 22 413 -3 q 242 83 294 46 q 149 172 190 121 q 138 194 138 185 q 147 211 138 203 q 165 219 157 219 q 188 204 174 219 q 304 105 239 144 q 447 46 369 65 q 613 26 525 26 q 614 26 614 26 l 614 883 q 518 929 565 906 q 400 997 454 960 q 305 1084 346 1035 q 240 1197 264 1133 q 217 1346 217 1261 q 251 1522 217 1444 q 345 1655 285 1600 q 482 1739 406 1710 q 614 1765 544 1761 l 614 1914 q 640 1935 614 1935 q 667 1914 667 1935 l 667 1767 q 824 1739 753 1764 q 966 1668 903 1711 q 1078 1575 1029 1625 q 1090 1558 1089 1565 q 1082 1540 1090 1550 q 1061 1533 1069 1529 q 1038 1546 1053 1536 q 919 1635 979 1597 q 793 1694 860 1674 q 667 1715 735 1713 l 667 918 q 683 911 675 914 q 838 839 763 878 q 974 747 914 800 q 1071 621 1035 693 q 1107 447 1107 549 q 1070 259 1107 346 q 967 108 1033 172 q 813 10 901 44 q 667 -24 744 -18 l 667 -154 q 640 -175 667 -175 q 614 -154 614 -175 l 614 -26 q 613 -26 614 -26 m 667 29 q 788 57 731 35 q 926 142 867 88 q 1018 274 985 197 q 1051 447 1051 351 q 1016 603 1051 539 q 923 716 981 668 q 793 800 865 764 q 667 860 731 832 l 667 29 m 614 942 l 614 1714 q 494 1689 550 1710 q 376 1611 425 1661 q 299 1494 326 1561 q 272 1346 272 1428 q 308 1180 272 1249 q 403 1063 343 1111 q 538 978 464 1014 q 614 942 575 958 z "},"€":{"ha":1425,"x_min":25,"x_max":1332,"o":"m 828 -26 q 570 36 685 -26 q 376 216 456 99 q 254 497 296 333 q 215 735 225 607 l 39 735 q 29 740 33 735 q 25 758 25 744 q 29 777 25 771 q 39 783 33 783 l 213 783 q 211 864 211 822 q 214 958 211 913 l 39 958 q 29 963 33 958 q 25 982 25 968 q 29 1000 25 994 q 39 1006 33 1006 l 218 1006 q 233 1121 224 1065 q 297 1341 256 1240 q 397 1520 338 1442 q 529 1654 456 1599 q 688 1738 603 1710 q 869 1767 774 1767 q 1020 1746 946 1767 q 1161 1684 1094 1725 q 1281 1583 1228 1643 q 1292 1564 1292 1572 q 1282 1546 1293 1556 q 1263 1538 1271 1536 q 1242 1551 1254 1539 q 1126 1644 1188 1608 q 1001 1698 1064 1681 q 869 1715 938 1715 q 703 1688 782 1715 q 558 1608 624 1661 q 438 1480 492 1554 q 346 1311 383 1406 q 289 1104 308 1217 q 275 1006 279 1056 l 1051 1006 q 1063 1001 1058 1006 q 1068 983 1068 997 q 1063 965 1068 971 q 1051 958 1058 958 l 271 958 q 268 864 268 913 q 269 783 268 822 l 1051 783 q 1063 778 1058 783 q 1068 760 1068 774 q 1063 741 1068 747 q 1051 735 1058 735 l 274 735 q 306 525 282 624 q 416 259 343 369 q 593 88 489 149 q 829 26 697 26 q 958 42 897 26 q 1073 87 1018 57 q 1179 158 1128 117 q 1281 251 1231 200 q 1300 267 1292 264 q 1322 256 1308 269 q 1331 238 1332 246 q 1318 218 1331 229 q 1161 82 1238 136 q 1005 1 1085 28 q 828 -26 925 -26 z "},"¢":{"ha":983,"x_min":122,"x_max":860,"o":"m 521 -175 q 494 -154 494 -175 l 494 -25 q 310 35 389 -19 q 171 210 219 96 q 122 482 122 325 q 140 672 122 585 q 191 827 157 758 q 273 943 225 896 q 385 1015 321 990 q 494 1039 435 1036 l 494 1189 q 521 1210 494 1210 q 546 1189 546 1210 l 546 1039 q 639 1021 593 1036 q 741 970 694 1001 q 819 901 788 939 q 824 887 825 894 q 813 871 824 879 q 796 864 803 863 q 782 872 789 865 q 700 942 742 915 q 614 982 658 968 q 546 993 582 990 l 546 21 q 638 39 597 24 q 731 91 688 56 q 817 182 775 126 q 831 188 824 188 q 846 182 839 188 q 857 169 854 176 q 856 156 860 163 q 760 54 814 94 q 647 -6 707 14 q 546 -26 599 -22 l 546 -154 q 521 -175 546 -175 m 494 22 l 494 993 q 403 972 444 990 q 306 908 349 950 q 235 803 264 865 q 191 660 206 740 q 176 485 176 581 q 217 240 176 344 q 335 78 257 135 q 494 22 401 28 z "},"£":{"ha":1253,"x_min":93,"x_max":1192,"o":"m 108 0 q 98 6 103 0 q 93 25 93 11 q 98 43 93 38 q 108 49 103 49 l 394 49 l 394 725 l 161 725 q 151 731 156 725 q 146 750 146 736 q 151 768 146 763 q 161 774 156 774 l 394 774 l 394 1338 q 441 1567 394 1471 q 574 1715 488 1664 q 775 1767 660 1767 q 975 1728 879 1767 q 1160 1611 1071 1689 q 1172 1594 1168 1603 q 1164 1572 1175 1586 q 1144 1563 1154 1563 q 1125 1571 1135 1564 q 952 1681 1039 1646 q 775 1715 865 1715 q 534 1617 621 1715 q 447 1336 447 1518 l 447 774 l 879 774 q 890 768 886 774 q 894 750 894 763 q 890 731 894 738 q 879 725 886 725 l 447 725 l 447 49 l 1176 49 q 1188 43 1183 49 q 1192 25 1192 38 q 1188 6 1192 11 q 1176 0 1183 0 l 108 0 z "},"¥":{"ha":1251,"x_min":53,"x_max":1200,"o":"m 613 -19 q 586 1 586 -19 l 586 524 l 175 524 q 165 529 169 524 q 160 547 160 535 q 165 567 160 561 q 175 572 169 572 l 586 572 l 586 746 l 175 746 q 165 751 169 746 q 160 771 160 757 q 165 789 160 783 q 175 794 169 794 l 567 794 l 58 1733 q 56 1753 53 1746 q 71 1764 60 1760 q 90 1766 85 1771 q 103 1750 96 1761 l 613 807 l 1146 1743 q 1163 1765 1156 1760 q 1182 1764 1171 1769 q 1197 1752 1194 1758 q 1194 1733 1200 1746 l 658 794 l 1049 794 q 1061 790 1056 794 q 1067 772 1067 786 q 1061 753 1067 760 q 1049 746 1056 746 l 638 746 l 638 572 l 1049 572 q 1061 567 1056 572 q 1067 549 1067 563 q 1061 530 1067 536 q 1049 524 1056 524 l 638 524 l 638 1 q 613 -19 638 -19 z "},"%":{"ha":1528,"x_min":124,"x_max":1404,"o":"m 408 1022 q 256 1068 319 1022 q 158 1197 192 1114 q 124 1394 124 1281 q 136 1520 124 1463 q 173 1624 149 1578 q 232 1701 197 1669 q 311 1750 267 1733 q 408 1767 356 1767 q 560 1721 496 1767 q 659 1592 624 1675 q 694 1394 694 1508 q 681 1269 694 1326 q 644 1165 668 1211 q 585 1088 619 1119 q 505 1039 550 1056 q 408 1022 460 1022 m 408 1068 q 489 1082 453 1068 q 553 1122 525 1096 q 603 1188 582 1149 q 633 1280 624 1228 q 643 1394 643 1332 q 581 1636 643 1553 q 408 1719 518 1719 q 328 1706 364 1719 q 263 1666 292 1693 q 215 1599 235 1639 q 185 1508 194 1560 q 175 1394 175 1457 q 237 1152 175 1236 q 408 1068 299 1068 m 299 -15 q 285 -26 293 -26 q 267 -21 278 -26 q 251 -6 254 -14 q 254 10 247 1 l 1221 1753 q 1233 1763 1225 1761 q 1253 1756 1240 1764 q 1267 1742 1265 1750 q 1265 1726 1269 1733 l 299 -15 m 1119 -26 q 966 20 1031 -26 q 867 150 901 67 q 832 347 832 233 q 846 473 832 415 q 884 577 860 531 q 943 655 908 624 q 1023 703 978 686 q 1119 721 1068 721 q 1271 675 1207 721 q 1369 546 1335 629 q 1404 347 1404 463 q 1392 222 1404 279 q 1355 118 1379 164 q 1296 40 1331 72 q 1217 -10 1261 7 q 1119 -26 1172 -26 m 1119 22 q 1200 36 1164 22 q 1265 76 1236 50 q 1313 142 1293 103 q 1344 233 1333 182 q 1354 347 1354 285 q 1292 590 1354 506 q 1119 674 1229 674 q 1040 660 1076 674 q 974 619 1003 646 q 926 553 946 592 q 895 463 906 514 q 885 347 885 411 q 947 106 885 189 q 1119 22 1010 22 z "},".":{"ha":435,"x_min":161,"x_max":272,"o":"m 217 -19 q 176 -3 190 -19 q 161 43 161 13 q 176 90 161 75 q 217 106 190 106 q 258 90 244 106 q 272 43 272 75 q 258 -3 272 13 q 217 -19 244 -19 z "},",":{"ha":435,"x_min":99,"x_max":256,"o":"m 129 -319 q 109 -312 119 -319 q 99 -296 99 -304 q 101 -285 99 -290 l 107 -271 q 148 -169 132 -217 q 171 -67 164 -121 q 178 65 178 -12 q 186 90 178 81 q 215 100 194 100 q 247 88 239 100 q 256 61 256 76 q 244 -63 256 1 q 211 -189 233 -128 q 156 -299 189 -250 q 143 -314 149 -308 q 129 -319 138 -319 z "},":":{"ha":435,"x_min":161,"x_max":272,"o":"m 217 -19 q 176 -3 190 -19 q 161 43 161 13 q 176 90 161 75 q 217 106 190 106 q 258 90 244 106 q 272 43 272 75 q 258 -3 272 13 q 217 -19 244 -19 m 217 586 q 176 602 190 586 q 161 649 161 618 q 176 696 161 681 q 217 711 190 711 q 258 696 244 711 q 272 649 272 681 q 258 602 272 618 q 217 586 244 586 z "},";":{"ha":435,"x_min":99,"x_max":272,"o":"m 217 586 q 176 602 190 586 q 161 649 161 618 q 176 696 161 681 q 217 711 190 711 q 258 696 244 711 q 272 649 272 681 q 258 602 272 618 q 217 586 244 586 m 129 -319 q 109 -312 119 -319 q 99 -296 99 -304 q 101 -285 99 -290 l 107 -271 q 148 -169 132 -217 q 171 -67 164 -121 q 178 65 178 -12 q 186 90 178 81 q 215 100 194 100 q 247 88 239 100 q 256 61 256 76 q 244 -63 256 1 q 211 -189 233 -128 q 156 -299 189 -250 q 143 -314 149 -308 q 129 -319 138 -319 z "},"…":{"ha":1178,"x_min":161,"x_max":1015,"o":"m 589 -19 q 548 -3 563 -19 q 533 43 533 13 q 548 90 533 75 q 589 106 563 106 q 631 90 617 106 q 644 43 644 75 q 631 -3 644 13 q 589 -19 617 -19 m 960 -19 q 919 -3 933 -19 q 904 43 904 13 q 919 90 904 75 q 960 106 933 106 q 1001 90 988 106 q 1015 43 1015 75 q 1001 -3 1015 13 q 960 -19 988 -19 m 217 -19 q 176 -3 190 -19 q 161 43 161 13 q 176 90 161 75 q 217 106 190 106 q 258 90 244 106 q 272 43 272 75 q 258 -3 272 13 q 217 -19 244 -19 z "},"!":{"ha":674,"x_min":281,"x_max":393,"o":"m 336 300 q 310 321 310 300 l 310 1746 q 317 1762 310 1757 q 336 1767 324 1767 q 363 1746 363 1767 l 363 321 q 357 306 363 311 q 336 300 351 300 m 336 -19 q 295 -3 310 -19 q 281 43 281 13 q 295 90 281 75 q 336 106 310 106 q 378 90 364 106 q 392 43 393 75 q 378 -3 392 13 q 336 -19 364 -19 z "},"¡":{"ha":674,"x_min":281,"x_max":393,"o":"m 336 396 q 363 375 363 396 l 363 -1050 q 356 -1066 363 -1061 q 336 -1071 350 -1071 q 310 -1050 310 -1071 l 310 375 q 316 391 310 386 q 336 396 322 396 m 336 715 q 378 700 364 715 q 392 653 392 685 q 379 606 393 622 q 336 590 365 590 q 295 606 310 590 q 281 653 281 622 q 295 700 281 685 q 336 715 310 715 z "},"?":{"ha":988,"x_min":31,"x_max":925,"o":"m 386 300 q 366 305 372 300 q 360 324 360 310 l 360 781 q 365 800 360 794 q 378 806 369 806 q 576 835 486 806 q 731 924 665 865 q 831 1069 796 982 q 867 1274 867 1157 q 819 1512 867 1413 q 683 1663 771 1611 q 481 1715 596 1715 q 337 1697 407 1715 q 201 1641 267 1679 q 72 1549 136 1603 q 58 1541 67 1542 q 39 1550 49 1540 q 31 1568 31 1560 q 38 1585 32 1576 q 170 1683 100 1642 q 319 1745 240 1724 q 481 1767 399 1767 q 714 1708 614 1767 q 869 1539 814 1649 q 925 1272 925 1429 q 888 1056 925 1150 q 782 897 850 963 q 619 797 714 832 q 413 757 525 763 l 413 324 q 407 305 413 310 q 386 300 401 300 m 386 -19 q 345 -3 360 -19 q 331 43 331 13 q 345 90 331 75 q 386 106 360 106 q 428 90 414 106 q 442 43 442 75 q 428 -3 442 13 q 386 -19 414 -19 z "},"¿":{"ha":988,"x_min":31,"x_max":925,"o":"m 569 396 q 590 392 585 396 q 596 372 596 388 l 596 -85 q 591 -104 596 -99 q 578 -110 586 -110 q 381 -140 471 -110 q 225 -228 292 -169 q 123 -374 158 -286 q 88 -578 88 -461 q 137 -815 88 -715 q 273 -967 186 -915 q 475 -1019 360 -1019 q 619 -1001 550 -1019 q 754 -945 689 -982 q 883 -853 819 -908 q 899 -844 890 -844 q 917 -854 907 -844 q 924 -872 924 -864 q 918 -889 925 -881 q 786 -987 857 -946 q 637 -1049 715 -1028 q 475 -1071 558 -1071 q 241 -1012 342 -1071 q 85 -842 140 -953 q 31 -576 31 -732 q 68 -360 31 -454 q 173 -201 106 -267 q 335 -101 240 -136 q 543 -61 431 -67 l 543 372 q 549 392 543 388 q 569 396 556 396 m 569 715 q 611 700 597 715 q 625 653 625 685 q 611 606 625 622 q 569 590 597 590 q 528 606 543 590 q 514 653 514 622 q 528 700 514 685 q 569 715 543 715 z "},"'":{"ha":235,"x_min":78,"x_max":157,"o":"m 117 1176 q 99 1184 107 1176 q 92 1204 92 1192 l 78 1576 q 88 1601 78 1592 q 117 1611 97 1611 q 147 1601 138 1611 q 157 1576 157 1592 l 143 1208 q 135 1185 143 1194 q 117 1176 128 1176 z "},"\"":{"ha":472,"x_min":78,"x_max":394,"o":"m 117 1176 q 99 1184 107 1176 q 92 1204 92 1192 l 78 1576 q 88 1601 78 1592 q 117 1611 97 1611 q 147 1601 138 1611 q 157 1576 157 1592 l 143 1208 q 135 1185 143 1194 q 117 1176 128 1176 m 354 1176 q 337 1184 344 1176 q 329 1204 329 1192 l 315 1576 q 325 1601 315 1592 q 354 1611 335 1611 q 385 1601 375 1611 q 394 1576 394 1592 l 381 1208 q 373 1185 381 1194 q 354 1176 365 1176 z "},"‘":{"ha":279,"x_min":90,"x_max":226,"o":"m 129 1176 q 99 1189 107 1176 q 90 1215 90 1201 q 94 1308 90 1258 q 108 1408 99 1357 q 133 1506 118 1458 q 171 1592 149 1554 q 183 1606 176 1600 q 196 1611 189 1611 q 217 1604 207 1611 q 226 1589 226 1597 q 224 1578 226 1583 q 218 1564 221 1572 q 184 1456 196 1508 q 169 1346 172 1404 q 165 1211 165 1288 q 157 1187 165 1197 q 129 1176 149 1176 z "},"’":{"ha":279,"x_min":54,"x_max":190,"o":"m 151 1611 q 182 1599 174 1611 q 190 1572 190 1588 q 186 1479 190 1529 q 172 1379 182 1429 q 147 1281 163 1329 q 110 1196 132 1233 q 98 1182 104 1188 q 85 1176 92 1176 q 65 1183 75 1176 q 54 1199 54 1190 q 57 1210 54 1204 q 63 1224 60 1215 q 97 1331 86 1279 q 112 1442 108 1383 q 115 1576 115 1501 q 124 1601 115 1592 q 151 1611 132 1611 z "},"‚":{"ha":371,"x_min":69,"x_max":226,"o":"m 100 -319 q 80 -312 90 -319 q 69 -296 69 -304 q 72 -285 69 -290 l 78 -271 q 119 -169 103 -217 q 142 -67 135 -121 q 149 65 149 -12 q 157 90 149 81 q 186 100 165 100 q 218 88 210 100 q 226 61 226 76 q 215 -63 226 1 q 182 -189 204 -128 q 126 -299 160 -250 q 114 -314 119 -308 q 100 -319 108 -319 z "},"“":{"ha":518,"x_min":90,"x_max":464,"o":"m 129 1176 q 99 1189 107 1176 q 90 1215 90 1201 q 94 1308 90 1258 q 108 1408 99 1357 q 133 1506 118 1458 q 171 1592 149 1554 q 183 1606 176 1600 q 196 1611 189 1611 q 217 1604 207 1611 q 226 1589 226 1597 q 224 1578 226 1583 q 218 1564 221 1572 q 184 1456 196 1508 q 169 1346 172 1404 q 165 1211 165 1288 q 157 1187 165 1197 q 129 1176 149 1176 m 367 1176 q 336 1189 344 1176 q 328 1215 328 1201 q 332 1308 328 1258 q 346 1408 336 1357 q 371 1506 356 1458 q 408 1592 386 1554 q 420 1606 414 1600 q 433 1611 426 1611 q 454 1604 444 1611 q 464 1589 464 1597 q 461 1578 464 1583 q 456 1564 458 1572 q 422 1456 433 1508 q 406 1346 410 1404 q 403 1211 403 1288 q 394 1187 403 1197 q 367 1176 386 1176 z "},"”":{"ha":525,"x_min":54,"x_max":436,"o":"m 397 1611 q 428 1599 419 1611 q 436 1572 436 1588 q 432 1479 436 1529 q 418 1379 428 1429 q 393 1281 408 1329 q 356 1196 378 1233 q 344 1182 350 1188 q 331 1176 338 1176 q 310 1183 321 1176 q 300 1199 300 1190 q 303 1210 300 1204 q 308 1224 306 1215 q 343 1331 332 1279 q 358 1442 354 1383 q 361 1576 361 1501 q 369 1601 361 1592 q 397 1611 378 1611 m 151 1611 q 182 1599 174 1611 q 190 1572 190 1588 q 186 1479 190 1529 q 172 1379 182 1429 q 147 1281 163 1329 q 110 1196 132 1233 q 98 1182 104 1188 q 85 1176 92 1176 q 65 1183 75 1176 q 54 1199 54 1190 q 57 1210 54 1204 q 63 1224 60 1215 q 97 1331 86 1279 q 112 1442 108 1383 q 115 1576 115 1501 q 124 1601 115 1592 q 151 1611 132 1611 z "},"„":{"ha":601,"x_min":69,"x_max":456,"o":"m 329 -319 q 309 -312 319 -319 q 299 -296 299 -304 q 301 -285 299 -290 l 307 -271 q 348 -169 332 -217 q 371 -67 364 -121 q 378 65 378 -12 q 386 90 378 81 q 415 100 394 100 q 447 88 439 100 q 456 61 456 76 q 444 -63 456 1 q 411 -189 433 -128 q 356 -299 389 -250 q 343 -314 349 -308 q 329 -319 338 -319 m 100 -319 q 80 -312 90 -319 q 69 -296 69 -304 q 72 -285 69 -290 l 78 -271 q 119 -169 103 -217 q 142 -67 135 -121 q 149 65 149 -12 q 157 90 149 81 q 186 100 165 100 q 218 88 210 100 q 226 61 226 76 q 215 -63 226 1 q 182 -189 204 -128 q 126 -299 160 -250 q 114 -314 119 -308 q 100 -319 108 -319 z "},"«":{"ha":1007,"x_min":165,"x_max":840,"o":"m 458 -19 q 442 -14 449 -19 q 432 -3 436 -8 l 192 306 q 172 331 178 321 q 165 349 165 342 q 172 368 165 358 q 192 393 178 378 l 435 700 q 444 710 438 706 q 460 715 451 715 q 477 711 469 715 q 486 699 485 707 q 478 678 488 690 l 219 349 l 478 19 q 483 -9 493 1 q 458 -19 474 -19 m 806 -19 q 790 -14 796 -19 q 779 -3 783 -8 l 539 306 q 519 331 525 321 q 513 349 513 342 q 519 368 513 358 q 539 393 525 378 l 782 700 q 792 710 785 706 q 807 715 799 715 q 824 711 817 715 q 833 699 832 707 q 825 678 835 690 l 567 349 l 825 19 q 831 -9 840 1 q 806 -19 821 -19 z "},"»":{"ha":1007,"x_min":168,"x_max":842,"o":"m 201 -19 q 184 -15 192 -19 q 175 -1 176 -10 q 182 19 174 7 l 442 349 l 182 678 q 177 706 168 696 q 200 715 186 715 q 216 710 210 715 q 226 700 222 706 l 469 393 q 488 368 482 378 q 494 349 494 358 q 488 331 494 342 q 469 306 482 321 l 228 -3 q 217 -14 224 -8 q 201 -19 211 -19 m 549 -19 q 531 -15 539 -19 q 522 -1 524 -10 q 529 19 521 7 l 789 349 l 529 678 q 524 706 515 696 q 547 715 533 715 q 563 710 557 715 q 574 700 569 706 l 817 393 q 835 368 829 378 q 842 349 842 358 q 835 331 842 342 q 817 306 829 321 l 575 -3 q 565 -14 571 -8 q 549 -19 558 -19 z "},"‹":{"ha":660,"x_min":165,"x_max":493,"o":"m 458 -19 q 442 -14 449 -19 q 432 -3 436 -8 l 192 306 q 172 331 178 321 q 165 349 165 342 q 172 368 165 358 q 192 393 178 378 l 435 700 q 444 710 438 706 q 460 715 451 715 q 477 711 469 715 q 486 699 485 707 q 478 678 488 690 l 219 349 l 478 19 q 483 -9 493 1 q 458 -19 474 -19 z "},"›":{"ha":660,"x_min":168,"x_max":494,"o":"m 201 -19 q 184 -15 192 -19 q 175 -1 176 -10 q 182 19 174 7 l 442 349 l 182 678 q 177 706 168 696 q 200 715 186 715 q 216 710 210 715 q 226 700 222 706 l 469 393 q 488 368 482 378 q 494 349 494 358 q 488 331 494 342 q 469 306 482 321 l 228 -3 q 217 -14 224 -8 q 201 -19 211 -19 z "},"Á":{"ha":1392,"x_min":64,"x_max":1328,"o":"m 82 -17 q 66 -5 68 -11 q 68 13 64 1 l 664 1746 q 674 1762 667 1757 q 694 1767 681 1767 q 715 1762 710 1767 q 724 1746 721 1757 l 1324 13 q 1326 -5 1328 1 q 1310 -17 1324 -11 q 1288 -18 1296 -22 q 1275 4 1281 -14 l 1088 551 l 303 551 l 117 4 q 103 -17 111 -12 q 82 -17 96 -22 m 322 600 l 1068 600 l 694 1689 l 322 600 m 606 1849 q 589 1858 597 1849 q 581 1875 581 1868 l 581 1882 q 585 1889 581 1885 l 836 2099 q 845 2106 842 2103 q 854 2110 849 2110 q 869 2105 863 2110 q 880 2093 875 2100 q 885 2079 885 2086 q 884 2071 885 2074 q 879 2064 883 2068 l 621 1858 q 613 1851 617 1854 q 606 1849 610 1849 z "},"Ă":{"ha":1392,"x_min":64,"x_max":1328,"o":"m 82 -17 q 66 -5 68 -11 q 68 13 64 1 l 664 1746 q 674 1762 667 1757 q 694 1767 681 1767 q 715 1762 710 1767 q 724 1746 721 1757 l 1324 13 q 1326 -5 1328 1 q 1310 -17 1324 -11 q 1288 -18 1296 -22 q 1275 4 1281 -14 l 1088 551 l 303 551 l 117 4 q 103 -17 111 -12 q 82 -17 96 -22 m 322 600 l 1068 600 l 694 1689 l 322 600 m 696 1849 q 528 1909 593 1849 q 457 2089 463 1969 q 463 2106 457 2100 q 481 2111 468 2111 q 500 2106 494 2111 q 507 2089 506 2100 q 561 1950 511 1994 q 696 1906 611 1906 q 831 1950 779 1906 q 886 2089 882 1994 q 893 2106 888 2100 q 911 2111 899 2111 q 931 2106 925 2111 q 936 2089 936 2100 q 901 1956 932 2008 q 818 1876 871 1903 q 696 1849 765 1849 z "},"Ǎ":{"ha":1392,"x_min":64,"x_max":1328,"o":"m 82 -17 q 66 -5 68 -11 q 68 13 64 1 l 664 1746 q 674 1762 667 1757 q 694 1767 681 1767 q 715 1762 710 1767 q 724 1746 721 1757 l 1324 13 q 1326 -5 1328 1 q 1310 -17 1324 -11 q 1288 -18 1296 -22 q 1275 4 1281 -14 l 1088 551 l 303 551 l 117 4 q 103 -17 111 -12 q 82 -17 96 -22 m 322 600 l 1068 600 l 694 1689 l 322 600 m 933 2111 q 949 2103 942 2111 q 956 2085 956 2096 q 954 2077 956 2081 q 949 2069 953 2074 l 718 1861 q 706 1851 711 1854 q 696 1849 701 1849 q 685 1851 690 1849 q 674 1861 681 1854 l 443 2071 q 439 2079 440 2075 q 438 2086 438 2083 q 444 2104 438 2097 q 460 2111 450 2111 q 469 2108 465 2111 q 478 2103 472 2106 l 696 1913 l 915 2103 l 924 2108 q 933 2111 928 2111 z "},"Â":{"ha":1392,"x_min":64,"x_max":1328,"o":"m 82 -17 q 66 -5 68 -11 q 68 13 64 1 l 664 1746 q 674 1762 667 1757 q 694 1767 681 1767 q 715 1762 710 1767 q 724 1746 721 1757 l 1324 13 q 1326 -5 1328 1 q 1310 -17 1324 -11 q 1288 -18 1296 -22 q 1275 4 1281 -14 l 1088 551 l 303 551 l 117 4 q 103 -17 111 -12 q 82 -17 96 -22 m 322 600 l 1068 600 l 694 1689 l 322 600 m 460 1843 q 444 1851 450 1843 q 438 1868 438 1858 q 439 1876 438 1872 q 443 1885 440 1881 l 674 2093 q 685 2102 681 2100 q 696 2104 690 2104 q 706 2102 701 2104 q 718 2093 711 2100 l 949 1882 q 954 1875 953 1879 q 956 1867 956 1871 q 949 1850 956 1857 q 932 1843 942 1843 q 924 1845 928 1843 q 915 1851 919 1847 l 696 2040 l 478 1851 q 469 1845 472 1847 q 460 1843 465 1843 z "},"Ä":{"ha":1392,"x_min":64,"x_max":1328,"o":"m 82 -17 q 66 -5 68 -11 q 68 13 64 1 l 664 1746 q 674 1762 667 1757 q 694 1767 681 1767 q 715 1762 710 1767 q 724 1746 721 1757 l 1324 13 q 1326 -5 1328 1 q 1310 -17 1324 -11 q 1288 -18 1296 -22 q 1275 4 1281 -14 l 1088 551 l 303 551 l 117 4 q 103 -17 111 -12 q 82 -17 96 -22 m 322 600 l 1068 600 l 694 1689 l 322 600 m 501 1908 q 462 1923 475 1908 q 449 1967 449 1938 q 462 2012 449 1997 q 501 2026 475 2026 q 541 2012 528 2026 q 554 1967 554 1997 q 540 1922 553 1936 q 501 1908 526 1908 m 892 1908 q 853 1923 865 1908 q 840 1967 840 1938 q 853 2012 840 1997 q 892 2026 867 2026 q 931 2012 917 2026 q 944 1967 944 1997 q 931 1923 944 1938 q 892 1908 918 1908 z "},"Ǽ":{"ha":1789,"x_min":54,"x_max":1693,"o":"m 1676 0 l 965 0 q 944 5 950 0 q 939 21 939 10 l 939 843 l 522 843 l 107 0 q 91 -17 100 -14 q 69 -14 82 -19 q 56 1 58 -7 q 61 22 54 8 l 900 1715 q 914 1731 906 1725 q 936 1736 922 1736 l 1676 1736 q 1688 1731 1683 1736 q 1693 1713 1693 1726 q 1688 1694 1693 1700 q 1676 1688 1683 1688 l 992 1688 l 992 892 l 1561 892 q 1572 887 1568 892 q 1576 869 1576 882 q 1572 849 1576 856 q 1561 843 1568 843 l 992 843 l 992 49 l 1676 49 q 1688 44 1683 49 q 1693 26 1693 39 q 1688 6 1693 13 q 1676 0 1683 0 m 547 892 l 939 892 l 939 1683 l 547 892 m 1183 1849 q 1167 1858 1175 1849 q 1158 1875 1158 1868 l 1158 1882 q 1163 1889 1158 1885 l 1414 2099 q 1423 2106 1419 2103 q 1432 2110 1426 2110 q 1447 2105 1440 2110 q 1458 2093 1453 2100 q 1463 2079 1463 2086 q 1462 2071 1463 2074 q 1457 2064 1461 2068 l 1199 1858 q 1191 1851 1194 1854 q 1183 1849 1188 1849 z "},"À":{"ha":1392,"x_min":64,"x_max":1328,"o":"m 82 -17 q 66 -5 68 -11 q 68 13 64 1 l 664 1746 q 674 1762 667 1757 q 694 1767 681 1767 q 715 1762 710 1767 q 724 1746 721 1757 l 1324 13 q 1326 -5 1328 1 q 1310 -17 1324 -11 q 1288 -18 1296 -22 q 1275 4 1281 -14 l 1088 551 l 303 551 l 117 4 q 103 -17 111 -12 q 82 -17 96 -22 m 322 600 l 1068 600 l 694 1689 l 322 600 m 776 1849 q 769 1851 772 1849 q 760 1858 767 1854 l 503 2064 q 499 2071 499 2068 l 499 2078 q 502 2092 499 2085 q 513 2105 506 2100 q 526 2110 519 2110 q 535 2106 532 2110 q 546 2099 539 2103 l 796 1889 q 802 1881 801 1885 q 803 1875 803 1878 q 792 1858 803 1868 q 776 1849 782 1849 z "},"Ā":{"ha":1392,"x_min":64,"x_max":1328,"o":"m 82 -17 q 66 -5 68 -11 q 68 13 64 1 l 664 1746 q 674 1762 667 1757 q 694 1767 681 1767 q 715 1762 710 1767 q 724 1746 721 1757 l 1324 13 q 1326 -5 1328 1 q 1310 -17 1324 -11 q 1288 -18 1296 -22 q 1275 4 1281 -14 l 1088 551 l 303 551 l 117 4 q 103 -17 111 -12 q 82 -17 96 -22 m 322 600 l 1068 600 l 694 1689 l 322 600 m 483 1951 q 467 1957 472 1951 q 463 1974 463 1963 q 467 1994 463 1988 q 483 2000 472 2000 l 908 2000 q 924 1994 919 2000 q 929 1974 929 1988 q 924 1957 929 1963 q 908 1951 919 1951 l 483 1951 z "},"Ą":{"ha":1392,"x_min":64,"x_max":1368,"o":"m 82 -17 q 66 -5 68 -11 q 68 13 64 1 l 664 1746 q 674 1762 667 1757 q 694 1767 681 1767 q 715 1762 710 1767 q 724 1746 721 1757 l 1324 13 q 1326 -5 1328 1 q 1310 -17 1324 -11 q 1303 -19 1307 -18 q 1258 -56 1281 -36 q 1197 -119 1225 -86 q 1153 -187 1169 -151 q 1138 -257 1138 -222 q 1156 -326 1138 -304 q 1206 -347 1174 -347 q 1265 -333 1231 -347 q 1328 -285 1300 -318 q 1344 -274 1336 -275 q 1357 -279 1351 -274 q 1367 -294 1367 -286 q 1361 -312 1368 -303 q 1317 -356 1343 -337 q 1261 -383 1290 -374 q 1203 -393 1232 -393 q 1119 -361 1153 -393 q 1085 -261 1085 -329 q 1101 -189 1085 -225 q 1144 -118 1117 -153 q 1208 -53 1172 -83 q 1276 -1 1240 -25 q 1275 4 1276 1 l 1088 551 l 303 551 l 117 4 q 103 -17 111 -12 q 82 -17 96 -22 m 322 600 l 1068 600 l 694 1689 l 322 600 z "},"Å":{"ha":1392,"x_min":64,"x_max":1328,"o":"m 82 -17 q 66 -5 68 -11 q 68 13 64 1 l 664 1746 q 674 1762 667 1757 q 694 1767 681 1767 q 715 1762 710 1767 q 724 1746 721 1757 l 1324 13 q 1326 -5 1328 1 q 1310 -17 1324 -11 q 1288 -18 1296 -22 q 1275 4 1281 -14 l 1088 551 l 303 551 l 117 4 q 103 -17 111 -12 q 82 -17 96 -22 m 322 600 l 1068 600 l 694 1689 l 322 600 m 696 1829 q 605 1849 646 1829 q 542 1906 564 1869 q 519 1988 519 1942 q 542 2070 519 2035 q 605 2126 564 2106 q 696 2146 646 2146 q 788 2126 749 2146 q 850 2070 828 2106 q 872 1988 872 2035 q 850 1906 872 1942 q 788 1849 828 1869 q 696 1829 749 1829 m 696 1878 q 783 1908 750 1878 q 817 1988 817 1939 q 783 2067 817 2038 q 696 2097 750 2097 q 608 2067 642 2097 q 575 1988 575 2038 q 608 1908 575 1939 q 696 1878 642 1878 z "},"Ã":{"ha":1392,"x_min":64,"x_max":1328,"o":"m 82 -17 q 66 -5 68 -11 q 68 13 64 1 l 664 1746 q 674 1762 667 1757 q 694 1767 681 1767 q 715 1762 710 1767 q 724 1746 721 1757 l 1324 13 q 1326 -5 1328 1 q 1310 -17 1324 -11 q 1288 -18 1296 -22 q 1275 4 1281 -14 l 1088 551 l 303 551 l 117 4 q 103 -17 111 -12 q 82 -17 96 -22 m 322 600 l 1068 600 l 694 1689 l 322 600 m 463 1894 q 439 1919 439 1894 q 475 2028 442 1988 q 558 2069 508 2069 q 638 2051 603 2069 q 706 2008 674 2032 q 768 1966 738 1985 q 832 1947 799 1947 q 883 1973 864 1947 q 903 2049 901 1999 q 929 2071 906 2071 q 949 2066 944 2071 q 951 2047 953 2061 q 917 1938 950 1978 q 829 1899 883 1899 q 752 1917 788 1899 q 685 1960 717 1936 q 624 2002 654 1983 q 558 2021 593 2021 q 508 1995 526 2021 q 488 1915 490 1969 q 481 1899 486 1904 q 463 1894 476 1894 z "},"Ắ":{"ha":1392,"x_min":64,"x_max":1328,"o":"m 82 -17 q 66 -5 68 -11 q 68 13 64 1 l 664 1746 q 674 1762 667 1757 q 694 1767 681 1767 q 715 1762 710 1767 q 724 1746 721 1757 l 1324 13 q 1326 -5 1328 1 q 1310 -17 1324 -11 q 1288 -18 1296 -22 q 1275 4 1281 -14 l 1088 551 l 303 551 l 117 4 q 103 -17 111 -12 q 82 -17 96 -22 m 322 600 l 1068 600 l 694 1689 l 322 600 m 696 1849 q 528 1909 593 1849 q 457 2089 463 1969 q 463 2106 457 2100 q 481 2111 468 2111 q 500 2106 494 2111 q 507 2089 506 2100 q 561 1950 511 1994 q 696 1906 611 1906 q 831 1950 779 1906 q 886 2089 882 1994 q 893 2106 888 2100 q 911 2111 899 2111 q 931 2106 925 2111 q 936 2089 936 2100 q 901 1956 932 2008 q 818 1876 871 1903 q 696 1849 765 1849 m 606 2093 q 589 2101 597 2093 q 581 2118 581 2110 l 581 2125 q 585 2132 581 2129 l 836 2343 q 845 2351 842 2347 q 854 2354 849 2354 q 869 2349 863 2354 q 880 2335 875 2343 q 885 2321 885 2328 q 884 2314 885 2317 q 879 2307 883 2311 l 621 2100 q 613 2095 615 2097 q 606 2093 610 2093 z "},"Ặ":{"ha":1392,"x_min":64,"x_max":1328,"o":"m 82 -17 q 66 -5 68 -11 q 68 13 64 1 l 664 1746 q 674 1762 667 1757 q 694 1767 681 1767 q 715 1762 710 1767 q 724 1746 721 1757 l 1324 13 q 1326 -5 1328 1 q 1310 -17 1324 -11 q 1288 -18 1296 -22 q 1275 4 1281 -14 l 1088 551 l 303 551 l 117 4 q 103 -17 111 -12 q 82 -17 96 -22 m 322 600 l 1068 600 l 694 1689 l 322 600 m 696 -294 q 657 -281 669 -294 q 644 -236 644 -267 q 658 -191 644 -206 q 696 -176 671 -176 q 735 -191 722 -176 q 749 -236 749 -206 q 735 -281 749 -267 q 696 -294 722 -294 m 696 1849 q 528 1909 593 1849 q 457 2089 463 1969 q 463 2106 457 2100 q 481 2111 468 2111 q 500 2106 494 2111 q 507 2089 506 2100 q 561 1950 511 1994 q 696 1906 611 1906 q 831 1950 779 1906 q 886 2089 882 1994 q 893 2106 888 2100 q 911 2111 899 2111 q 931 2106 925 2111 q 936 2089 936 2100 q 901 1956 932 2008 q 818 1876 871 1903 q 696 1849 765 1849 z "},"Ằ":{"ha":1392,"x_min":64,"x_max":1328,"o":"m 82 -17 q 66 -5 68 -11 q 68 13 64 1 l 664 1746 q 674 1762 667 1757 q 694 1767 681 1767 q 715 1762 710 1767 q 724 1746 721 1757 l 1324 13 q 1326 -5 1328 1 q 1310 -17 1324 -11 q 1288 -18 1296 -22 q 1275 4 1281 -14 l 1088 551 l 303 551 l 117 4 q 103 -17 111 -12 q 82 -17 96 -22 m 322 600 l 1068 600 l 694 1689 l 322 600 m 696 1849 q 528 1909 593 1849 q 457 2089 463 1969 q 463 2106 457 2100 q 481 2111 468 2111 q 500 2106 494 2111 q 507 2089 506 2100 q 561 1950 511 1994 q 696 1906 611 1906 q 831 1950 779 1906 q 886 2089 882 1994 q 893 2106 888 2100 q 911 2111 899 2111 q 931 2106 925 2111 q 936 2089 936 2100 q 901 1956 932 2008 q 818 1876 871 1903 q 696 1849 765 1849 m 790 2092 q 783 2094 786 2092 q 775 2101 781 2097 l 518 2308 q 513 2315 514 2313 q 513 2322 513 2318 q 517 2335 513 2328 q 528 2348 521 2343 q 542 2353 535 2353 q 551 2349 547 2353 q 560 2342 554 2346 l 811 2132 q 816 2124 815 2128 q 817 2117 817 2119 q 807 2101 817 2110 q 790 2092 797 2092 z "},"Ẳ":{"ha":1392,"x_min":64,"x_max":1328,"o":"m 82 -17 q 66 -5 68 -11 q 68 13 64 1 l 664 1746 q 674 1762 667 1757 q 694 1767 681 1767 q 715 1762 710 1767 q 724 1746 721 1757 l 1324 13 q 1326 -5 1328 1 q 1310 -17 1324 -11 q 1288 -18 1296 -22 q 1275 4 1281 -14 l 1088 551 l 303 551 l 117 4 q 103 -17 111 -12 q 82 -17 96 -22 m 322 600 l 1068 600 l 694 1689 l 322 600 m 696 1849 q 528 1909 593 1849 q 457 2089 463 1969 q 463 2106 457 2100 q 481 2111 468 2111 q 500 2106 494 2111 q 507 2089 506 2100 q 561 1950 511 1994 q 696 1906 611 1906 q 831 1950 779 1906 q 886 2089 882 1994 q 893 2106 888 2100 q 911 2111 899 2111 q 931 2106 925 2111 q 936 2089 936 2100 q 901 1956 932 2008 q 818 1876 871 1903 q 696 1849 765 1849 m 710 2375 q 808 2346 772 2375 q 843 2275 843 2317 q 824 2221 843 2244 q 763 2172 806 2197 q 724 2138 732 2151 q 729 2099 715 2124 l 732 2090 q 732 2074 736 2082 q 719 2063 728 2067 q 701 2059 710 2058 q 689 2069 692 2060 l 679 2090 q 674 2154 664 2126 q 718 2201 685 2182 q 771 2238 754 2221 q 788 2275 788 2254 q 764 2313 788 2299 q 706 2326 740 2326 q 652 2319 678 2326 q 604 2296 626 2311 q 586 2292 593 2289 q 574 2304 578 2293 q 579 2338 564 2321 q 638 2366 606 2357 q 710 2375 671 2375 z "},"Ẵ":{"ha":1392,"x_min":64,"x_max":1328,"o":"m 82 -17 q 66 -5 68 -11 q 68 13 64 1 l 664 1746 q 674 1762 667 1757 q 694 1767 681 1767 q 715 1762 710 1767 q 724 1746 721 1757 l 1324 13 q 1326 -5 1328 1 q 1310 -17 1324 -11 q 1288 -18 1296 -22 q 1275 4 1281 -14 l 1088 551 l 303 551 l 117 4 q 103 -17 111 -12 q 82 -17 96 -22 m 322 600 l 1068 600 l 694 1689 l 322 600 m 696 1849 q 528 1909 593 1849 q 457 2089 463 1969 q 463 2106 457 2100 q 481 2111 468 2111 q 500 2106 494 2111 q 507 2089 506 2100 q 561 1950 511 1994 q 696 1906 611 1906 q 831 1950 779 1906 q 886 2089 882 1994 q 893 2106 888 2100 q 911 2111 899 2111 q 931 2106 925 2111 q 936 2089 936 2100 q 901 1956 932 2008 q 818 1876 871 1903 q 696 1849 765 1849 m 463 2169 q 439 2193 439 2169 q 475 2304 442 2264 q 558 2344 508 2344 q 638 2326 603 2344 q 706 2283 674 2307 q 768 2240 738 2258 q 832 2221 799 2221 q 883 2247 864 2221 q 903 2324 901 2272 q 929 2347 906 2347 q 949 2342 944 2347 q 951 2322 953 2336 q 917 2212 950 2251 q 829 2172 883 2172 q 752 2191 788 2172 q 685 2234 717 2210 q 624 2277 654 2258 q 558 2296 593 2296 q 508 2270 526 2296 q 488 2192 490 2244 q 481 2174 486 2178 q 463 2169 476 2169 z "},"Ấ":{"ha":1392,"x_min":64,"x_max":1328,"o":"m 82 -17 q 66 -5 68 -11 q 68 13 64 1 l 664 1746 q 674 1762 667 1757 q 694 1767 681 1767 q 715 1762 710 1767 q 724 1746 721 1757 l 1324 13 q 1326 -5 1328 1 q 1310 -17 1324 -11 q 1288 -18 1296 -22 q 1275 4 1281 -14 l 1088 551 l 303 551 l 117 4 q 103 -17 111 -12 q 82 -17 96 -22 m 322 600 l 1068 600 l 694 1689 l 322 600 m 460 1843 q 444 1851 450 1843 q 438 1868 438 1858 q 439 1876 438 1872 q 443 1885 440 1881 l 674 2093 q 685 2102 681 2100 q 696 2104 690 2104 q 706 2102 701 2104 q 718 2093 711 2100 l 949 1882 q 954 1875 953 1879 q 956 1867 956 1871 q 949 1850 956 1857 q 932 1843 942 1843 q 924 1845 928 1843 q 915 1851 919 1847 l 696 2040 l 478 1851 q 469 1845 472 1847 q 460 1843 465 1843 m 911 2054 q 894 2064 903 2054 q 885 2081 885 2074 q 885 2087 885 2083 q 890 2094 886 2090 l 1121 2292 q 1130 2298 1126 2294 q 1139 2301 1133 2301 q 1153 2297 1146 2301 q 1165 2285 1160 2292 q 1169 2269 1169 2278 q 1169 2263 1169 2265 q 1164 2256 1168 2260 l 926 2064 q 917 2057 921 2060 q 911 2054 914 2054 z "},"Ậ":{"ha":1392,"x_min":64,"x_max":1328,"o":"m 82 -17 q 66 -5 68 -11 q 68 13 64 1 l 664 1746 q 674 1762 667 1757 q 694 1767 681 1767 q 715 1762 710 1767 q 724 1746 721 1757 l 1324 13 q 1326 -5 1328 1 q 1310 -17 1324 -11 q 1288 -18 1296 -22 q 1275 4 1281 -14 l 1088 551 l 303 551 l 117 4 q 103 -17 111 -12 q 82 -17 96 -22 m 322 600 l 1068 600 l 694 1689 l 322 600 m 696 -294 q 657 -281 669 -294 q 644 -236 644 -267 q 658 -191 644 -206 q 696 -176 671 -176 q 735 -191 722 -176 q 749 -236 749 -206 q 735 -281 749 -267 q 696 -294 722 -294 m 460 1843 q 444 1851 450 1843 q 438 1868 438 1858 q 439 1876 438 1872 q 443 1885 440 1881 l 674 2093 q 685 2102 681 2100 q 696 2104 690 2104 q 706 2102 701 2104 q 718 2093 711 2100 l 949 1882 q 954 1875 953 1879 q 956 1867 956 1871 q 949 1850 956 1857 q 932 1843 942 1843 q 924 1845 928 1843 q 915 1851 919 1847 l 696 2040 l 478 1851 q 469 1845 472 1847 q 460 1843 465 1843 z "},"Ầ":{"ha":1392,"x_min":64,"x_max":1328,"o":"m 82 -17 q 66 -5 68 -11 q 68 13 64 1 l 664 1746 q 674 1762 667 1757 q 694 1767 681 1767 q 715 1762 710 1767 q 724 1746 721 1757 l 1324 13 q 1326 -5 1328 1 q 1310 -17 1324 -11 q 1288 -18 1296 -22 q 1275 4 1281 -14 l 1088 551 l 303 551 l 117 4 q 103 -17 111 -12 q 82 -17 96 -22 m 322 600 l 1068 600 l 694 1689 l 322 600 m 460 1843 q 444 1851 450 1843 q 438 1868 438 1858 q 439 1876 438 1872 q 443 1885 440 1881 l 674 2093 q 685 2102 681 2100 q 696 2104 690 2104 q 706 2102 701 2104 q 718 2093 711 2100 l 949 1882 q 954 1875 953 1879 q 956 1867 956 1871 q 949 1850 956 1857 q 932 1843 942 1843 q 924 1845 928 1843 q 915 1851 919 1847 l 696 2040 l 478 1851 q 469 1845 472 1847 q 460 1843 465 1843 m 1008 2043 q 1001 2046 1004 2043 q 993 2053 999 2049 l 750 2258 q 747 2266 747 2264 q 746 2272 746 2268 q 751 2288 746 2279 q 763 2301 756 2296 q 776 2306 769 2306 q 784 2302 781 2306 q 793 2294 788 2299 l 1029 2083 q 1035 2076 1035 2081 l 1035 2069 q 1026 2053 1035 2063 q 1008 2043 1017 2043 z "},"Ẩ":{"ha":1392,"x_min":64,"x_max":1328,"o":"m 82 -17 q 66 -5 68 -11 q 68 13 64 1 l 664 1746 q 674 1762 667 1757 q 694 1767 681 1767 q 715 1762 710 1767 q 724 1746 721 1757 l 1324 13 q 1326 -5 1328 1 q 1310 -17 1324 -11 q 1288 -18 1296 -22 q 1275 4 1281 -14 l 1088 551 l 303 551 l 117 4 q 103 -17 111 -12 q 82 -17 96 -22 m 322 600 l 1068 600 l 694 1689 l 322 600 m 460 1843 q 444 1851 450 1843 q 438 1868 438 1858 q 439 1876 438 1872 q 443 1885 440 1881 l 674 2093 q 685 2102 681 2100 q 696 2104 690 2104 q 706 2102 701 2104 q 718 2093 711 2100 l 949 1882 q 954 1875 953 1879 q 956 1867 956 1871 q 949 1850 956 1857 q 932 1843 942 1843 q 924 1845 928 1843 q 915 1851 919 1847 l 696 2040 l 478 1851 q 469 1845 472 1847 q 460 1843 465 1843 m 940 2317 q 1038 2288 1003 2317 q 1074 2217 1074 2258 q 1054 2163 1074 2186 q 994 2114 1035 2140 q 953 2081 963 2094 q 958 2040 944 2067 l 961 2033 q 961 2016 965 2024 q 948 2005 957 2008 q 930 2002 939 2001 q 918 2011 921 2003 l 908 2033 q 904 2097 893 2069 q 949 2143 915 2124 q 1001 2179 985 2163 q 1018 2217 1018 2196 q 994 2254 1018 2240 q 936 2268 971 2268 q 883 2260 908 2268 q 835 2238 857 2253 q 814 2233 822 2231 q 804 2246 808 2236 q 810 2279 794 2264 q 868 2308 836 2299 q 940 2317 900 2317 z "},"Ẫ":{"ha":1392,"x_min":64,"x_max":1328,"o":"m 82 -17 q 66 -5 68 -11 q 68 13 64 1 l 664 1746 q 674 1762 667 1757 q 694 1767 681 1767 q 715 1762 710 1767 q 724 1746 721 1757 l 1324 13 q 1326 -5 1328 1 q 1310 -17 1324 -11 q 1288 -18 1296 -22 q 1275 4 1281 -14 l 1088 551 l 303 551 l 117 4 q 103 -17 111 -12 q 82 -17 96 -22 m 322 600 l 1068 600 l 694 1689 l 322 600 m 460 1843 q 444 1851 450 1843 q 438 1868 438 1858 q 439 1876 438 1872 q 443 1885 440 1881 l 674 2093 q 685 2102 681 2100 q 696 2104 690 2104 q 706 2102 701 2104 q 718 2093 711 2100 l 949 1882 q 954 1875 953 1879 q 956 1867 956 1871 q 949 1850 956 1857 q 932 1843 942 1843 q 924 1845 928 1843 q 915 1851 919 1847 l 696 2040 l 478 1851 q 469 1845 472 1847 q 460 1843 465 1843 m 463 2133 q 439 2158 439 2133 q 476 2267 443 2226 q 560 2308 508 2308 q 638 2290 603 2308 q 706 2247 674 2271 q 769 2205 739 2224 q 832 2186 800 2186 q 884 2212 865 2186 q 904 2288 903 2238 q 931 2310 906 2310 q 950 2306 946 2310 q 953 2286 954 2301 q 918 2177 951 2217 q 829 2138 885 2138 q 753 2156 789 2138 q 686 2199 718 2175 q 624 2241 654 2222 q 560 2260 593 2260 q 510 2234 528 2260 q 489 2156 492 2208 q 481 2138 486 2143 q 463 2133 476 2133 z "},"Ạ":{"ha":1392,"x_min":64,"x_max":1328,"o":"m 82 -17 q 66 -5 68 -11 q 68 13 64 1 l 664 1746 q 674 1762 667 1757 q 694 1767 681 1767 q 715 1762 710 1767 q 724 1746 721 1757 l 1324 13 q 1326 -5 1328 1 q 1310 -17 1324 -11 q 1288 -18 1296 -22 q 1275 4 1281 -14 l 1088 551 l 303 551 l 117 4 q 103 -17 111 -12 q 82 -17 96 -22 m 322 600 l 1068 600 l 694 1689 l 322 600 m 696 -294 q 657 -281 669 -294 q 644 -236 644 -267 q 658 -191 644 -206 q 696 -176 671 -176 q 735 -191 722 -176 q 749 -236 749 -206 q 735 -281 749 -267 q 696 -294 722 -294 z "},"Ả":{"ha":1392,"x_min":64,"x_max":1328,"o":"m 82 -17 q 66 -5 68 -11 q 68 13 64 1 l 664 1746 q 674 1762 667 1757 q 694 1767 681 1767 q 715 1762 710 1767 q 724 1746 721 1757 l 1324 13 q 1326 -5 1328 1 q 1310 -17 1324 -11 q 1288 -18 1296 -22 q 1275 4 1281 -14 l 1088 551 l 303 551 l 117 4 q 103 -17 111 -12 q 82 -17 96 -22 m 322 600 l 1068 600 l 694 1689 l 322 600 m 710 2149 q 807 2119 772 2149 q 842 2047 842 2090 q 823 1994 842 2018 q 763 1946 804 1971 q 724 1911 732 1925 q 729 1872 715 1897 l 732 1864 q 732 1848 736 1856 q 719 1836 728 1840 q 701 1833 710 1832 q 689 1843 692 1833 l 679 1864 q 674 1928 664 1900 q 718 1975 685 1956 q 770 2011 754 1994 q 786 2049 786 2028 q 763 2086 786 2072 q 704 2100 740 2100 q 652 2092 676 2100 q 604 2069 628 2085 q 583 2065 592 2063 q 575 2078 578 2068 q 581 2111 564 2096 q 638 2140 606 2131 q 710 2149 669 2149 z "},"Ć":{"ha":1438,"x_min":178,"x_max":1346,"o":"m 826 -26 q 558 36 678 -26 q 354 215 439 99 q 224 496 269 332 q 178 864 178 660 q 201 1124 178 1004 q 267 1344 224 1244 q 373 1523 311 1444 q 512 1656 435 1601 q 678 1738 589 1710 q 867 1767 768 1767 q 1026 1744 947 1767 q 1174 1678 1104 1722 q 1294 1569 1244 1633 q 1306 1551 1307 1558 q 1296 1533 1306 1543 q 1276 1526 1283 1524 q 1256 1540 1268 1528 q 1137 1641 1200 1603 q 1006 1697 1074 1679 q 867 1715 938 1715 q 693 1688 775 1715 q 541 1610 611 1661 q 414 1484 471 1558 q 317 1315 357 1410 q 256 1108 278 1221 q 235 864 235 994 q 276 524 235 678 q 394 258 318 369 q 581 87 471 147 q 826 26 690 26 q 965 44 900 26 q 1085 94 1029 61 q 1192 172 1140 126 q 1293 275 1243 218 q 1314 290 1306 288 q 1333 282 1322 293 q 1346 265 1346 272 q 1335 246 1346 257 q 1176 95 1254 156 q 1013 4 1097 35 q 826 -26 928 -26 m 757 1849 q 740 1858 749 1849 q 732 1875 732 1868 l 732 1882 q 736 1889 732 1885 l 988 2099 q 997 2106 993 2103 q 1006 2110 1000 2110 q 1020 2105 1014 2110 q 1031 2093 1026 2100 q 1036 2079 1036 2086 q 1035 2071 1036 2074 q 1031 2064 1035 2068 l 772 1858 q 765 1851 768 1854 q 757 1849 761 1849 z "},"Č":{"ha":1438,"x_min":178,"x_max":1346,"o":"m 826 -26 q 558 36 678 -26 q 354 215 439 99 q 224 496 269 332 q 178 864 178 660 q 201 1124 178 1004 q 267 1344 224 1244 q 373 1523 311 1444 q 512 1656 435 1601 q 678 1738 589 1710 q 867 1767 768 1767 q 1026 1744 947 1767 q 1174 1678 1104 1722 q 1294 1569 1244 1633 q 1306 1551 1307 1558 q 1296 1533 1306 1543 q 1276 1526 1283 1524 q 1256 1540 1268 1528 q 1137 1641 1200 1603 q 1006 1697 1074 1679 q 867 1715 938 1715 q 693 1688 775 1715 q 541 1610 611 1661 q 414 1484 471 1558 q 317 1315 357 1410 q 256 1108 278 1221 q 235 864 235 994 q 276 524 235 678 q 394 258 318 369 q 581 87 471 147 q 826 26 690 26 q 965 44 900 26 q 1085 94 1029 61 q 1192 172 1140 126 q 1293 275 1243 218 q 1314 290 1306 288 q 1333 282 1322 293 q 1346 265 1346 272 q 1335 246 1346 257 q 1176 95 1254 156 q 1013 4 1097 35 q 826 -26 928 -26 m 1085 2111 q 1100 2103 1093 2111 q 1107 2085 1107 2096 q 1106 2077 1107 2081 q 1100 2069 1104 2074 l 869 1861 q 858 1851 863 1854 q 847 1849 853 1849 q 837 1851 842 1849 q 825 1861 832 1854 l 594 2071 q 590 2079 592 2075 q 589 2086 589 2083 q 595 2104 589 2097 q 611 2111 601 2111 q 620 2108 617 2111 q 629 2103 624 2106 l 847 1913 l 1067 2103 l 1075 2108 q 1085 2111 1079 2111 z "},"Ç":{"ha":1438,"x_min":178,"x_max":1346,"o":"m 793 -378 q 736 -371 769 -378 q 671 -346 703 -364 q 660 -331 661 -339 q 664 -312 658 -322 q 676 -302 669 -304 q 693 -304 683 -300 q 742 -321 717 -314 q 794 -328 767 -328 q 867 -306 839 -328 q 894 -244 894 -285 q 862 -185 894 -203 q 769 -175 829 -168 q 753 -174 760 -176 q 743 -167 747 -172 q 739 -149 738 -157 q 746 -128 740 -142 l 788 -25 q 558 36 663 -18 q 354 215 439 99 q 224 496 269 332 q 178 864 178 660 q 201 1124 178 1004 q 267 1344 224 1244 q 373 1523 311 1444 q 512 1656 435 1601 q 678 1738 589 1710 q 867 1767 768 1767 q 1026 1744 947 1767 q 1174 1678 1104 1722 q 1294 1569 1244 1633 q 1306 1551 1307 1558 q 1296 1533 1306 1543 q 1276 1526 1283 1524 q 1256 1540 1268 1528 q 1137 1641 1200 1603 q 1006 1697 1074 1679 q 867 1715 938 1715 q 693 1688 775 1715 q 541 1610 611 1661 q 414 1484 471 1558 q 317 1315 357 1410 q 256 1108 278 1221 q 235 864 235 994 q 276 524 235 678 q 394 258 318 369 q 581 87 471 147 q 826 26 690 26 q 965 44 900 26 q 1085 94 1029 61 q 1192 172 1140 126 q 1293 275 1243 218 q 1314 290 1306 288 q 1333 282 1322 293 q 1346 265 1346 272 q 1335 246 1346 257 q 1176 95 1254 156 q 1013 4 1097 35 q 833 -26 931 -25 l 790 -131 q 858 -131 826 -125 q 925 -167 899 -139 q 951 -244 951 -194 q 931 -315 951 -285 q 874 -361 910 -344 q 793 -378 839 -378 z "},"Ĉ":{"ha":1438,"x_min":178,"x_max":1346,"o":"m 826 -26 q 558 36 678 -26 q 354 215 439 99 q 224 496 269 332 q 178 864 178 660 q 201 1124 178 1004 q 267 1344 224 1244 q 373 1523 311 1444 q 512 1656 435 1601 q 678 1738 589 1710 q 867 1767 768 1767 q 1026 1744 947 1767 q 1174 1678 1104 1722 q 1294 1569 1244 1633 q 1306 1551 1307 1558 q 1296 1533 1306 1543 q 1276 1526 1283 1524 q 1256 1540 1268 1528 q 1137 1641 1200 1603 q 1006 1697 1074 1679 q 867 1715 938 1715 q 693 1688 775 1715 q 541 1610 611 1661 q 414 1484 471 1558 q 317 1315 357 1410 q 256 1108 278 1221 q 235 864 235 994 q 276 524 235 678 q 394 258 318 369 q 581 87 471 147 q 826 26 690 26 q 965 44 900 26 q 1085 94 1029 61 q 1192 172 1140 126 q 1293 275 1243 218 q 1314 290 1306 288 q 1333 282 1322 293 q 1346 265 1346 272 q 1335 246 1346 257 q 1176 95 1254 156 q 1013 4 1097 35 q 826 -26 928 -26 m 611 1843 q 595 1851 601 1843 q 589 1868 589 1858 q 590 1876 589 1872 q 594 1885 592 1881 l 825 2093 q 837 2102 832 2100 q 847 2104 842 2104 q 858 2102 853 2104 q 869 2093 863 2100 l 1100 1882 q 1106 1875 1104 1879 q 1107 1867 1107 1871 q 1100 1850 1107 1857 q 1083 1843 1093 1843 q 1075 1845 1079 1843 q 1067 1851 1071 1847 l 847 2040 l 629 1851 q 620 1845 624 1847 q 611 1843 617 1843 z "},"Ċ":{"ha":1438,"x_min":178,"x_max":1346,"o":"m 826 -26 q 558 36 678 -26 q 354 215 439 99 q 224 496 269 332 q 178 864 178 660 q 201 1124 178 1004 q 267 1344 224 1244 q 373 1523 311 1444 q 512 1656 435 1601 q 678 1738 589 1710 q 867 1767 768 1767 q 1026 1744 947 1767 q 1174 1678 1104 1722 q 1294 1569 1244 1633 q 1306 1551 1307 1558 q 1296 1533 1306 1543 q 1276 1526 1283 1524 q 1256 1540 1268 1528 q 1137 1641 1200 1603 q 1006 1697 1074 1679 q 867 1715 938 1715 q 693 1688 775 1715 q 541 1610 611 1661 q 414 1484 471 1558 q 317 1315 357 1410 q 256 1108 278 1221 q 235 864 235 994 q 276 524 235 678 q 394 258 318 369 q 581 87 471 147 q 826 26 690 26 q 965 44 900 26 q 1085 94 1029 61 q 1192 172 1140 126 q 1293 275 1243 218 q 1314 290 1306 288 q 1333 282 1322 293 q 1346 265 1346 272 q 1335 246 1346 257 q 1176 95 1254 156 q 1013 4 1097 35 q 826 -26 928 -26 m 847 1908 q 808 1922 821 1908 q 796 1967 796 1936 q 809 2012 796 1997 q 847 2026 822 2026 q 887 2012 874 2026 q 900 1967 900 1997 q 887 1922 900 1936 q 847 1908 874 1908 z "},"Ď":{"ha":1611,"x_min":286,"x_max":1433,"o":"m 313 0 q 286 21 286 0 l 286 1715 q 293 1731 286 1726 q 314 1736 300 1736 l 650 1736 q 976 1688 831 1736 q 1223 1542 1121 1639 q 1379 1299 1325 1444 q 1433 957 1433 1154 q 1395 644 1433 790 q 1282 379 1357 497 q 1099 176 1207 261 q 853 46 992 92 q 549 0 714 0 l 313 0 m 340 49 l 544 49 q 831 92 701 49 q 1063 217 961 136 q 1234 409 1164 297 q 1340 660 1304 521 q 1376 957 1376 799 q 1326 1280 1376 1143 q 1181 1507 1276 1417 q 952 1642 1086 1597 q 650 1688 818 1688 l 340 1688 l 340 49 m 986 2111 q 1001 2103 994 2111 q 1008 2085 1008 2096 q 1007 2077 1008 2081 q 1001 2069 1006 2074 l 771 1861 q 759 1851 764 1854 q 749 1849 754 1849 q 738 1851 743 1849 q 726 1861 733 1854 l 496 2071 q 492 2079 493 2075 q 490 2086 490 2083 q 497 2104 490 2097 q 513 2111 503 2111 q 522 2108 518 2111 q 531 2103 525 2106 l 749 1913 l 968 2103 l 976 2108 q 986 2111 981 2111 z "},"Đ":{"ha":1611,"x_min":68,"x_max":1433,"o":"m 313 0 q 286 21 286 0 l 286 840 l 89 840 q 73 846 78 840 q 68 863 68 851 q 73 883 68 876 q 89 889 78 889 l 286 889 l 286 1715 q 293 1731 286 1726 q 314 1736 300 1736 l 650 1736 q 976 1688 831 1736 q 1223 1542 1121 1639 q 1379 1299 1325 1444 q 1433 957 1433 1154 q 1395 644 1433 790 q 1282 379 1357 497 q 1099 176 1207 261 q 853 46 992 92 q 549 0 714 0 l 313 0 m 340 49 l 544 49 q 831 92 701 49 q 1063 217 961 136 q 1234 409 1164 297 q 1340 660 1304 521 q 1376 957 1376 799 q 1326 1280 1376 1143 q 1181 1507 1276 1417 q 952 1642 1086 1597 q 650 1688 818 1688 l 340 1688 l 340 889 l 733 889 q 750 883 746 889 q 754 863 754 876 q 750 846 754 851 q 733 840 746 840 l 340 840 l 340 49 z "},"É":{"ha":1229,"x_min":286,"x_max":1133,"o":"m 313 0 q 292 5 299 0 q 286 21 286 10 l 286 1715 q 293 1731 286 1726 q 314 1736 300 1736 l 1118 1736 q 1129 1731 1125 1736 q 1133 1711 1133 1725 q 1129 1693 1133 1699 q 1118 1688 1125 1688 l 339 1688 l 339 942 l 1000 942 q 1013 935 1007 942 q 1018 917 1018 929 q 1013 898 1018 903 q 1000 893 1007 893 l 339 893 l 339 49 l 1118 49 q 1129 43 1125 49 q 1133 25 1133 38 q 1129 6 1133 11 q 1118 0 1125 0 l 313 0 m 626 1849 q 610 1858 618 1849 q 601 1875 601 1868 l 601 1882 q 606 1889 601 1885 l 857 2099 q 866 2106 863 2103 q 875 2110 869 2110 q 890 2105 883 2110 q 901 2093 896 2100 q 906 2079 906 2086 q 905 2071 906 2074 q 900 2064 904 2068 l 642 1858 q 634 1851 638 1854 q 626 1849 631 1849 z "},"Ĕ":{"ha":1229,"x_min":286,"x_max":1133,"o":"m 313 0 q 292 5 299 0 q 286 21 286 10 l 286 1715 q 293 1731 286 1726 q 314 1736 300 1736 l 1118 1736 q 1129 1731 1125 1736 q 1133 1711 1133 1725 q 1129 1693 1133 1699 q 1118 1688 1125 1688 l 339 1688 l 339 942 l 1000 942 q 1013 935 1007 942 q 1018 917 1018 929 q 1013 898 1018 903 q 1000 893 1007 893 l 339 893 l 339 49 l 1118 49 q 1129 43 1125 49 q 1133 25 1133 38 q 1129 6 1133 11 q 1118 0 1125 0 l 313 0 m 717 1849 q 549 1909 614 1849 q 478 2089 483 1969 q 483 2106 478 2100 q 501 2111 489 2111 q 521 2106 515 2111 q 528 2089 526 2100 q 582 1950 532 1994 q 717 1906 632 1906 q 851 1950 800 1906 q 907 2089 903 1994 q 914 2106 908 2100 q 932 2111 919 2111 q 951 2106 946 2111 q 957 2089 957 2100 q 922 1956 953 2008 q 839 1876 892 1903 q 717 1849 786 1849 z "},"Ě":{"ha":1229,"x_min":286,"x_max":1133,"o":"m 313 0 q 292 5 299 0 q 286 21 286 10 l 286 1715 q 293 1731 286 1726 q 314 1736 300 1736 l 1118 1736 q 1129 1731 1125 1736 q 1133 1711 1133 1725 q 1129 1693 1133 1699 q 1118 1688 1125 1688 l 339 1688 l 339 942 l 1000 942 q 1013 935 1007 942 q 1018 917 1018 929 q 1013 898 1018 903 q 1000 893 1007 893 l 339 893 l 339 49 l 1118 49 q 1129 43 1125 49 q 1133 25 1133 38 q 1129 6 1133 11 q 1118 0 1125 0 l 313 0 m 954 2111 q 969 2103 963 2111 q 976 2085 976 2096 q 975 2077 976 2081 q 969 2069 974 2074 l 739 1861 q 727 1851 732 1854 q 717 1849 722 1849 q 706 1851 711 1849 q 694 1861 701 1854 l 464 2071 q 460 2079 461 2075 q 458 2086 458 2083 q 465 2104 458 2097 q 481 2111 471 2111 q 490 2108 486 2111 q 499 2103 493 2106 l 717 1913 l 936 2103 l 944 2108 q 954 2111 949 2111 z "},"Ê":{"ha":1229,"x_min":286,"x_max":1133,"o":"m 313 0 q 292 5 299 0 q 286 21 286 10 l 286 1715 q 293 1731 286 1726 q 314 1736 300 1736 l 1118 1736 q 1129 1731 1125 1736 q 1133 1711 1133 1725 q 1129 1693 1133 1699 q 1118 1688 1125 1688 l 339 1688 l 339 942 l 1000 942 q 1013 935 1007 942 q 1018 917 1018 929 q 1013 898 1018 903 q 1000 893 1007 893 l 339 893 l 339 49 l 1118 49 q 1129 43 1125 49 q 1133 25 1133 38 q 1129 6 1133 11 q 1118 0 1125 0 l 313 0 m 481 1843 q 465 1851 471 1843 q 458 1868 458 1858 q 460 1876 458 1872 q 464 1885 461 1881 l 694 2093 q 706 2102 701 2100 q 717 2104 711 2104 q 727 2102 722 2104 q 739 2093 732 2100 l 969 1882 q 975 1875 974 1879 q 976 1867 976 1871 q 969 1850 976 1857 q 953 1843 963 1843 q 944 1845 949 1843 q 936 1851 940 1847 l 717 2040 l 499 1851 q 490 1845 493 1847 q 481 1843 486 1843 z "},"Ë":{"ha":1229,"x_min":286,"x_max":1133,"o":"m 313 0 q 292 5 299 0 q 286 21 286 10 l 286 1715 q 293 1731 286 1726 q 314 1736 300 1736 l 1118 1736 q 1129 1731 1125 1736 q 1133 1711 1133 1725 q 1129 1693 1133 1699 q 1118 1688 1125 1688 l 339 1688 l 339 942 l 1000 942 q 1013 935 1007 942 q 1018 917 1018 929 q 1013 898 1018 903 q 1000 893 1007 893 l 339 893 l 339 49 l 1118 49 q 1129 43 1125 49 q 1133 25 1133 38 q 1129 6 1133 11 q 1118 0 1125 0 l 313 0 m 522 1908 q 483 1923 496 1908 q 469 1967 469 1938 q 483 2012 469 1997 q 522 2026 496 2026 q 562 2012 549 2026 q 575 1967 575 1997 q 560 1922 574 1936 q 522 1908 547 1908 m 913 1908 q 874 1923 886 1908 q 861 1967 861 1938 q 874 2012 861 1997 q 913 2026 888 2026 q 951 2012 938 2026 q 965 1967 965 1997 q 952 1923 965 1938 q 913 1908 939 1908 z "},"Ė":{"ha":1229,"x_min":286,"x_max":1133,"o":"m 313 0 q 292 5 299 0 q 286 21 286 10 l 286 1715 q 293 1731 286 1726 q 314 1736 300 1736 l 1118 1736 q 1129 1731 1125 1736 q 1133 1711 1133 1725 q 1129 1693 1133 1699 q 1118 1688 1125 1688 l 339 1688 l 339 942 l 1000 942 q 1013 935 1007 942 q 1018 917 1018 929 q 1013 898 1018 903 q 1000 893 1007 893 l 339 893 l 339 49 l 1118 49 q 1129 43 1125 49 q 1133 25 1133 38 q 1129 6 1133 11 q 1118 0 1125 0 l 313 0 m 717 1908 q 678 1922 690 1908 q 665 1967 665 1936 q 678 2012 665 1997 q 717 2026 692 2026 q 756 2012 743 2026 q 769 1967 769 1997 q 756 1922 769 1936 q 717 1908 743 1908 z "},"È":{"ha":1229,"x_min":286,"x_max":1133,"o":"m 313 0 q 292 5 299 0 q 286 21 286 10 l 286 1715 q 293 1731 286 1726 q 314 1736 300 1736 l 1118 1736 q 1129 1731 1125 1736 q 1133 1711 1133 1725 q 1129 1693 1133 1699 q 1118 1688 1125 1688 l 339 1688 l 339 942 l 1000 942 q 1013 935 1007 942 q 1018 917 1018 929 q 1013 898 1018 903 q 1000 893 1007 893 l 339 893 l 339 49 l 1118 49 q 1129 43 1125 49 q 1133 25 1133 38 q 1129 6 1133 11 q 1118 0 1125 0 l 313 0 m 797 1849 q 790 1851 793 1849 q 781 1858 788 1854 l 524 2064 q 519 2071 519 2068 l 519 2078 q 523 2092 519 2085 q 533 2105 526 2100 q 547 2110 540 2110 q 556 2106 553 2110 q 567 2099 560 2103 l 817 1889 q 823 1881 822 1885 q 824 1875 824 1878 q 813 1858 824 1868 q 797 1849 803 1849 z "},"Ē":{"ha":1229,"x_min":286,"x_max":1133,"o":"m 313 0 q 292 5 299 0 q 286 21 286 10 l 286 1715 q 293 1731 286 1726 q 314 1736 300 1736 l 1118 1736 q 1129 1731 1125 1736 q 1133 1711 1133 1725 q 1129 1693 1133 1699 q 1118 1688 1125 1688 l 339 1688 l 339 942 l 1000 942 q 1013 935 1007 942 q 1018 917 1018 929 q 1013 898 1018 903 q 1000 893 1007 893 l 339 893 l 339 49 l 1118 49 q 1129 43 1125 49 q 1133 25 1133 38 q 1129 6 1133 11 q 1118 0 1125 0 l 313 0 m 504 1951 q 488 1957 493 1951 q 483 1974 483 1963 q 488 1994 483 1988 q 504 2000 493 2000 l 929 2000 q 945 1994 940 2000 q 950 1974 950 1988 q 945 1957 950 1963 q 929 1951 940 1951 l 504 1951 z "},"Ę":{"ha":1229,"x_min":286,"x_max":1169,"o":"m 313 0 q 292 5 299 0 q 286 21 286 10 l 286 1715 q 293 1731 286 1726 q 314 1736 300 1736 l 1118 1736 q 1129 1731 1125 1736 q 1133 1711 1133 1725 q 1129 1693 1133 1699 q 1118 1688 1125 1688 l 339 1688 l 339 942 l 1000 942 q 1013 935 1007 942 q 1018 917 1018 929 q 1013 898 1018 903 q 1000 893 1007 893 l 339 893 l 339 49 l 1118 49 q 1129 43 1125 49 q 1133 25 1133 38 q 1129 6 1133 11 q 1118 0 1125 0 l 1107 0 q 1060 -39 1083 -18 q 999 -102 1026 -69 q 955 -170 971 -135 q 939 -240 939 -206 q 957 -309 939 -287 q 1007 -331 975 -331 q 1067 -316 1032 -331 q 1129 -268 1101 -301 q 1145 -258 1138 -258 q 1158 -262 1153 -257 q 1169 -278 1168 -269 q 1163 -296 1169 -286 q 1118 -339 1144 -321 q 1063 -367 1092 -357 q 1004 -376 1033 -376 q 920 -344 954 -376 q 886 -244 886 -312 q 902 -172 886 -208 q 946 -101 918 -136 q 1010 -36 974 -67 q 1057 0 1032 -17 l 313 0 z "},"Ế":{"ha":1229,"x_min":286,"x_max":1190,"o":"m 313 0 q 292 5 299 0 q 286 21 286 10 l 286 1715 q 293 1731 286 1726 q 314 1736 300 1736 l 1118 1736 q 1129 1731 1125 1736 q 1133 1711 1133 1725 q 1129 1693 1133 1699 q 1118 1688 1125 1688 l 339 1688 l 339 942 l 1000 942 q 1013 935 1007 942 q 1018 917 1018 929 q 1013 898 1018 903 q 1000 893 1007 893 l 339 893 l 339 49 l 1118 49 q 1129 43 1125 49 q 1133 25 1133 38 q 1129 6 1133 11 q 1118 0 1125 0 l 313 0 m 481 1843 q 465 1851 471 1843 q 458 1868 458 1858 q 460 1876 458 1872 q 464 1885 461 1881 l 694 2093 q 706 2102 701 2100 q 717 2104 711 2104 q 727 2102 722 2104 q 739 2093 732 2100 l 969 1882 q 975 1875 974 1879 q 976 1867 976 1871 q 969 1850 976 1857 q 953 1843 963 1843 q 944 1845 949 1843 q 936 1851 940 1847 l 717 2040 l 499 1851 q 490 1845 493 1847 q 481 1843 486 1843 m 932 2054 q 915 2064 924 2054 q 906 2081 906 2074 q 906 2087 906 2083 q 911 2094 907 2090 l 1142 2292 q 1151 2298 1147 2294 q 1160 2301 1154 2301 q 1174 2297 1167 2301 q 1185 2285 1181 2292 q 1190 2269 1190 2278 q 1190 2263 1190 2265 q 1185 2256 1189 2260 l 947 2064 q 938 2057 942 2060 q 932 2054 935 2054 z "},"Ệ":{"ha":1229,"x_min":286,"x_max":1133,"o":"m 313 0 q 292 5 299 0 q 286 21 286 10 l 286 1715 q 293 1731 286 1726 q 314 1736 300 1736 l 1118 1736 q 1129 1731 1125 1736 q 1133 1711 1133 1725 q 1129 1693 1133 1699 q 1118 1688 1125 1688 l 339 1688 l 339 942 l 1000 942 q 1013 935 1007 942 q 1018 917 1018 929 q 1013 898 1018 903 q 1000 893 1007 893 l 339 893 l 339 49 l 1118 49 q 1129 43 1125 49 q 1133 25 1133 38 q 1129 6 1133 11 q 1118 0 1125 0 l 313 0 m 700 -294 q 661 -281 674 -294 q 649 -236 649 -267 q 662 -191 649 -206 q 700 -176 675 -176 q 740 -191 726 -176 q 753 -236 753 -206 q 740 -281 753 -267 q 700 -294 726 -294 m 481 1843 q 465 1851 471 1843 q 458 1868 458 1858 q 460 1876 458 1872 q 464 1885 461 1881 l 694 2093 q 706 2102 701 2100 q 717 2104 711 2104 q 727 2102 722 2104 q 739 2093 732 2100 l 969 1882 q 975 1875 974 1879 q 976 1867 976 1871 q 969 1850 976 1857 q 953 1843 963 1843 q 944 1845 949 1843 q 936 1851 940 1847 l 717 2040 l 499 1851 q 490 1845 493 1847 q 481 1843 486 1843 z "},"Ề":{"ha":1229,"x_min":286,"x_max":1133,"o":"m 313 0 q 292 5 299 0 q 286 21 286 10 l 286 1715 q 293 1731 286 1726 q 314 1736 300 1736 l 1118 1736 q 1129 1731 1125 1736 q 1133 1711 1133 1725 q 1129 1693 1133 1699 q 1118 1688 1125 1688 l 339 1688 l 339 942 l 1000 942 q 1013 935 1007 942 q 1018 917 1018 929 q 1013 898 1018 903 q 1000 893 1007 893 l 339 893 l 339 49 l 1118 49 q 1129 43 1125 49 q 1133 25 1133 38 q 1129 6 1133 11 q 1118 0 1125 0 l 313 0 m 481 1843 q 465 1851 471 1843 q 458 1868 458 1858 q 460 1876 458 1872 q 464 1885 461 1881 l 694 2093 q 706 2102 701 2100 q 717 2104 711 2104 q 727 2102 722 2104 q 739 2093 732 2100 l 969 1882 q 975 1875 974 1879 q 976 1867 976 1871 q 969 1850 976 1857 q 953 1843 963 1843 q 944 1845 949 1843 q 936 1851 940 1847 l 717 2040 l 499 1851 q 490 1845 493 1847 q 481 1843 486 1843 m 1029 2043 q 1022 2046 1025 2043 q 1014 2053 1019 2049 l 771 2258 q 767 2266 768 2264 q 767 2272 767 2268 q 772 2288 767 2279 q 783 2301 776 2296 q 797 2306 790 2306 q 805 2302 801 2306 q 814 2294 808 2299 l 1050 2083 q 1056 2076 1056 2081 l 1056 2069 q 1047 2053 1056 2063 q 1029 2043 1038 2043 z "},"Ể":{"ha":1229,"x_min":286,"x_max":1133,"o":"m 313 0 q 292 5 299 0 q 286 21 286 10 l 286 1715 q 293 1731 286 1726 q 314 1736 300 1736 l 1118 1736 q 1129 1731 1125 1736 q 1133 1711 1133 1725 q 1129 1693 1133 1699 q 1118 1688 1125 1688 l 339 1688 l 339 942 l 1000 942 q 1013 935 1007 942 q 1018 917 1018 929 q 1013 898 1018 903 q 1000 893 1007 893 l 339 893 l 339 49 l 1118 49 q 1129 43 1125 49 q 1133 25 1133 38 q 1129 6 1133 11 q 1118 0 1125 0 l 313 0 m 481 1843 q 465 1851 471 1843 q 458 1868 458 1858 q 460 1876 458 1872 q 464 1885 461 1881 l 694 2093 q 706 2102 701 2100 q 717 2104 711 2104 q 727 2102 722 2104 q 739 2093 732 2100 l 969 1882 q 975 1875 974 1879 q 976 1867 976 1871 q 969 1850 976 1857 q 953 1843 963 1843 q 944 1845 949 1843 q 936 1851 940 1847 l 717 2040 l 499 1851 q 490 1845 493 1847 q 481 1843 486 1843 m 961 2317 q 1059 2288 1024 2317 q 1094 2217 1094 2258 q 1075 2163 1094 2186 q 1015 2114 1056 2140 q 974 2081 983 2094 q 979 2040 965 2067 l 982 2033 q 982 2016 986 2024 q 969 2005 978 2008 q 951 2002 960 2001 q 939 2011 942 2003 l 929 2033 q 925 2097 914 2069 q 969 2143 936 2124 q 1022 2179 1006 2163 q 1039 2217 1039 2196 q 1015 2254 1039 2240 q 957 2268 992 2268 q 903 2260 929 2268 q 856 2238 878 2253 q 835 2233 843 2231 q 825 2246 829 2236 q 831 2279 815 2264 q 889 2308 857 2299 q 961 2317 921 2317 z "},"Ễ":{"ha":1229,"x_min":286,"x_max":1133,"o":"m 313 0 q 292 5 299 0 q 286 21 286 10 l 286 1715 q 293 1731 286 1726 q 314 1736 300 1736 l 1118 1736 q 1129 1731 1125 1736 q 1133 1711 1133 1725 q 1129 1693 1133 1699 q 1118 1688 1125 1688 l 339 1688 l 339 942 l 1000 942 q 1013 935 1007 942 q 1018 917 1018 929 q 1013 898 1018 903 q 1000 893 1007 893 l 339 893 l 339 49 l 1118 49 q 1129 43 1125 49 q 1133 25 1133 38 q 1129 6 1133 11 q 1118 0 1125 0 l 313 0 m 481 1843 q 465 1851 471 1843 q 458 1868 458 1858 q 460 1876 458 1872 q 464 1885 461 1881 l 694 2093 q 706 2102 701 2100 q 717 2104 711 2104 q 727 2102 722 2104 q 739 2093 732 2100 l 969 1882 q 975 1875 974 1879 q 976 1867 976 1871 q 969 1850 976 1857 q 953 1843 963 1843 q 944 1845 949 1843 q 936 1851 940 1847 l 717 2040 l 499 1851 q 490 1845 493 1847 q 481 1843 486 1843 m 483 2133 q 460 2158 460 2133 q 497 2267 464 2226 q 581 2308 529 2308 q 659 2290 624 2308 q 727 2247 694 2271 q 790 2205 760 2224 q 853 2186 821 2186 q 905 2212 886 2186 q 925 2288 924 2238 q 951 2310 926 2310 q 971 2306 967 2310 q 974 2286 975 2301 q 939 2177 972 2217 q 850 2138 906 2138 q 774 2156 810 2138 q 707 2199 739 2175 q 644 2241 675 2222 q 581 2260 614 2260 q 531 2234 549 2260 q 510 2156 513 2208 q 502 2138 507 2143 q 483 2133 497 2133 z "},"Ẹ":{"ha":1229,"x_min":286,"x_max":1133,"o":"m 313 0 q 292 5 299 0 q 286 21 286 10 l 286 1715 q 293 1731 286 1726 q 314 1736 300 1736 l 1118 1736 q 1129 1731 1125 1736 q 1133 1711 1133 1725 q 1129 1693 1133 1699 q 1118 1688 1125 1688 l 339 1688 l 339 942 l 1000 942 q 1013 935 1007 942 q 1018 917 1018 929 q 1013 898 1018 903 q 1000 893 1007 893 l 339 893 l 339 49 l 1118 49 q 1129 43 1125 49 q 1133 25 1133 38 q 1129 6 1133 11 q 1118 0 1125 0 l 313 0 m 700 -294 q 661 -281 674 -294 q 649 -236 649 -267 q 662 -191 649 -206 q 700 -176 675 -176 q 740 -191 726 -176 q 753 -236 753 -206 q 740 -281 753 -267 q 700 -294 726 -294 z "},"Ẻ":{"ha":1229,"x_min":286,"x_max":1133,"o":"m 313 0 q 292 5 299 0 q 286 21 286 10 l 286 1715 q 293 1731 286 1726 q 314 1736 300 1736 l 1118 1736 q 1129 1731 1125 1736 q 1133 1711 1133 1725 q 1129 1693 1133 1699 q 1118 1688 1125 1688 l 339 1688 l 339 942 l 1000 942 q 1013 935 1007 942 q 1018 917 1018 929 q 1013 898 1018 903 q 1000 893 1007 893 l 339 893 l 339 49 l 1118 49 q 1129 43 1125 49 q 1133 25 1133 38 q 1129 6 1133 11 q 1118 0 1125 0 l 313 0 m 731 2149 q 828 2119 793 2149 q 863 2047 863 2090 q 844 1994 863 2018 q 783 1946 825 1971 q 744 1911 753 1925 q 750 1872 736 1897 l 753 1864 q 753 1848 757 1856 q 740 1836 749 1840 q 722 1833 731 1832 q 710 1843 713 1833 l 700 1864 q 695 1928 685 1900 q 739 1975 706 1956 q 791 2011 775 1994 q 807 2049 807 2028 q 784 2086 807 2072 q 725 2100 761 2100 q 673 2092 697 2100 q 625 2069 649 2085 q 604 2065 613 2063 q 596 2078 599 2068 q 601 2111 585 2096 q 658 2140 626 2131 q 731 2149 690 2149 z "},"Ẽ":{"ha":1229,"x_min":286,"x_max":1133,"o":"m 313 0 q 292 5 299 0 q 286 21 286 10 l 286 1715 q 293 1731 286 1726 q 314 1736 300 1736 l 1118 1736 q 1129 1731 1125 1736 q 1133 1711 1133 1725 q 1129 1693 1133 1699 q 1118 1688 1125 1688 l 339 1688 l 339 942 l 1000 942 q 1013 935 1007 942 q 1018 917 1018 929 q 1013 898 1018 903 q 1000 893 1007 893 l 339 893 l 339 49 l 1118 49 q 1129 43 1125 49 q 1133 25 1133 38 q 1129 6 1133 11 q 1118 0 1125 0 l 313 0 m 483 1894 q 460 1919 460 1894 q 496 2028 463 1988 q 579 2069 529 2069 q 659 2051 624 2069 q 726 2008 694 2032 q 789 1966 758 1985 q 853 1947 819 1947 q 903 1973 885 1947 q 924 2049 922 1999 q 950 2071 926 2071 q 969 2066 965 2071 q 972 2047 974 2061 q 938 1938 971 1978 q 850 1899 904 1899 q 773 1917 808 1899 q 706 1960 738 1936 q 644 2002 675 1983 q 579 2021 614 2021 q 529 1995 547 2021 q 508 1915 511 1969 q 502 1899 507 1904 q 483 1894 497 1894 z "},"Ğ":{"ha":1614,"x_min":178,"x_max":1408,"o":"m 808 -26 q 551 35 667 -26 q 351 214 435 97 q 223 497 268 331 q 178 871 178 663 q 201 1129 178 1010 q 267 1349 224 1249 q 373 1526 311 1449 q 512 1657 435 1603 q 678 1739 589 1711 q 867 1767 768 1767 q 1020 1744 949 1767 q 1154 1678 1092 1722 q 1269 1569 1217 1635 q 1281 1551 1281 1558 q 1269 1533 1281 1543 q 1249 1526 1257 1524 q 1229 1540 1240 1528 q 1122 1638 1178 1600 q 1002 1696 1065 1676 q 867 1715 939 1715 q 693 1689 775 1715 q 541 1612 611 1663 q 414 1487 471 1561 q 317 1319 357 1413 q 256 1113 278 1225 q 235 871 235 1000 q 276 524 235 681 q 392 257 317 368 q 574 86 468 146 q 808 26 679 26 q 978 53 897 26 q 1128 139 1060 79 q 1248 294 1197 199 q 1326 527 1299 390 q 1354 850 1353 664 l 868 850 q 858 856 863 850 q 853 875 853 861 q 858 893 853 888 q 868 899 863 899 l 1382 899 q 1403 894 1397 899 q 1408 876 1408 889 q 1366 469 1408 640 q 1244 189 1324 299 q 1055 26 1165 79 q 808 -26 944 -26 m 836 1849 q 668 1909 733 1849 q 597 2089 603 1969 q 603 2106 597 2100 q 621 2111 608 2111 q 640 2106 635 2111 q 647 2089 646 2100 q 701 1950 651 1994 q 836 1906 751 1906 q 971 1950 919 1906 q 1026 2089 1022 1994 q 1033 2106 1028 2100 q 1051 2111 1039 2111 q 1071 2106 1065 2111 q 1076 2089 1076 2100 q 1042 1956 1072 2008 q 958 1876 1011 1903 q 836 1849 906 1849 z "},"Ĝ":{"ha":1614,"x_min":178,"x_max":1408,"o":"m 808 -26 q 551 35 667 -26 q 351 214 435 97 q 223 497 268 331 q 178 871 178 663 q 201 1129 178 1010 q 267 1349 224 1249 q 373 1526 311 1449 q 512 1657 435 1603 q 678 1739 589 1711 q 867 1767 768 1767 q 1020 1744 949 1767 q 1154 1678 1092 1722 q 1269 1569 1217 1635 q 1281 1551 1281 1558 q 1269 1533 1281 1543 q 1249 1526 1257 1524 q 1229 1540 1240 1528 q 1122 1638 1178 1600 q 1002 1696 1065 1676 q 867 1715 939 1715 q 693 1689 775 1715 q 541 1612 611 1663 q 414 1487 471 1561 q 317 1319 357 1413 q 256 1113 278 1225 q 235 871 235 1000 q 276 524 235 681 q 392 257 317 368 q 574 86 468 146 q 808 26 679 26 q 978 53 897 26 q 1128 139 1060 79 q 1248 294 1197 199 q 1326 527 1299 390 q 1354 850 1353 664 l 868 850 q 858 856 863 850 q 853 875 853 861 q 858 893 853 888 q 868 899 863 899 l 1382 899 q 1403 894 1397 899 q 1408 876 1408 889 q 1366 469 1408 640 q 1244 189 1324 299 q 1055 26 1165 79 q 808 -26 944 -26 m 600 1843 q 584 1851 590 1843 q 578 1868 578 1858 q 579 1876 578 1872 q 583 1885 581 1881 l 814 2093 q 826 2102 821 2100 q 836 2104 831 2104 q 847 2102 842 2104 q 858 2093 851 2100 l 1089 1882 q 1094 1875 1093 1879 q 1096 1867 1096 1871 q 1089 1850 1096 1857 q 1072 1843 1082 1843 q 1064 1845 1068 1843 q 1056 1851 1060 1847 l 836 2040 l 618 1851 q 609 1845 613 1847 q 600 1843 606 1843 z "},"Ģ":{"ha":1614,"x_min":178,"x_max":1408,"o":"m 808 -26 q 551 35 667 -26 q 351 214 435 97 q 223 497 268 331 q 178 871 178 663 q 201 1129 178 1010 q 267 1349 224 1249 q 373 1526 311 1449 q 512 1657 435 1603 q 678 1739 589 1711 q 867 1767 768 1767 q 1020 1744 949 1767 q 1154 1678 1092 1722 q 1269 1569 1217 1635 q 1281 1551 1281 1558 q 1269 1533 1281 1543 q 1249 1526 1257 1524 q 1229 1540 1240 1528 q 1122 1638 1178 1600 q 1002 1696 1065 1676 q 867 1715 939 1715 q 693 1689 775 1715 q 541 1612 611 1663 q 414 1487 471 1561 q 317 1319 357 1413 q 256 1113 278 1225 q 235 871 235 1000 q 276 524 235 681 q 392 257 317 368 q 574 86 468 146 q 808 26 679 26 q 978 53 897 26 q 1128 139 1060 79 q 1248 294 1197 199 q 1326 527 1299 390 q 1354 850 1353 664 l 868 850 q 858 856 863 850 q 853 875 853 861 q 858 893 853 888 q 868 899 863 899 l 1382 899 q 1403 894 1397 899 q 1408 876 1408 889 q 1366 469 1408 640 q 1244 189 1324 299 q 1055 26 1165 79 q 808 -26 944 -26 m 742 -407 q 727 -394 728 -401 q 735 -369 726 -386 q 765 -308 753 -339 q 782 -238 776 -276 q 788 -149 788 -200 q 793 -128 788 -137 q 814 -119 799 -119 q 836 -128 829 -119 q 843 -149 843 -137 q 835 -231 843 -187 q 813 -317 828 -275 q 776 -392 797 -358 q 763 -407 771 -401 q 742 -407 754 -412 z "},"Ġ":{"ha":1614,"x_min":178,"x_max":1408,"o":"m 808 -26 q 551 35 667 -26 q 351 214 435 97 q 223 497 268 331 q 178 871 178 663 q 201 1129 178 1010 q 267 1349 224 1249 q 373 1526 311 1449 q 512 1657 435 1603 q 678 1739 589 1711 q 867 1767 768 1767 q 1020 1744 949 1767 q 1154 1678 1092 1722 q 1269 1569 1217 1635 q 1281 1551 1281 1558 q 1269 1533 1281 1543 q 1249 1526 1257 1524 q 1229 1540 1240 1528 q 1122 1638 1178 1600 q 1002 1696 1065 1676 q 867 1715 939 1715 q 693 1689 775 1715 q 541 1612 611 1663 q 414 1487 471 1561 q 317 1319 357 1413 q 256 1113 278 1225 q 235 871 235 1000 q 276 524 235 681 q 392 257 317 368 q 574 86 468 146 q 808 26 679 26 q 978 53 897 26 q 1128 139 1060 79 q 1248 294 1197 199 q 1326 527 1299 390 q 1354 850 1353 664 l 868 850 q 858 856 863 850 q 853 875 853 861 q 858 893 853 888 q 868 899 863 899 l 1382 899 q 1403 894 1397 899 q 1408 876 1408 889 q 1366 469 1408 640 q 1244 189 1324 299 q 1055 26 1165 79 q 808 -26 944 -26 m 836 1908 q 797 1922 810 1908 q 785 1967 785 1936 q 798 2012 785 1997 q 836 2026 811 2026 q 876 2012 863 2026 q 889 1967 889 1997 q 876 1922 889 1936 q 836 1908 863 1908 z "},"Ħ":{"ha":1647,"x_min":79,"x_max":1568,"o":"m 313 -19 q 286 1 286 -19 l 286 1328 l 100 1328 q 84 1333 89 1328 q 79 1350 79 1339 q 84 1370 79 1364 q 100 1376 89 1376 l 286 1376 l 286 1746 q 293 1762 286 1757 q 313 1767 300 1767 q 339 1746 339 1767 l 339 1376 l 1308 1376 l 1308 1746 q 1315 1762 1308 1757 q 1335 1767 1322 1767 q 1361 1746 1361 1767 l 1361 1376 l 1547 1376 q 1563 1370 1558 1376 q 1568 1350 1568 1364 q 1563 1333 1568 1339 q 1547 1328 1558 1328 l 1361 1328 l 1361 1 q 1356 -14 1361 -8 q 1335 -19 1350 -19 q 1308 1 1308 -19 l 1308 886 l 339 886 l 339 1 q 333 -14 339 -8 q 313 -19 328 -19 m 339 1328 l 339 935 l 1308 935 l 1308 1328 l 339 1328 z "},"Ĥ":{"ha":1647,"x_min":286,"x_max":1361,"o":"m 313 -19 q 286 1 286 -19 l 286 1746 q 293 1762 286 1757 q 313 1767 300 1767 q 339 1746 339 1767 l 339 935 l 1308 935 l 1308 1746 q 1315 1762 1308 1757 q 1335 1767 1322 1767 q 1361 1746 1361 1767 l 1361 1 q 1356 -14 1361 -8 q 1335 -19 1350 -19 q 1308 1 1308 -19 l 1308 886 l 339 886 l 339 1 q 333 -14 339 -8 q 313 -19 328 -19 m 588 1843 q 572 1851 578 1843 q 565 1868 565 1858 q 567 1876 565 1872 q 571 1885 568 1881 l 801 2093 q 813 2102 808 2100 q 824 2104 818 2104 q 834 2102 829 2104 q 846 2093 839 2100 l 1076 1882 q 1082 1875 1081 1879 q 1083 1867 1083 1871 q 1076 1850 1083 1857 q 1060 1843 1069 1843 q 1051 1845 1056 1843 q 1043 1851 1047 1847 l 824 2040 l 606 1851 q 597 1845 600 1847 q 588 1843 593 1843 z "},"Í":{"ha":626,"x_min":197,"x_max":501,"o":"m 315 -19 q 293 -14 299 -19 q 288 1 288 -8 l 288 1746 q 294 1762 288 1757 q 314 1767 301 1767 q 333 1762 326 1767 q 339 1746 339 1757 l 339 1 q 333 -14 339 -8 q 315 -19 328 -19 m 222 1849 q 206 1858 214 1849 q 197 1875 197 1868 l 197 1882 q 201 1889 197 1885 l 453 2099 q 462 2106 458 2103 q 471 2110 465 2110 q 485 2105 479 2110 q 497 2093 492 2100 q 501 2079 501 2086 q 501 2071 501 2074 q 496 2064 500 2068 l 238 1858 q 230 1851 233 1854 q 222 1849 226 1849 z "},"Ĭ":{"ha":626,"x_min":74,"x_max":553,"o":"m 315 -19 q 293 -14 299 -19 q 288 1 288 -8 l 288 1746 q 294 1762 288 1757 q 314 1767 301 1767 q 333 1762 326 1767 q 339 1746 339 1757 l 339 1 q 333 -14 339 -8 q 315 -19 328 -19 m 313 1849 q 144 1909 210 1849 q 74 2089 79 1969 q 79 2106 74 2100 q 97 2111 85 2111 q 117 2106 111 2111 q 124 2089 122 2100 q 178 1950 128 1994 q 313 1906 228 1906 q 447 1950 396 1906 q 503 2089 499 1994 q 510 2106 504 2100 q 528 2111 515 2111 q 547 2106 542 2111 q 553 2089 553 2100 q 518 1956 549 2008 q 435 1876 488 1903 q 313 1849 382 1849 z "},"Ǐ":{"ha":626,"x_min":54,"x_max":572,"o":"m 315 -19 q 293 -14 299 -19 q 288 1 288 -8 l 288 1746 q 294 1762 288 1757 q 314 1767 301 1767 q 333 1762 326 1767 q 339 1746 339 1757 l 339 1 q 333 -14 339 -8 q 315 -19 328 -19 m 550 2111 q 565 2103 558 2111 q 572 2085 572 2096 q 571 2077 572 2081 q 565 2069 569 2074 l 335 1861 q 323 1851 328 1854 q 313 1849 318 1849 q 302 1851 307 1849 q 290 1861 297 1854 l 60 2071 q 56 2079 57 2075 q 54 2086 54 2083 q 60 2104 54 2097 q 76 2111 67 2111 q 85 2108 82 2111 q 94 2103 89 2106 l 313 1913 l 532 2103 l 540 2108 q 550 2111 544 2111 z "},"Î":{"ha":626,"x_min":54,"x_max":572,"o":"m 315 -19 q 293 -14 299 -19 q 288 1 288 -8 l 288 1746 q 294 1762 288 1757 q 314 1767 301 1767 q 333 1762 326 1767 q 339 1746 339 1757 l 339 1 q 333 -14 339 -8 q 315 -19 328 -19 m 76 1843 q 60 1851 67 1843 q 54 1868 54 1858 q 56 1876 54 1872 q 60 1885 57 1881 l 290 2093 q 302 2102 297 2100 q 313 2104 307 2104 q 323 2102 318 2104 q 335 2093 328 2100 l 565 1882 q 571 1875 569 1879 q 572 1867 572 1871 q 565 1850 572 1857 q 549 1843 558 1843 q 540 1845 544 1843 q 532 1851 536 1847 l 313 2040 l 94 1851 q 85 1845 89 1847 q 76 1843 82 1843 z "},"Ï":{"ha":626,"x_min":65,"x_max":561,"o":"m 315 -19 q 293 -14 299 -19 q 288 1 288 -8 l 288 1746 q 294 1762 288 1757 q 314 1767 301 1767 q 333 1762 326 1767 q 339 1746 339 1757 l 339 1 q 333 -14 339 -8 q 315 -19 328 -19 m 118 1908 q 78 1923 92 1908 q 65 1967 65 1938 q 78 2012 65 1997 q 118 2026 92 2026 q 158 2012 144 2026 q 171 1967 171 1997 q 156 1922 169 1936 q 118 1908 143 1908 m 508 1908 q 469 1923 482 1908 q 457 1967 457 1938 q 470 2012 457 1997 q 508 2026 483 2026 q 547 2012 533 2026 q 561 1967 561 1997 q 548 1923 561 1938 q 508 1908 535 1908 z "},"İ":{"ha":626,"x_min":261,"x_max":365,"o":"m 315 -19 q 293 -14 299 -19 q 288 1 288 -8 l 288 1746 q 294 1762 288 1757 q 314 1767 301 1767 q 333 1762 326 1767 q 339 1746 339 1757 l 339 1 q 333 -14 339 -8 q 315 -19 328 -19 m 313 1908 q 274 1922 286 1908 q 261 1967 261 1936 q 274 2012 261 1997 q 313 2026 288 2026 q 352 2012 339 2026 q 365 1967 365 1997 q 352 1922 365 1936 q 313 1908 339 1908 z "},"Ì":{"ha":626,"x_min":115,"x_max":419,"o":"m 315 -19 q 293 -14 299 -19 q 288 1 288 -8 l 288 1746 q 294 1762 288 1757 q 314 1767 301 1767 q 333 1762 326 1767 q 339 1746 339 1757 l 339 1 q 333 -14 339 -8 q 315 -19 328 -19 m 393 1849 q 386 1851 389 1849 q 376 1858 383 1854 l 119 2064 q 115 2071 115 2068 l 115 2078 q 119 2092 115 2085 q 129 2105 122 2100 q 143 2110 136 2110 q 152 2106 149 2110 q 163 2099 156 2103 l 413 1889 q 419 1881 418 1885 q 419 1875 419 1878 q 409 1858 419 1868 q 393 1849 399 1849 z "},"Ī":{"ha":626,"x_min":79,"x_max":546,"o":"m 315 -19 q 293 -14 299 -19 q 288 1 288 -8 l 288 1746 q 294 1762 288 1757 q 314 1767 301 1767 q 333 1762 326 1767 q 339 1746 339 1757 l 339 1 q 333 -14 339 -8 q 315 -19 328 -19 m 100 1951 q 84 1957 89 1951 q 79 1974 79 1963 q 84 1994 79 1988 q 100 2000 89 2000 l 525 2000 q 541 1994 536 2000 q 546 1974 546 1988 q 541 1957 546 1963 q 525 1951 536 1951 l 100 1951 z "},"Į":{"ha":626,"x_min":97,"x_max":381,"o":"m 215 -397 q 131 -365 165 -397 q 97 -265 97 -333 q 113 -193 97 -229 q 157 -122 129 -157 q 221 -57 185 -87 q 289 -7 253 -31 q 288 1 288 -3 l 288 1746 q 294 1762 288 1757 q 314 1767 301 1767 q 333 1762 326 1767 q 339 1746 339 1757 l 339 1 q 333 -14 339 -8 q 321 -19 329 -18 q 271 -60 296 -37 q 210 -123 238 -90 q 166 -191 182 -156 q 150 -261 150 -226 q 168 -330 150 -308 q 218 -351 186 -351 q 278 -337 243 -351 q 340 -289 313 -322 q 356 -278 349 -279 q 369 -283 364 -278 q 380 -299 379 -290 q 374 -317 381 -307 q 329 -360 356 -342 q 274 -387 303 -378 q 215 -397 244 -397 z "},"Ĩ":{"ha":626,"x_min":56,"x_max":569,"o":"m 315 -19 q 293 -14 299 -19 q 288 1 288 -8 l 288 1746 q 294 1762 288 1757 q 314 1767 301 1767 q 333 1762 326 1767 q 339 1746 339 1757 l 339 1 q 333 -14 339 -8 q 315 -19 328 -19 m 79 1894 q 56 1919 56 1894 q 92 2028 58 1988 q 175 2069 125 2069 q 255 2051 219 2069 q 322 2008 290 2032 q 385 1966 354 1985 q 449 1947 415 1947 q 499 1973 481 1947 q 519 2049 518 1999 q 546 2071 522 2071 q 565 2066 561 2071 q 568 2047 569 2061 q 533 1938 567 1978 q 446 1899 500 1899 q 369 1917 404 1899 q 302 1960 333 1936 q 240 2002 271 1983 q 175 2021 210 2021 q 125 1995 143 2021 q 104 1915 107 1969 q 98 1899 103 1904 q 79 1894 93 1894 z "},"Ị":{"ha":626,"x_min":261,"x_max":365,"o":"m 315 -19 q 293 -14 299 -19 q 288 1 288 -8 l 288 1746 q 294 1762 288 1757 q 314 1767 301 1767 q 333 1762 326 1767 q 339 1746 339 1757 l 339 1 q 333 -14 339 -8 q 315 -19 328 -19 m 313 -294 q 274 -281 286 -294 q 261 -236 261 -267 q 274 -191 261 -206 q 313 -176 288 -176 q 352 -191 339 -176 q 365 -236 365 -206 q 352 -281 365 -267 q 313 -294 339 -294 z "},"Ỉ":{"ha":626,"x_min":181,"x_max":458,"o":"m 315 -19 q 293 -14 299 -19 q 288 1 288 -8 l 288 1746 q 294 1762 288 1757 q 314 1767 301 1767 q 333 1762 326 1767 q 339 1746 339 1757 l 339 1 q 333 -14 339 -8 q 315 -19 328 -19 m 326 2149 q 424 2119 389 2149 q 458 2047 458 2090 q 440 1994 458 2018 q 379 1946 421 1971 q 340 1911 349 1925 q 346 1872 332 1897 l 349 1864 q 349 1848 353 1856 q 335 1836 344 1840 q 317 1833 326 1832 q 306 1843 308 1833 l 296 1864 q 291 1928 281 1900 q 335 1975 301 1956 q 387 2011 371 1994 q 403 2049 403 2028 q 380 2086 403 2072 q 321 2100 357 2100 q 269 2092 293 2100 q 221 2069 244 2085 q 200 2065 208 2063 q 192 2078 194 2068 q 197 2111 181 2096 q 254 2140 222 2131 q 326 2149 286 2149 z "},"Ĵ":{"ha":1206,"x_min":124,"x_max":1188,"o":"m 535 -26 q 344 10 425 -26 q 209 119 263 46 q 128 300 156 193 q 126 330 124 321 q 143 342 129 339 q 165 340 158 347 q 176 313 172 332 q 249 151 203 214 q 366 57 296 88 q 535 26 436 26 q 670 46 611 26 q 772 106 729 65 q 844 203 815 146 q 886 338 872 261 q 900 511 900 415 l 900 1743 q 906 1761 900 1756 q 926 1767 911 1767 q 948 1761 942 1767 q 954 1743 954 1756 l 954 517 q 938 321 954 407 q 887 169 921 235 q 803 60 853 104 q 685 -5 753 17 q 535 -26 618 -26 m 692 1843 q 676 1851 682 1843 q 669 1868 669 1858 q 671 1876 669 1872 q 675 1885 672 1881 l 906 2093 q 917 2102 913 2100 q 928 2104 922 2104 q 938 2102 933 2104 q 950 2093 943 2100 l 1181 1882 q 1186 1875 1185 1879 q 1188 1867 1188 1871 q 1181 1850 1188 1857 q 1164 1843 1174 1843 q 1156 1845 1160 1843 q 1147 1851 1151 1847 l 928 2040 l 710 1851 q 701 1845 704 1847 q 692 1843 697 1843 z "},"Ķ":{"ha":1275,"x_min":286,"x_max":1236,"o":"m 311 -19 q 292 -15 299 -19 q 286 1 286 -10 l 286 1746 q 313 1767 286 1767 q 339 1746 339 1767 l 339 926 l 1167 1760 q 1184 1770 1176 1769 q 1201 1760 1192 1771 q 1213 1743 1213 1750 q 1204 1726 1213 1736 l 397 919 q 652 608 517 767 q 932 299 788 449 q 1226 19 1076 149 q 1234 4 1236 11 q 1221 -14 1232 -3 q 1203 -22 1211 -24 q 1186 -14 1194 -21 q 962 195 1075 82 q 739 431 849 308 q 528 676 629 554 q 339 908 426 797 l 339 1 q 333 -15 339 -10 q 311 -19 326 -19 m 636 -407 q 622 -394 622 -401 q 629 -369 621 -386 q 659 -308 647 -339 q 676 -238 671 -276 q 682 -149 682 -200 q 688 -128 682 -137 q 708 -119 693 -119 q 731 -128 724 -119 q 738 -149 738 -137 q 730 -231 738 -187 q 707 -317 722 -275 q 671 -392 692 -358 q 657 -407 665 -401 q 636 -407 649 -412 z "},"Ĺ":{"ha":1160,"x_min":197,"x_max":1114,"o":"m 313 0 q 286 21 286 0 l 286 1746 q 292 1762 286 1757 q 313 1767 299 1767 q 333 1762 328 1767 q 339 1746 339 1757 l 339 49 l 1099 49 q 1110 43 1106 49 q 1114 25 1114 38 q 1110 6 1114 11 q 1099 0 1106 0 l 313 0 m 222 1849 q 206 1858 214 1849 q 197 1875 197 1868 l 197 1882 q 201 1889 197 1885 l 453 2099 q 462 2106 458 2103 q 471 2110 465 2110 q 485 2105 479 2110 q 497 2093 492 2100 q 501 2079 501 2086 q 501 2071 501 2074 q 496 2064 500 2068 l 238 1858 q 230 1851 233 1854 q 222 1849 226 1849 z "},"Ľ":{"ha":1160,"x_min":286,"x_max":1114,"o":"m 313 0 q 286 21 286 0 l 286 1746 q 292 1762 286 1757 q 313 1767 299 1767 q 333 1762 328 1767 q 339 1746 339 1757 l 339 49 l 1099 49 q 1110 43 1106 49 q 1114 25 1114 38 q 1110 6 1114 11 q 1099 0 1106 0 l 313 0 m 576 1446 q 564 1458 565 1450 q 567 1479 563 1467 q 586 1558 576 1513 q 603 1650 596 1603 q 611 1735 610 1697 q 617 1755 611 1746 q 638 1764 622 1764 q 660 1755 653 1764 q 667 1735 668 1746 q 655 1644 664 1694 q 633 1545 646 1593 q 608 1464 621 1497 q 597 1448 604 1453 q 576 1446 590 1443 z "},"Ļ":{"ha":1160,"x_min":286,"x_max":1114,"o":"m 313 0 q 286 21 286 0 l 286 1746 q 292 1762 286 1757 q 313 1767 299 1767 q 333 1762 328 1767 q 339 1746 339 1757 l 339 49 l 1099 49 q 1110 43 1106 49 q 1114 25 1114 38 q 1110 6 1114 11 q 1099 0 1106 0 l 313 0 m 625 -407 q 610 -394 611 -401 q 618 -369 610 -386 q 648 -308 636 -339 q 665 -238 660 -276 q 671 -149 671 -200 q 676 -128 671 -137 q 697 -119 682 -119 q 719 -128 713 -119 q 726 -149 726 -137 q 719 -231 726 -187 q 696 -317 711 -275 q 660 -392 681 -358 q 646 -407 654 -401 q 625 -407 638 -412 z "},"Ŀ":{"ha":1160,"x_min":286,"x_max":1114,"o":"m 313 0 q 286 21 286 0 l 286 1746 q 292 1762 286 1757 q 313 1767 299 1767 q 333 1762 328 1767 q 339 1746 339 1757 l 339 49 l 1099 49 q 1110 43 1106 49 q 1114 25 1114 38 q 1110 6 1114 11 q 1099 0 1106 0 l 313 0 m 868 840 q 828 855 842 840 q 815 900 815 869 q 828 944 815 929 q 868 958 842 958 q 907 944 894 958 q 919 900 919 929 q 907 855 919 869 q 868 840 894 840 z "},"Ł":{"ha":1160,"x_min":106,"x_max":1114,"o":"m 313 0 q 286 21 286 0 l 286 847 l 139 763 q 124 760 131 757 q 110 774 118 764 q 106 792 106 785 q 117 807 107 800 l 286 904 l 286 1746 q 292 1762 286 1757 q 313 1767 299 1767 q 333 1762 328 1767 q 339 1746 339 1757 l 339 935 l 594 1082 q 613 1085 606 1089 q 625 1069 621 1081 q 618 1038 635 1049 l 339 878 l 339 49 l 1099 49 q 1110 43 1106 49 q 1114 25 1114 38 q 1110 6 1114 11 q 1099 0 1106 0 l 313 0 z "},"Ń":{"ha":1647,"x_min":286,"x_max":1361,"o":"m 313 -19 q 286 1 286 -19 l 286 1746 q 293 1762 286 1757 q 311 1767 300 1767 q 329 1764 324 1767 q 340 1754 335 1761 l 1308 92 l 1308 1746 q 1315 1762 1308 1757 q 1335 1767 1321 1767 q 1361 1746 1361 1767 l 1361 1 q 1355 -15 1361 -10 q 1336 -19 1349 -19 q 1317 -15 1324 -19 q 1307 -4 1311 -11 l 339 1657 l 339 1 q 333 -15 339 -10 q 313 -19 328 -19 m 733 1849 q 717 1858 725 1849 q 708 1875 708 1868 l 708 1882 q 713 1889 708 1885 l 964 2099 q 973 2106 969 2103 q 982 2110 976 2110 q 997 2105 990 2110 q 1008 2093 1003 2100 q 1013 2079 1013 2086 q 1012 2071 1013 2074 q 1007 2064 1011 2068 l 749 1858 q 741 1851 744 1854 q 733 1849 738 1849 z "},"Ň":{"ha":1647,"x_min":286,"x_max":1361,"o":"m 313 -19 q 286 1 286 -19 l 286 1746 q 293 1762 286 1757 q 311 1767 300 1767 q 329 1764 324 1767 q 340 1754 335 1761 l 1308 92 l 1308 1746 q 1315 1762 1308 1757 q 1335 1767 1321 1767 q 1361 1746 1361 1767 l 1361 1 q 1355 -15 1361 -10 q 1336 -19 1349 -19 q 1317 -15 1324 -19 q 1307 -4 1311 -11 l 339 1657 l 339 1 q 333 -15 339 -10 q 313 -19 328 -19 m 1061 2111 q 1076 2103 1069 2111 q 1083 2085 1083 2096 q 1082 2077 1083 2081 q 1076 2069 1081 2074 l 846 1861 q 834 1851 839 1854 q 824 1849 829 1849 q 813 1851 818 1849 q 801 1861 808 1854 l 571 2071 q 567 2079 568 2075 q 565 2086 565 2083 q 572 2104 565 2097 q 588 2111 578 2111 q 597 2108 593 2111 q 606 2103 600 2106 l 824 1913 l 1043 2103 l 1051 2108 q 1061 2111 1056 2111 z "},"Ņ":{"ha":1647,"x_min":286,"x_max":1361,"o":"m 313 -19 q 286 1 286 -19 l 286 1746 q 293 1762 286 1757 q 311 1767 300 1767 q 329 1764 324 1767 q 340 1754 335 1761 l 1308 92 l 1308 1746 q 1315 1762 1308 1757 q 1335 1767 1321 1767 q 1361 1746 1361 1767 l 1361 1 q 1355 -15 1361 -10 q 1336 -19 1349 -19 q 1317 -15 1324 -19 q 1307 -4 1311 -11 l 339 1657 l 339 1 q 333 -15 339 -10 q 313 -19 328 -19 m 753 -407 q 738 -394 739 -401 q 746 -369 738 -386 q 776 -308 764 -339 q 793 -238 788 -276 q 799 -149 799 -200 q 804 -128 799 -137 q 825 -119 810 -119 q 847 -128 840 -119 q 854 -149 854 -137 q 847 -231 854 -187 q 824 -317 839 -275 q 788 -392 808 -358 q 774 -407 782 -401 q 753 -407 765 -412 z "},"Ñ":{"ha":1647,"x_min":286,"x_max":1361,"o":"m 313 -19 q 286 1 286 -19 l 286 1746 q 293 1762 286 1757 q 311 1767 300 1767 q 329 1764 324 1767 q 340 1754 335 1761 l 1308 92 l 1308 1746 q 1315 1762 1308 1757 q 1335 1767 1321 1767 q 1361 1746 1361 1767 l 1361 1 q 1355 -15 1361 -10 q 1336 -19 1349 -19 q 1317 -15 1324 -19 q 1307 -4 1311 -11 l 339 1657 l 339 1 q 333 -15 339 -10 q 313 -19 328 -19 m 590 1894 q 567 1919 567 1894 q 603 2028 569 1988 q 686 2069 636 2069 q 766 2051 731 2069 q 833 2008 801 2032 q 896 1966 865 1985 q 960 1947 926 1947 q 1010 1973 992 1947 q 1031 2049 1029 1999 q 1057 2071 1033 2071 q 1076 2066 1072 2071 q 1079 2047 1081 2061 q 1044 1938 1078 1978 q 957 1899 1011 1899 q 880 1917 915 1899 q 813 1960 844 1936 q 751 2002 782 1983 q 686 2021 721 2021 q 636 1995 654 2021 q 615 1915 618 1969 q 609 1899 614 1904 q 590 1894 604 1894 z "},"Ó":{"ha":1717,"x_min":178,"x_max":1539,"o":"m 861 -26 q 582 37 708 -26 q 366 218 456 100 q 227 501 276 336 q 178 871 178 667 q 200 1126 178 1007 q 265 1344 222 1244 q 366 1522 307 1443 q 501 1654 425 1600 q 669 1738 578 1708 q 861 1767 760 1767 q 1138 1703 1013 1767 q 1352 1521 1263 1639 q 1490 1239 1442 1403 q 1539 871 1539 1075 q 1517 617 1539 736 q 1453 397 1494 497 q 1351 219 1411 297 q 1216 85 1292 140 q 1051 2 1140 31 q 861 -26 963 -26 m 861 26 q 1036 53 954 26 q 1188 131 1118 79 q 1310 257 1257 183 q 1403 424 1364 331 q 1462 631 1442 518 q 1482 871 1482 743 q 1438 1218 1482 1064 q 1310 1485 1393 1372 q 1114 1656 1228 1597 q 861 1715 1000 1715 q 684 1689 767 1715 q 532 1610 601 1663 q 408 1485 463 1558 q 315 1317 353 1411 q 256 1110 276 1222 q 235 871 235 999 q 280 524 235 679 q 408 256 325 368 q 606 85 490 144 q 861 26 721 26 m 769 1849 q 753 1858 761 1849 q 744 1875 744 1868 l 744 1882 q 749 1889 744 1885 l 1000 2099 q 1009 2106 1006 2103 q 1018 2110 1013 2110 q 1033 2105 1026 2110 q 1044 2093 1039 2100 q 1049 2079 1049 2086 q 1048 2071 1049 2074 q 1043 2064 1047 2068 l 785 1858 q 777 1851 781 1854 q 769 1849 774 1849 z "},"Ŏ":{"ha":1717,"x_min":178,"x_max":1539,"o":"m 861 -26 q 582 37 708 -26 q 366 218 456 100 q 227 501 276 336 q 178 871 178 667 q 200 1126 178 1007 q 265 1344 222 1244 q 366 1522 307 1443 q 501 1654 425 1600 q 669 1738 578 1708 q 861 1767 760 1767 q 1138 1703 1013 1767 q 1352 1521 1263 1639 q 1490 1239 1442 1403 q 1539 871 1539 1075 q 1517 617 1539 736 q 1453 397 1494 497 q 1351 219 1411 297 q 1216 85 1292 140 q 1051 2 1140 31 q 861 -26 963 -26 m 861 26 q 1036 53 954 26 q 1188 131 1118 79 q 1310 257 1257 183 q 1403 424 1364 331 q 1462 631 1442 518 q 1482 871 1482 743 q 1438 1218 1482 1064 q 1310 1485 1393 1372 q 1114 1656 1228 1597 q 861 1715 1000 1715 q 684 1689 767 1715 q 532 1610 601 1663 q 408 1485 463 1558 q 315 1317 353 1411 q 256 1110 276 1222 q 235 871 235 999 q 280 524 235 679 q 408 256 325 368 q 606 85 490 144 q 861 26 721 26 m 860 1849 q 692 1909 757 1849 q 621 2089 626 1969 q 626 2106 621 2100 q 644 2111 632 2111 q 664 2106 658 2111 q 671 2089 669 2100 q 725 1950 675 1994 q 860 1906 775 1906 q 994 1950 943 1906 q 1050 2089 1046 1994 q 1057 2106 1051 2100 q 1075 2111 1063 2111 q 1094 2106 1089 2111 q 1100 2089 1100 2100 q 1065 1956 1096 2008 q 982 1876 1035 1903 q 860 1849 929 1849 z "},"Ǒ":{"ha":1717,"x_min":178,"x_max":1539,"o":"m 861 -26 q 582 37 708 -26 q 366 218 456 100 q 227 501 276 336 q 178 871 178 667 q 200 1126 178 1007 q 265 1344 222 1244 q 366 1522 307 1443 q 501 1654 425 1600 q 669 1738 578 1708 q 861 1767 760 1767 q 1138 1703 1013 1767 q 1352 1521 1263 1639 q 1490 1239 1442 1403 q 1539 871 1539 1075 q 1517 617 1539 736 q 1453 397 1494 497 q 1351 219 1411 297 q 1216 85 1292 140 q 1051 2 1140 31 q 861 -26 963 -26 m 861 26 q 1036 53 954 26 q 1188 131 1118 79 q 1310 257 1257 183 q 1403 424 1364 331 q 1462 631 1442 518 q 1482 871 1482 743 q 1438 1218 1482 1064 q 1310 1485 1393 1372 q 1114 1656 1228 1597 q 861 1715 1000 1715 q 684 1689 767 1715 q 532 1610 601 1663 q 408 1485 463 1558 q 315 1317 353 1411 q 256 1110 276 1222 q 235 871 235 999 q 280 524 235 679 q 408 256 325 368 q 606 85 490 144 q 861 26 721 26 m 1097 2111 q 1113 2103 1106 2111 q 1119 2085 1119 2096 q 1118 2077 1119 2081 q 1113 2069 1117 2074 l 882 1861 q 870 1851 875 1854 q 860 1849 865 1849 q 849 1851 854 1849 q 838 1861 844 1854 l 607 2071 q 603 2079 604 2075 q 601 2086 601 2083 q 608 2104 601 2097 q 624 2111 614 2111 q 633 2108 629 2111 q 642 2103 636 2106 l 860 1913 l 1079 2103 l 1088 2108 q 1097 2111 1092 2111 z "},"Ô":{"ha":1717,"x_min":178,"x_max":1539,"o":"m 861 -26 q 582 37 708 -26 q 366 218 456 100 q 227 501 276 336 q 178 871 178 667 q 200 1126 178 1007 q 265 1344 222 1244 q 366 1522 307 1443 q 501 1654 425 1600 q 669 1738 578 1708 q 861 1767 760 1767 q 1138 1703 1013 1767 q 1352 1521 1263 1639 q 1490 1239 1442 1403 q 1539 871 1539 1075 q 1517 617 1539 736 q 1453 397 1494 497 q 1351 219 1411 297 q 1216 85 1292 140 q 1051 2 1140 31 q 861 -26 963 -26 m 861 26 q 1036 53 954 26 q 1188 131 1118 79 q 1310 257 1257 183 q 1403 424 1364 331 q 1462 631 1442 518 q 1482 871 1482 743 q 1438 1218 1482 1064 q 1310 1485 1393 1372 q 1114 1656 1228 1597 q 861 1715 1000 1715 q 684 1689 767 1715 q 532 1610 601 1663 q 408 1485 463 1558 q 315 1317 353 1411 q 256 1110 276 1222 q 235 871 235 999 q 280 524 235 679 q 408 256 325 368 q 606 85 490 144 q 861 26 721 26 m 624 1843 q 608 1851 614 1843 q 601 1868 601 1858 q 603 1876 601 1872 q 607 1885 604 1881 l 838 2093 q 849 2102 844 2100 q 860 2104 854 2104 q 870 2102 865 2104 q 882 2093 875 2100 l 1113 1882 q 1118 1875 1117 1879 q 1119 1867 1119 1871 q 1113 1850 1119 1857 q 1096 1843 1106 1843 q 1088 1845 1092 1843 q 1079 1851 1083 1847 l 860 2040 l 642 1851 q 633 1845 636 1847 q 624 1843 629 1843 z "},"Ö":{"ha":1717,"x_min":178,"x_max":1539,"o":"m 861 -26 q 582 37 708 -26 q 366 218 456 100 q 227 501 276 336 q 178 871 178 667 q 200 1126 178 1007 q 265 1344 222 1244 q 366 1522 307 1443 q 501 1654 425 1600 q 669 1738 578 1708 q 861 1767 760 1767 q 1138 1703 1013 1767 q 1352 1521 1263 1639 q 1490 1239 1442 1403 q 1539 871 1539 1075 q 1517 617 1539 736 q 1453 397 1494 497 q 1351 219 1411 297 q 1216 85 1292 140 q 1051 2 1140 31 q 861 -26 963 -26 m 861 26 q 1036 53 954 26 q 1188 131 1118 79 q 1310 257 1257 183 q 1403 424 1364 331 q 1462 631 1442 518 q 1482 871 1482 743 q 1438 1218 1482 1064 q 1310 1485 1393 1372 q 1114 1656 1228 1597 q 861 1715 1000 1715 q 684 1689 767 1715 q 532 1610 601 1663 q 408 1485 463 1558 q 315 1317 353 1411 q 256 1110 276 1222 q 235 871 235 999 q 280 524 235 679 q 408 256 325 368 q 606 85 490 144 q 861 26 721 26 m 665 1908 q 626 1923 639 1908 q 613 1967 613 1938 q 626 2012 613 1997 q 665 2026 639 2026 q 705 2012 692 2026 q 718 1967 718 1997 q 703 1922 717 1936 q 665 1908 690 1908 m 1056 1908 q 1017 1923 1029 1908 q 1004 1967 1004 1938 q 1017 2012 1004 1997 q 1056 2026 1031 2026 q 1094 2012 1081 2026 q 1108 1967 1108 1997 q 1095 1923 1108 1938 q 1056 1908 1082 1908 z "},"Ò":{"ha":1717,"x_min":178,"x_max":1539,"o":"m 861 -26 q 582 37 708 -26 q 366 218 456 100 q 227 501 276 336 q 178 871 178 667 q 200 1126 178 1007 q 265 1344 222 1244 q 366 1522 307 1443 q 501 1654 425 1600 q 669 1738 578 1708 q 861 1767 760 1767 q 1138 1703 1013 1767 q 1352 1521 1263 1639 q 1490 1239 1442 1403 q 1539 871 1539 1075 q 1517 617 1539 736 q 1453 397 1494 497 q 1351 219 1411 297 q 1216 85 1292 140 q 1051 2 1140 31 q 861 -26 963 -26 m 861 26 q 1036 53 954 26 q 1188 131 1118 79 q 1310 257 1257 183 q 1403 424 1364 331 q 1462 631 1442 518 q 1482 871 1482 743 q 1438 1218 1482 1064 q 1310 1485 1393 1372 q 1114 1656 1228 1597 q 861 1715 1000 1715 q 684 1689 767 1715 q 532 1610 601 1663 q 408 1485 463 1558 q 315 1317 353 1411 q 256 1110 276 1222 q 235 871 235 999 q 280 524 235 679 q 408 256 325 368 q 606 85 490 144 q 861 26 721 26 m 940 1849 q 933 1851 936 1849 q 924 1858 931 1854 l 667 2064 q 663 2071 663 2068 l 663 2078 q 666 2092 663 2085 q 676 2105 669 2100 q 690 2110 683 2110 q 699 2106 696 2110 q 710 2099 703 2103 l 960 1889 q 966 1881 965 1885 q 967 1875 967 1878 q 956 1858 967 1868 q 940 1849 946 1849 z "},"Ő":{"ha":1717,"x_min":178,"x_max":1539,"o":"m 861 -26 q 582 37 708 -26 q 366 218 456 100 q 227 501 276 336 q 178 871 178 667 q 200 1126 178 1007 q 265 1344 222 1244 q 366 1522 307 1443 q 501 1654 425 1600 q 669 1738 578 1708 q 861 1767 760 1767 q 1138 1703 1013 1767 q 1352 1521 1263 1639 q 1490 1239 1442 1403 q 1539 871 1539 1075 q 1517 617 1539 736 q 1453 397 1494 497 q 1351 219 1411 297 q 1216 85 1292 140 q 1051 2 1140 31 q 861 -26 963 -26 m 861 26 q 1036 53 954 26 q 1188 131 1118 79 q 1310 257 1257 183 q 1403 424 1364 331 q 1462 631 1442 518 q 1482 871 1482 743 q 1438 1218 1482 1064 q 1310 1485 1393 1372 q 1114 1656 1228 1597 q 861 1715 1000 1715 q 684 1689 767 1715 q 532 1610 601 1663 q 408 1485 463 1558 q 315 1317 353 1411 q 256 1110 276 1222 q 235 871 235 999 q 280 524 235 679 q 408 256 325 368 q 606 85 490 144 q 861 26 721 26 m 711 1849 q 695 1858 704 1849 q 686 1875 686 1868 l 686 1882 q 690 1889 686 1886 l 942 2099 q 950 2106 947 2103 q 960 2110 953 2110 q 972 2106 965 2110 q 984 2093 979 2101 q 989 2078 989 2085 q 988 2071 989 2074 q 985 2065 988 2068 l 726 1858 q 718 1851 721 1854 q 711 1849 715 1849 m 969 1849 q 953 1858 963 1849 q 943 1875 943 1868 q 944 1881 943 1878 q 949 1889 946 1885 l 1200 2099 q 1209 2106 1206 2103 q 1217 2110 1213 2110 q 1232 2106 1225 2110 q 1242 2093 1239 2101 q 1246 2078 1246 2085 l 1246 2071 q 1242 2065 1246 2068 l 985 1858 q 976 1851 979 1854 q 969 1849 974 1849 z "},"Ō":{"ha":1717,"x_min":178,"x_max":1539,"o":"m 861 -26 q 582 37 708 -26 q 366 218 456 100 q 227 501 276 336 q 178 871 178 667 q 200 1126 178 1007 q 265 1344 222 1244 q 366 1522 307 1443 q 501 1654 425 1600 q 669 1738 578 1708 q 861 1767 760 1767 q 1138 1703 1013 1767 q 1352 1521 1263 1639 q 1490 1239 1442 1403 q 1539 871 1539 1075 q 1517 617 1539 736 q 1453 397 1494 497 q 1351 219 1411 297 q 1216 85 1292 140 q 1051 2 1140 31 q 861 -26 963 -26 m 861 26 q 1036 53 954 26 q 1188 131 1118 79 q 1310 257 1257 183 q 1403 424 1364 331 q 1462 631 1442 518 q 1482 871 1482 743 q 1438 1218 1482 1064 q 1310 1485 1393 1372 q 1114 1656 1228 1597 q 861 1715 1000 1715 q 684 1689 767 1715 q 532 1610 601 1663 q 408 1485 463 1558 q 315 1317 353 1411 q 256 1110 276 1222 q 235 871 235 999 q 280 524 235 679 q 408 256 325 368 q 606 85 490 144 q 861 26 721 26 m 647 1951 q 631 1957 636 1951 q 626 1974 626 1963 q 631 1994 626 1988 q 647 2000 636 2000 l 1072 2000 q 1088 1994 1083 2000 q 1093 1974 1093 1988 q 1088 1957 1093 1963 q 1072 1951 1083 1951 l 647 1951 z "},"Ø":{"ha":1717,"x_min":178,"x_max":1539,"o":"m 861 -26 q 582 38 708 -26 q 453 125 511 72 l 338 -69 q 324 -81 332 -81 q 303 -76 315 -82 q 290 -44 281 -62 l 413 163 q 367 218 389 189 q 227 501 276 336 q 178 871 178 667 q 200 1126 178 1007 q 265 1344 222 1244 q 366 1522 307 1443 q 501 1654 425 1600 q 669 1738 578 1708 q 861 1767 760 1767 q 1138 1703 1013 1767 q 1269 1611 1210 1667 l 1381 1800 q 1397 1813 1386 1811 q 1417 1808 1407 1814 q 1430 1794 1428 1801 q 1426 1775 1432 1786 l 1307 1574 q 1353 1521 1331 1549 q 1490 1239 1442 1403 q 1539 871 1539 1075 q 1517 617 1539 736 q 1453 397 1494 497 q 1351 219 1411 297 q 1216 85 1292 140 q 1051 2 1140 31 q 861 -26 963 -26 m 443 213 l 1242 1564 q 1114 1657 1183 1621 q 861 1715 1000 1715 q 684 1689 767 1715 q 532 1610 601 1663 q 408 1485 463 1558 q 315 1317 353 1411 q 256 1110 276 1222 q 235 871 235 999 q 280 524 235 679 q 408 257 325 368 q 443 213 425 233 m 861 26 q 1036 53 954 26 q 1188 131 1118 79 q 1310 257 1257 183 q 1403 424 1364 331 q 1462 631 1442 518 q 1482 871 1482 743 q 1438 1218 1482 1064 q 1311 1485 1393 1372 q 1279 1525 1294 1506 l 481 174 q 606 86 538 121 q 861 26 721 26 z "},"Õ":{"ha":1717,"x_min":178,"x_max":1539,"o":"m 861 -26 q 582 37 708 -26 q 366 218 456 100 q 227 501 276 336 q 178 871 178 667 q 200 1126 178 1007 q 265 1344 222 1244 q 366 1522 307 1443 q 501 1654 425 1600 q 669 1738 578 1708 q 861 1767 760 1767 q 1138 1703 1013 1767 q 1352 1521 1263 1639 q 1490 1239 1442 1403 q 1539 871 1539 1075 q 1517 617 1539 736 q 1453 397 1494 497 q 1351 219 1411 297 q 1216 85 1292 140 q 1051 2 1140 31 q 861 -26 963 -26 m 861 26 q 1036 53 954 26 q 1188 131 1118 79 q 1310 257 1257 183 q 1403 424 1364 331 q 1462 631 1442 518 q 1482 871 1482 743 q 1438 1218 1482 1064 q 1310 1485 1393 1372 q 1114 1656 1228 1597 q 861 1715 1000 1715 q 684 1689 767 1715 q 532 1610 601 1663 q 408 1485 463 1558 q 315 1317 353 1411 q 256 1110 276 1222 q 235 871 235 999 q 280 524 235 679 q 408 256 325 368 q 606 85 490 144 q 861 26 721 26 m 626 1894 q 603 1919 603 1894 q 639 2028 606 1988 q 722 2069 672 2069 q 802 2051 767 2069 q 869 2008 838 2032 q 932 1966 901 1985 q 996 1947 963 1947 q 1047 1973 1028 1947 q 1067 2049 1065 1999 q 1093 2071 1069 2071 q 1113 2066 1108 2071 q 1115 2047 1117 2061 q 1081 1938 1114 1978 q 993 1899 1047 1899 q 916 1917 951 1899 q 849 1960 881 1936 q 788 2002 818 1983 q 722 2021 757 2021 q 672 1995 690 2021 q 651 1915 654 1969 q 645 1899 650 1904 q 626 1894 640 1894 z "},"Ố":{"ha":1717,"x_min":178,"x_max":1539,"o":"m 861 -26 q 582 37 708 -26 q 366 218 456 100 q 227 501 276 336 q 178 871 178 667 q 200 1126 178 1007 q 265 1344 222 1244 q 366 1522 307 1443 q 501 1654 425 1600 q 669 1738 578 1708 q 861 1767 760 1767 q 1138 1703 1013 1767 q 1352 1521 1263 1639 q 1490 1239 1442 1403 q 1539 871 1539 1075 q 1517 617 1539 736 q 1453 397 1494 497 q 1351 219 1411 297 q 1216 85 1292 140 q 1051 2 1140 31 q 861 -26 963 -26 m 861 26 q 1036 53 954 26 q 1188 131 1118 79 q 1310 257 1257 183 q 1403 424 1364 331 q 1462 631 1442 518 q 1482 871 1482 743 q 1438 1218 1482 1064 q 1310 1485 1393 1372 q 1114 1656 1228 1597 q 861 1715 1000 1715 q 684 1689 767 1715 q 532 1610 601 1663 q 408 1485 463 1558 q 315 1317 353 1411 q 256 1110 276 1222 q 235 871 235 999 q 280 524 235 679 q 408 256 325 368 q 606 85 490 144 q 861 26 721 26 m 624 1843 q 608 1851 614 1843 q 601 1868 601 1858 q 603 1876 601 1872 q 607 1885 604 1881 l 838 2093 q 849 2102 844 2100 q 860 2104 854 2104 q 870 2102 865 2104 q 882 2093 875 2100 l 1113 1882 q 1118 1875 1117 1879 q 1119 1867 1119 1871 q 1113 1850 1119 1857 q 1096 1843 1106 1843 q 1088 1845 1092 1843 q 1079 1851 1083 1847 l 860 2040 l 642 1851 q 633 1845 636 1847 q 624 1843 629 1843 m 1075 2054 q 1058 2064 1067 2054 q 1049 2081 1049 2074 q 1049 2087 1049 2083 q 1054 2094 1050 2090 l 1285 2292 q 1294 2298 1290 2294 q 1303 2301 1297 2301 q 1317 2297 1310 2301 q 1328 2285 1324 2292 q 1333 2269 1333 2278 q 1333 2263 1333 2265 q 1328 2256 1332 2260 l 1090 2064 q 1081 2057 1085 2060 q 1075 2054 1078 2054 z "},"Ộ":{"ha":1717,"x_min":178,"x_max":1539,"o":"m 861 -26 q 582 37 708 -26 q 366 218 456 100 q 227 501 276 336 q 178 871 178 667 q 200 1126 178 1007 q 265 1344 222 1244 q 366 1522 307 1443 q 501 1654 425 1600 q 669 1738 578 1708 q 861 1767 760 1767 q 1138 1703 1013 1767 q 1352 1521 1263 1639 q 1490 1239 1442 1403 q 1539 871 1539 1075 q 1517 617 1539 736 q 1453 397 1494 497 q 1351 219 1411 297 q 1216 85 1292 140 q 1051 2 1140 31 q 861 -26 963 -26 m 861 26 q 1036 53 954 26 q 1188 131 1118 79 q 1310 257 1257 183 q 1403 424 1364 331 q 1462 631 1442 518 q 1482 871 1482 743 q 1438 1218 1482 1064 q 1310 1485 1393 1372 q 1114 1656 1228 1597 q 861 1715 1000 1715 q 684 1689 767 1715 q 532 1610 601 1663 q 408 1485 463 1558 q 315 1317 353 1411 q 256 1110 276 1222 q 235 871 235 999 q 280 524 235 679 q 408 256 325 368 q 606 85 490 144 q 861 26 721 26 m 860 -294 q 821 -281 833 -294 q 808 -236 808 -267 q 822 -191 808 -206 q 860 -176 835 -176 q 899 -191 886 -176 q 913 -236 913 -206 q 899 -281 913 -267 q 860 -294 886 -294 m 624 1843 q 608 1851 614 1843 q 601 1868 601 1858 q 603 1876 601 1872 q 607 1885 604 1881 l 838 2093 q 849 2102 844 2100 q 860 2104 854 2104 q 870 2102 865 2104 q 882 2093 875 2100 l 1113 1882 q 1118 1875 1117 1879 q 1119 1867 1119 1871 q 1113 1850 1119 1857 q 1096 1843 1106 1843 q 1088 1845 1092 1843 q 1079 1851 1083 1847 l 860 2040 l 642 1851 q 633 1845 636 1847 q 624 1843 629 1843 z "},"Ồ":{"ha":1717,"x_min":178,"x_max":1539,"o":"m 861 -26 q 582 37 708 -26 q 366 218 456 100 q 227 501 276 336 q 178 871 178 667 q 200 1126 178 1007 q 265 1344 222 1244 q 366 1522 307 1443 q 501 1654 425 1600 q 669 1738 578 1708 q 861 1767 760 1767 q 1138 1703 1013 1767 q 1352 1521 1263 1639 q 1490 1239 1442 1403 q 1539 871 1539 1075 q 1517 617 1539 736 q 1453 397 1494 497 q 1351 219 1411 297 q 1216 85 1292 140 q 1051 2 1140 31 q 861 -26 963 -26 m 861 26 q 1036 53 954 26 q 1188 131 1118 79 q 1310 257 1257 183 q 1403 424 1364 331 q 1462 631 1442 518 q 1482 871 1482 743 q 1438 1218 1482 1064 q 1310 1485 1393 1372 q 1114 1656 1228 1597 q 861 1715 1000 1715 q 684 1689 767 1715 q 532 1610 601 1663 q 408 1485 463 1558 q 315 1317 353 1411 q 256 1110 276 1222 q 235 871 235 999 q 280 524 235 679 q 408 256 325 368 q 606 85 490 144 q 861 26 721 26 m 624 1843 q 608 1851 614 1843 q 601 1868 601 1858 q 603 1876 601 1872 q 607 1885 604 1881 l 838 2093 q 849 2102 844 2100 q 860 2104 854 2104 q 870 2102 865 2104 q 882 2093 875 2100 l 1113 1882 q 1118 1875 1117 1879 q 1119 1867 1119 1871 q 1113 1850 1119 1857 q 1096 1843 1106 1843 q 1088 1845 1092 1843 q 1079 1851 1083 1847 l 860 2040 l 642 1851 q 633 1845 636 1847 q 624 1843 629 1843 m 1172 2043 q 1165 2046 1168 2043 q 1157 2053 1163 2049 l 914 2258 q 910 2266 911 2264 q 910 2272 910 2268 q 915 2288 910 2279 q 926 2301 919 2296 q 940 2306 933 2306 q 948 2302 944 2306 q 957 2294 951 2299 l 1193 2083 q 1199 2076 1199 2081 l 1199 2069 q 1190 2053 1199 2063 q 1172 2043 1181 2043 z "},"Ổ":{"ha":1717,"x_min":178,"x_max":1539,"o":"m 861 -26 q 582 37 708 -26 q 366 218 456 100 q 227 501 276 336 q 178 871 178 667 q 200 1126 178 1007 q 265 1344 222 1244 q 366 1522 307 1443 q 501 1654 425 1600 q 669 1738 578 1708 q 861 1767 760 1767 q 1138 1703 1013 1767 q 1352 1521 1263 1639 q 1490 1239 1442 1403 q 1539 871 1539 1075 q 1517 617 1539 736 q 1453 397 1494 497 q 1351 219 1411 297 q 1216 85 1292 140 q 1051 2 1140 31 q 861 -26 963 -26 m 861 26 q 1036 53 954 26 q 1188 131 1118 79 q 1310 257 1257 183 q 1403 424 1364 331 q 1462 631 1442 518 q 1482 871 1482 743 q 1438 1218 1482 1064 q 1310 1485 1393 1372 q 1114 1656 1228 1597 q 861 1715 1000 1715 q 684 1689 767 1715 q 532 1610 601 1663 q 408 1485 463 1558 q 315 1317 353 1411 q 256 1110 276 1222 q 235 871 235 999 q 280 524 235 679 q 408 256 325 368 q 606 85 490 144 q 861 26 721 26 m 624 1843 q 608 1851 614 1843 q 601 1868 601 1858 q 603 1876 601 1872 q 607 1885 604 1881 l 838 2093 q 849 2102 844 2100 q 860 2104 854 2104 q 870 2102 865 2104 q 882 2093 875 2100 l 1113 1882 q 1118 1875 1117 1879 q 1119 1867 1119 1871 q 1113 1850 1119 1857 q 1096 1843 1106 1843 q 1088 1845 1092 1843 q 1079 1851 1083 1847 l 860 2040 l 642 1851 q 633 1845 636 1847 q 624 1843 629 1843 m 1104 2317 q 1202 2288 1167 2317 q 1238 2217 1238 2258 q 1218 2163 1238 2186 q 1158 2114 1199 2140 q 1117 2081 1126 2094 q 1122 2040 1108 2067 l 1125 2033 q 1125 2016 1129 2024 q 1112 2005 1121 2008 q 1094 2002 1103 2001 q 1082 2011 1085 2003 l 1072 2033 q 1068 2097 1057 2069 q 1113 2143 1079 2124 q 1165 2179 1149 2163 q 1182 2217 1182 2196 q 1158 2254 1182 2240 q 1100 2268 1135 2268 q 1047 2260 1072 2268 q 999 2238 1021 2253 q 978 2233 986 2231 q 968 2246 972 2236 q 974 2279 958 2264 q 1032 2308 1000 2299 q 1104 2317 1064 2317 z "},"Ỗ":{"ha":1717,"x_min":178,"x_max":1539,"o":"m 861 -26 q 582 37 708 -26 q 366 218 456 100 q 227 501 276 336 q 178 871 178 667 q 200 1126 178 1007 q 265 1344 222 1244 q 366 1522 307 1443 q 501 1654 425 1600 q 669 1738 578 1708 q 861 1767 760 1767 q 1138 1703 1013 1767 q 1352 1521 1263 1639 q 1490 1239 1442 1403 q 1539 871 1539 1075 q 1517 617 1539 736 q 1453 397 1494 497 q 1351 219 1411 297 q 1216 85 1292 140 q 1051 2 1140 31 q 861 -26 963 -26 m 861 26 q 1036 53 954 26 q 1188 131 1118 79 q 1310 257 1257 183 q 1403 424 1364 331 q 1462 631 1442 518 q 1482 871 1482 743 q 1438 1218 1482 1064 q 1310 1485 1393 1372 q 1114 1656 1228 1597 q 861 1715 1000 1715 q 684 1689 767 1715 q 532 1610 601 1663 q 408 1485 463 1558 q 315 1317 353 1411 q 256 1110 276 1222 q 235 871 235 999 q 280 524 235 679 q 408 256 325 368 q 606 85 490 144 q 861 26 721 26 m 624 1843 q 608 1851 614 1843 q 601 1868 601 1858 q 603 1876 601 1872 q 607 1885 604 1881 l 838 2093 q 849 2102 844 2100 q 860 2104 854 2104 q 870 2102 865 2104 q 882 2093 875 2100 l 1113 1882 q 1118 1875 1117 1879 q 1119 1867 1119 1871 q 1113 1850 1119 1857 q 1096 1843 1106 1843 q 1088 1845 1092 1843 q 1079 1851 1083 1847 l 860 2040 l 642 1851 q 633 1845 636 1847 q 624 1843 629 1843 m 626 2133 q 603 2158 603 2133 q 640 2267 607 2226 q 724 2308 672 2308 q 802 2290 767 2308 q 870 2247 838 2271 q 933 2205 903 2224 q 996 2186 964 2186 q 1048 2212 1029 2186 q 1068 2288 1067 2238 q 1094 2310 1069 2310 q 1114 2306 1110 2310 q 1117 2286 1118 2301 q 1082 2177 1115 2217 q 993 2138 1049 2138 q 917 2156 953 2138 q 850 2199 882 2175 q 788 2241 818 2222 q 724 2260 757 2260 q 674 2234 692 2260 q 653 2156 656 2208 q 645 2138 650 2143 q 626 2133 640 2133 z "},"Ọ":{"ha":1717,"x_min":178,"x_max":1539,"o":"m 861 -26 q 582 37 708 -26 q 366 218 456 100 q 227 501 276 336 q 178 871 178 667 q 200 1126 178 1007 q 265 1344 222 1244 q 366 1522 307 1443 q 501 1654 425 1600 q 669 1738 578 1708 q 861 1767 760 1767 q 1138 1703 1013 1767 q 1352 1521 1263 1639 q 1490 1239 1442 1403 q 1539 871 1539 1075 q 1517 617 1539 736 q 1453 397 1494 497 q 1351 219 1411 297 q 1216 85 1292 140 q 1051 2 1140 31 q 861 -26 963 -26 m 861 26 q 1036 53 954 26 q 1188 131 1118 79 q 1310 257 1257 183 q 1403 424 1364 331 q 1462 631 1442 518 q 1482 871 1482 743 q 1438 1218 1482 1064 q 1310 1485 1393 1372 q 1114 1656 1228 1597 q 861 1715 1000 1715 q 684 1689 767 1715 q 532 1610 601 1663 q 408 1485 463 1558 q 315 1317 353 1411 q 256 1110 276 1222 q 235 871 235 999 q 280 524 235 679 q 408 256 325 368 q 606 85 490 144 q 861 26 721 26 m 860 -294 q 821 -281 833 -294 q 808 -236 808 -267 q 822 -191 808 -206 q 860 -176 835 -176 q 899 -191 886 -176 q 913 -236 913 -206 q 899 -281 913 -267 q 860 -294 886 -294 z "},"Ỏ":{"ha":1717,"x_min":178,"x_max":1539,"o":"m 861 -26 q 582 37 708 -26 q 366 218 456 100 q 227 501 276 336 q 178 871 178 667 q 200 1126 178 1007 q 265 1344 222 1244 q 366 1522 307 1443 q 501 1654 425 1600 q 669 1738 578 1708 q 861 1767 760 1767 q 1138 1703 1013 1767 q 1352 1521 1263 1639 q 1490 1239 1442 1403 q 1539 871 1539 1075 q 1517 617 1539 736 q 1453 397 1494 497 q 1351 219 1411 297 q 1216 85 1292 140 q 1051 2 1140 31 q 861 -26 963 -26 m 861 26 q 1036 53 954 26 q 1188 131 1118 79 q 1310 257 1257 183 q 1403 424 1364 331 q 1462 631 1442 518 q 1482 871 1482 743 q 1438 1218 1482 1064 q 1310 1485 1393 1372 q 1114 1656 1228 1597 q 861 1715 1000 1715 q 684 1689 767 1715 q 532 1610 601 1663 q 408 1485 463 1558 q 315 1317 353 1411 q 256 1110 276 1222 q 235 871 235 999 q 280 524 235 679 q 408 256 325 368 q 606 85 490 144 q 861 26 721 26 m 874 2149 q 971 2119 936 2149 q 1006 2047 1006 2090 q 987 1994 1006 2018 q 926 1946 968 1971 q 888 1911 896 1925 q 893 1872 879 1897 l 896 1864 q 896 1848 900 1856 q 883 1836 892 1840 q 865 1833 874 1832 q 853 1843 856 1833 l 843 1864 q 838 1928 828 1900 q 882 1975 849 1956 q 934 2011 918 1994 q 950 2049 950 2028 q 927 2086 950 2072 q 868 2100 904 2100 q 816 2092 840 2100 q 768 2069 792 2085 q 747 2065 756 2063 q 739 2078 742 2068 q 744 2111 728 2096 q 801 2140 769 2131 q 874 2149 833 2149 z "},"Ơ":{"ha":1717,"x_min":178,"x_max":1539,"o":"m 861 -26 q 582 37 708 -26 q 366 218 456 100 q 227 501 276 336 q 178 871 178 667 q 200 1126 178 1007 q 265 1344 222 1244 q 366 1522 307 1443 q 501 1654 425 1600 q 669 1738 578 1708 q 861 1767 760 1767 q 1023 1745 947 1767 q 1164 1682 1099 1724 q 1285 1710 1239 1685 q 1349 1777 1332 1736 q 1356 1869 1367 1818 q 1306 1974 1346 1919 q 1305 1992 1300 1982 q 1319 2010 1310 2003 q 1340 2017 1329 2017 q 1357 2008 1351 2018 q 1415 1886 1403 1947 q 1409 1774 1426 1825 q 1345 1689 1392 1724 q 1225 1646 1299 1654 q 1455 1338 1371 1538 q 1539 871 1539 1138 q 1517 617 1539 736 q 1453 397 1494 497 q 1351 219 1411 297 q 1216 85 1292 140 q 1051 2 1140 31 q 861 -26 963 -26 m 861 26 q 1036 53 954 26 q 1188 131 1118 79 q 1310 257 1257 183 q 1403 424 1364 331 q 1462 631 1442 518 q 1482 871 1482 743 q 1438 1218 1482 1064 q 1310 1485 1393 1372 q 1114 1656 1228 1597 q 861 1715 1000 1715 q 684 1689 767 1715 q 532 1610 601 1663 q 408 1485 463 1558 q 315 1317 353 1411 q 256 1110 276 1222 q 235 871 235 999 q 280 524 235 679 q 408 256 325 368 q 606 85 490 144 q 861 26 721 26 z "},"Ớ":{"ha":1717,"x_min":178,"x_max":1539,"o":"m 861 -26 q 582 37 708 -26 q 366 218 456 100 q 227 501 276 336 q 178 871 178 667 q 200 1126 178 1007 q 265 1344 222 1244 q 366 1522 307 1443 q 501 1654 425 1600 q 669 1738 578 1708 q 861 1767 760 1767 q 1023 1745 947 1767 q 1164 1682 1099 1724 q 1285 1710 1239 1685 q 1349 1777 1332 1736 q 1356 1869 1367 1818 q 1306 1974 1346 1919 q 1305 1992 1300 1982 q 1319 2010 1310 2003 q 1340 2017 1329 2017 q 1357 2008 1351 2018 q 1415 1886 1403 1947 q 1409 1774 1426 1825 q 1345 1689 1392 1724 q 1225 1646 1299 1654 q 1455 1338 1371 1538 q 1539 871 1539 1138 q 1517 617 1539 736 q 1453 397 1494 497 q 1351 219 1411 297 q 1216 85 1292 140 q 1051 2 1140 31 q 861 -26 963 -26 m 861 26 q 1036 53 954 26 q 1188 131 1118 79 q 1310 257 1257 183 q 1403 424 1364 331 q 1462 631 1442 518 q 1482 871 1482 743 q 1438 1218 1482 1064 q 1310 1485 1393 1372 q 1114 1656 1228 1597 q 861 1715 1000 1715 q 684 1689 767 1715 q 532 1610 601 1663 q 408 1485 463 1558 q 315 1317 353 1411 q 256 1110 276 1222 q 235 871 235 999 q 280 524 235 679 q 408 256 325 368 q 606 85 490 144 q 861 26 721 26 m 769 1849 q 753 1858 761 1849 q 744 1875 744 1868 l 744 1882 q 749 1889 744 1885 l 1000 2099 q 1009 2106 1006 2103 q 1018 2110 1013 2110 q 1033 2105 1026 2110 q 1044 2093 1039 2100 q 1049 2079 1049 2086 q 1048 2071 1049 2074 q 1043 2064 1047 2068 l 785 1858 q 777 1851 781 1854 q 769 1849 774 1849 z "},"Ợ":{"ha":1717,"x_min":178,"x_max":1539,"o":"m 861 -26 q 582 37 708 -26 q 366 218 456 100 q 227 501 276 336 q 178 871 178 667 q 200 1126 178 1007 q 265 1344 222 1244 q 366 1522 307 1443 q 501 1654 425 1600 q 669 1738 578 1708 q 861 1767 760 1767 q 1023 1745 947 1767 q 1164 1682 1099 1724 q 1285 1710 1239 1685 q 1349 1777 1332 1736 q 1356 1869 1367 1818 q 1306 1974 1346 1919 q 1305 1992 1300 1982 q 1319 2010 1310 2003 q 1340 2017 1329 2017 q 1357 2008 1351 2018 q 1415 1886 1403 1947 q 1409 1774 1426 1825 q 1345 1689 1392 1724 q 1225 1646 1299 1654 q 1455 1338 1371 1538 q 1539 871 1539 1138 q 1517 617 1539 736 q 1453 397 1494 497 q 1351 219 1411 297 q 1216 85 1292 140 q 1051 2 1140 31 q 861 -26 963 -26 m 861 26 q 1036 53 954 26 q 1188 131 1118 79 q 1310 257 1257 183 q 1403 424 1364 331 q 1462 631 1442 518 q 1482 871 1482 743 q 1438 1218 1482 1064 q 1310 1485 1393 1372 q 1114 1656 1228 1597 q 861 1715 1000 1715 q 684 1689 767 1715 q 532 1610 601 1663 q 408 1485 463 1558 q 315 1317 353 1411 q 256 1110 276 1222 q 235 871 235 999 q 280 524 235 679 q 408 256 325 368 q 606 85 490 144 q 861 26 721 26 m 860 -294 q 821 -281 833 -294 q 808 -236 808 -267 q 822 -191 808 -206 q 860 -176 835 -176 q 899 -191 886 -176 q 913 -236 913 -206 q 899 -281 913 -267 q 860 -294 886 -294 z "},"Ờ":{"ha":1717,"x_min":178,"x_max":1539,"o":"m 861 -26 q 582 37 708 -26 q 366 218 456 100 q 227 501 276 336 q 178 871 178 667 q 200 1126 178 1007 q 265 1344 222 1244 q 366 1522 307 1443 q 501 1654 425 1600 q 669 1738 578 1708 q 861 1767 760 1767 q 1023 1745 947 1767 q 1164 1682 1099 1724 q 1285 1710 1239 1685 q 1349 1777 1332 1736 q 1356 1869 1367 1818 q 1306 1974 1346 1919 q 1305 1992 1300 1982 q 1319 2010 1310 2003 q 1340 2017 1329 2017 q 1357 2008 1351 2018 q 1415 1886 1403 1947 q 1409 1774 1426 1825 q 1345 1689 1392 1724 q 1225 1646 1299 1654 q 1455 1338 1371 1538 q 1539 871 1539 1138 q 1517 617 1539 736 q 1453 397 1494 497 q 1351 219 1411 297 q 1216 85 1292 140 q 1051 2 1140 31 q 861 -26 963 -26 m 861 26 q 1036 53 954 26 q 1188 131 1118 79 q 1310 257 1257 183 q 1403 424 1364 331 q 1462 631 1442 518 q 1482 871 1482 743 q 1438 1218 1482 1064 q 1310 1485 1393 1372 q 1114 1656 1228 1597 q 861 1715 1000 1715 q 684 1689 767 1715 q 532 1610 601 1663 q 408 1485 463 1558 q 315 1317 353 1411 q 256 1110 276 1222 q 235 871 235 999 q 280 524 235 679 q 408 256 325 368 q 606 85 490 144 q 861 26 721 26 m 940 1849 q 933 1851 936 1849 q 924 1858 931 1854 l 667 2064 q 663 2071 663 2068 l 663 2078 q 666 2092 663 2085 q 676 2105 669 2100 q 690 2110 683 2110 q 699 2106 696 2110 q 710 2099 703 2103 l 960 1889 q 966 1881 965 1885 q 967 1875 967 1878 q 956 1858 967 1868 q 940 1849 946 1849 z "},"Ở":{"ha":1717,"x_min":178,"x_max":1539,"o":"m 861 -26 q 582 37 708 -26 q 366 218 456 100 q 227 501 276 336 q 178 871 178 667 q 200 1126 178 1007 q 265 1344 222 1244 q 366 1522 307 1443 q 501 1654 425 1600 q 669 1738 578 1708 q 861 1767 760 1767 q 1023 1745 947 1767 q 1164 1682 1099 1724 q 1285 1710 1239 1685 q 1349 1777 1332 1736 q 1356 1869 1367 1818 q 1306 1974 1346 1919 q 1305 1992 1300 1982 q 1319 2010 1310 2003 q 1340 2017 1329 2017 q 1357 2008 1351 2018 q 1415 1886 1403 1947 q 1409 1774 1426 1825 q 1345 1689 1392 1724 q 1225 1646 1299 1654 q 1455 1338 1371 1538 q 1539 871 1539 1138 q 1517 617 1539 736 q 1453 397 1494 497 q 1351 219 1411 297 q 1216 85 1292 140 q 1051 2 1140 31 q 861 -26 963 -26 m 861 26 q 1036 53 954 26 q 1188 131 1118 79 q 1310 257 1257 183 q 1403 424 1364 331 q 1462 631 1442 518 q 1482 871 1482 743 q 1438 1218 1482 1064 q 1310 1485 1393 1372 q 1114 1656 1228 1597 q 861 1715 1000 1715 q 684 1689 767 1715 q 532 1610 601 1663 q 408 1485 463 1558 q 315 1317 353 1411 q 256 1110 276 1222 q 235 871 235 999 q 280 524 235 679 q 408 256 325 368 q 606 85 490 144 q 861 26 721 26 m 874 2149 q 971 2119 936 2149 q 1006 2047 1006 2090 q 987 1994 1006 2018 q 926 1946 968 1971 q 888 1911 896 1925 q 893 1872 879 1897 l 896 1864 q 896 1848 900 1856 q 883 1836 892 1840 q 865 1833 874 1832 q 853 1843 856 1833 l 843 1864 q 838 1928 828 1900 q 882 1975 849 1956 q 934 2011 918 1994 q 950 2049 950 2028 q 927 2086 950 2072 q 868 2100 904 2100 q 816 2092 840 2100 q 768 2069 792 2085 q 747 2065 756 2063 q 739 2078 742 2068 q 744 2111 728 2096 q 801 2140 769 2131 q 874 2149 833 2149 z "},"Ỡ":{"ha":1717,"x_min":178,"x_max":1539,"o":"m 861 -26 q 582 37 708 -26 q 366 218 456 100 q 227 501 276 336 q 178 871 178 667 q 200 1126 178 1007 q 265 1344 222 1244 q 366 1522 307 1443 q 501 1654 425 1600 q 669 1738 578 1708 q 861 1767 760 1767 q 1023 1745 947 1767 q 1164 1682 1099 1724 q 1285 1710 1239 1685 q 1349 1777 1332 1736 q 1356 1869 1367 1818 q 1306 1974 1346 1919 q 1305 1992 1300 1982 q 1319 2010 1310 2003 q 1340 2017 1329 2017 q 1357 2008 1351 2018 q 1415 1886 1403 1947 q 1409 1774 1426 1825 q 1345 1689 1392 1724 q 1225 1646 1299 1654 q 1455 1338 1371 1538 q 1539 871 1539 1138 q 1517 617 1539 736 q 1453 397 1494 497 q 1351 219 1411 297 q 1216 85 1292 140 q 1051 2 1140 31 q 861 -26 963 -26 m 861 26 q 1036 53 954 26 q 1188 131 1118 79 q 1310 257 1257 183 q 1403 424 1364 331 q 1462 631 1442 518 q 1482 871 1482 743 q 1438 1218 1482 1064 q 1310 1485 1393 1372 q 1114 1656 1228 1597 q 861 1715 1000 1715 q 684 1689 767 1715 q 532 1610 601 1663 q 408 1485 463 1558 q 315 1317 353 1411 q 256 1110 276 1222 q 235 871 235 999 q 280 524 235 679 q 408 256 325 368 q 606 85 490 144 q 861 26 721 26 m 626 1894 q 603 1919 603 1894 q 639 2028 606 1988 q 722 2069 672 2069 q 802 2051 767 2069 q 869 2008 838 2032 q 932 1966 901 1985 q 996 1947 963 1947 q 1047 1973 1028 1947 q 1067 2049 1065 1999 q 1093 2071 1069 2071 q 1113 2066 1108 2071 q 1115 2047 1117 2061 q 1081 1938 1114 1978 q 993 1899 1047 1899 q 916 1917 951 1899 q 849 1960 881 1936 q 788 2002 818 1983 q 722 2021 757 2021 q 672 1995 690 2021 q 651 1915 654 1969 q 645 1899 650 1904 q 626 1894 640 1894 z "},"Ŕ":{"ha":1288,"x_min":286,"x_max":1189,"o":"m 313 -19 q 292 -14 297 -19 q 286 6 286 -8 l 286 1715 q 293 1731 286 1726 q 314 1736 300 1736 l 619 1736 q 908 1695 793 1736 q 1083 1569 1024 1654 q 1142 1353 1142 1485 q 1108 1164 1142 1244 q 1016 1027 1075 1083 q 882 933 957 971 q 723 872 807 894 q 556 837 639 849 q 397 819 472 825 q 639 543 511 682 q 903 272 767 404 q 1179 22 1040 139 q 1187 7 1189 14 q 1175 -11 1185 0 q 1157 -19 1165 -21 q 1140 -11 1149 -18 q 862 240 1000 104 q 592 523 724 376 q 339 814 460 669 l 339 6 q 335 -14 339 -8 q 313 -19 331 -19 m 339 861 q 474 872 403 864 q 618 894 546 879 q 758 934 690 910 q 887 995 826 958 q 991 1082 947 1032 q 1060 1199 1035 1132 q 1086 1353 1086 1267 q 1035 1542 1086 1468 q 878 1651 983 1615 q 614 1688 772 1688 l 339 1688 l 339 861 m 556 1849 q 539 1858 547 1849 q 531 1875 531 1868 l 531 1882 q 535 1889 531 1885 l 786 2099 q 795 2106 792 2103 q 804 2110 799 2110 q 819 2105 813 2110 q 830 2093 825 2100 q 835 2079 835 2086 q 834 2071 835 2074 q 829 2064 833 2068 l 571 1858 q 563 1851 567 1854 q 556 1849 560 1849 z "},"Ř":{"ha":1288,"x_min":286,"x_max":1189,"o":"m 313 -19 q 292 -14 297 -19 q 286 6 286 -8 l 286 1715 q 293 1731 286 1726 q 314 1736 300 1736 l 619 1736 q 908 1695 793 1736 q 1083 1569 1024 1654 q 1142 1353 1142 1485 q 1108 1164 1142 1244 q 1016 1027 1075 1083 q 882 933 957 971 q 723 872 807 894 q 556 837 639 849 q 397 819 472 825 q 639 543 511 682 q 903 272 767 404 q 1179 22 1040 139 q 1187 7 1189 14 q 1175 -11 1185 0 q 1157 -19 1165 -21 q 1140 -11 1149 -18 q 862 240 1000 104 q 592 523 724 376 q 339 814 460 669 l 339 6 q 335 -14 339 -8 q 313 -19 331 -19 m 339 861 q 474 872 403 864 q 618 894 546 879 q 758 934 690 910 q 887 995 826 958 q 991 1082 947 1032 q 1060 1199 1035 1132 q 1086 1353 1086 1267 q 1035 1542 1086 1468 q 878 1651 983 1615 q 614 1688 772 1688 l 339 1688 l 339 861 m 883 2111 q 899 2103 892 2111 q 906 2085 906 2096 q 904 2077 906 2081 q 899 2069 903 2074 l 668 1861 q 656 1851 661 1854 q 646 1849 651 1849 q 635 1851 640 1849 q 624 1861 631 1854 l 393 2071 q 389 2079 390 2075 q 388 2086 388 2083 q 394 2104 388 2097 q 410 2111 400 2111 q 419 2108 415 2111 q 428 2103 422 2106 l 646 1913 l 865 2103 l 874 2108 q 883 2111 878 2111 z "},"Ŗ":{"ha":1288,"x_min":286,"x_max":1189,"o":"m 313 -19 q 292 -14 297 -19 q 286 6 286 -8 l 286 1715 q 293 1731 286 1726 q 314 1736 300 1736 l 619 1736 q 908 1695 793 1736 q 1083 1569 1024 1654 q 1142 1353 1142 1485 q 1108 1164 1142 1244 q 1016 1027 1075 1083 q 882 933 957 971 q 723 872 807 894 q 556 837 639 849 q 397 819 472 825 q 639 543 511 682 q 903 272 767 404 q 1179 22 1040 139 q 1187 7 1189 14 q 1175 -11 1185 0 q 1157 -19 1165 -21 q 1140 -11 1149 -18 q 862 240 1000 104 q 592 523 724 376 q 339 814 460 669 l 339 6 q 335 -14 339 -8 q 313 -19 331 -19 m 339 861 q 474 872 403 864 q 618 894 546 879 q 758 934 690 910 q 887 995 826 958 q 991 1082 947 1032 q 1060 1199 1035 1132 q 1086 1353 1086 1267 q 1035 1542 1086 1468 q 878 1651 983 1615 q 614 1688 772 1688 l 339 1688 l 339 861 m 643 -407 q 628 -394 629 -401 q 636 -369 628 -386 q 666 -308 654 -339 q 683 -238 678 -276 q 689 -149 689 -200 q 694 -128 689 -137 q 715 -119 700 -119 q 738 -128 731 -119 q 744 -149 744 -137 q 737 -231 744 -187 q 714 -317 729 -275 q 678 -392 699 -358 q 664 -407 672 -401 q 643 -407 656 -412 z "},"Ś":{"ha":1276,"x_min":151,"x_max":1121,"o":"m 629 -26 q 493 -15 558 -26 q 368 22 428 -3 q 257 83 308 46 q 163 172 206 121 q 151 194 151 185 q 161 211 151 203 q 179 219 171 219 q 201 204 188 219 q 319 105 254 144 q 461 46 383 65 q 629 26 539 26 q 801 57 722 26 q 940 142 881 88 q 1033 274 1000 197 q 1065 447 1065 351 q 1031 604 1065 539 q 938 716 996 669 q 808 799 879 763 q 661 869 736 836 q 533 928 596 897 q 415 996 469 958 q 319 1083 361 1033 q 254 1197 278 1133 q 231 1346 231 1261 q 265 1522 231 1444 q 360 1655 300 1600 q 497 1738 419 1710 q 658 1767 574 1767 q 838 1739 758 1767 q 981 1668 918 1711 q 1093 1575 1043 1625 q 1105 1558 1104 1565 q 1096 1540 1106 1550 q 1076 1533 1085 1529 q 1053 1546 1068 1536 q 934 1635 994 1597 q 808 1694 874 1674 q 658 1715 742 1715 q 508 1688 576 1715 q 390 1611 439 1661 q 313 1494 340 1561 q 286 1346 286 1428 q 322 1180 286 1249 q 418 1063 358 1111 q 551 978 478 1014 q 699 911 625 942 q 852 838 776 876 q 989 746 928 799 q 1085 621 1050 693 q 1121 447 1121 549 q 1085 259 1121 346 q 983 108 1049 172 q 827 9 917 44 q 629 -26 738 -26 m 583 1849 q 567 1858 575 1849 q 558 1875 558 1868 l 558 1882 q 563 1889 558 1885 l 814 2099 q 823 2106 819 2103 q 832 2110 826 2110 q 847 2105 840 2110 q 858 2093 853 2100 q 863 2079 863 2086 q 862 2071 863 2074 q 857 2064 861 2068 l 599 1858 q 591 1851 594 1854 q 583 1849 588 1849 z "},"Š":{"ha":1276,"x_min":151,"x_max":1121,"o":"m 629 -26 q 493 -15 558 -26 q 368 22 428 -3 q 257 83 308 46 q 163 172 206 121 q 151 194 151 185 q 161 211 151 203 q 179 219 171 219 q 201 204 188 219 q 319 105 254 144 q 461 46 383 65 q 629 26 539 26 q 801 57 722 26 q 940 142 881 88 q 1033 274 1000 197 q 1065 447 1065 351 q 1031 604 1065 539 q 938 716 996 669 q 808 799 879 763 q 661 869 736 836 q 533 928 596 897 q 415 996 469 958 q 319 1083 361 1033 q 254 1197 278 1133 q 231 1346 231 1261 q 265 1522 231 1444 q 360 1655 300 1600 q 497 1738 419 1710 q 658 1767 574 1767 q 838 1739 758 1767 q 981 1668 918 1711 q 1093 1575 1043 1625 q 1105 1558 1104 1565 q 1096 1540 1106 1550 q 1076 1533 1085 1529 q 1053 1546 1068 1536 q 934 1635 994 1597 q 808 1694 874 1674 q 658 1715 742 1715 q 508 1688 576 1715 q 390 1611 439 1661 q 313 1494 340 1561 q 286 1346 286 1428 q 322 1180 286 1249 q 418 1063 358 1111 q 551 978 478 1014 q 699 911 625 942 q 852 838 776 876 q 989 746 928 799 q 1085 621 1050 693 q 1121 447 1121 549 q 1085 259 1121 346 q 983 108 1049 172 q 827 9 917 44 q 629 -26 738 -26 m 911 2111 q 926 2103 919 2111 q 933 2085 933 2096 q 932 2077 933 2081 q 926 2069 931 2074 l 696 1861 q 684 1851 689 1854 q 674 1849 679 1849 q 663 1851 668 1849 q 651 1861 658 1854 l 421 2071 q 417 2079 418 2075 q 415 2086 415 2083 q 422 2104 415 2097 q 438 2111 428 2111 q 447 2108 443 2111 q 456 2103 450 2106 l 674 1913 l 893 2103 l 901 2108 q 911 2111 906 2111 z "},"Ş":{"ha":1276,"x_min":151,"x_max":1121,"o":"m 615 -378 q 558 -371 592 -378 q 493 -346 525 -364 q 482 -331 483 -339 q 486 -312 481 -322 q 499 -302 492 -304 q 515 -304 506 -300 q 564 -321 539 -314 q 617 -328 589 -328 q 689 -306 661 -328 q 717 -244 717 -285 q 684 -185 717 -203 q 592 -175 651 -168 q 576 -174 582 -176 q 565 -167 569 -172 q 561 -149 560 -157 q 568 -128 563 -142 l 610 -26 q 493 -14 550 -25 q 368 22 428 -3 q 257 83 308 46 q 163 172 206 121 q 151 194 151 185 q 161 211 151 203 q 179 219 171 219 q 201 204 188 219 q 319 105 254 144 q 461 46 383 65 q 629 26 539 26 q 801 57 722 26 q 940 142 881 88 q 1033 274 1000 197 q 1065 447 1065 351 q 1031 604 1065 539 q 938 716 996 669 q 808 799 879 763 q 661 869 736 836 q 533 928 596 897 q 415 996 469 958 q 319 1083 361 1033 q 254 1197 278 1133 q 231 1346 231 1261 q 265 1522 231 1444 q 360 1655 300 1600 q 497 1738 419 1710 q 658 1767 574 1767 q 838 1739 758 1767 q 981 1668 918 1711 q 1093 1575 1043 1625 q 1105 1558 1104 1565 q 1096 1540 1106 1550 q 1076 1533 1085 1529 q 1053 1546 1068 1536 q 934 1635 994 1597 q 808 1694 874 1674 q 658 1715 742 1715 q 508 1688 576 1715 q 390 1611 439 1661 q 313 1494 340 1561 q 286 1346 286 1428 q 322 1180 286 1249 q 418 1063 358 1111 q 551 978 478 1014 q 699 911 625 942 q 852 838 776 876 q 989 746 928 799 q 1085 621 1050 693 q 1121 447 1121 549 q 1085 259 1121 346 q 983 108 1049 172 q 828 10 917 44 q 656 -26 749 -22 l 613 -131 q 681 -131 649 -125 q 747 -167 721 -139 q 774 -244 774 -194 q 753 -315 774 -285 q 697 -361 732 -344 q 615 -378 661 -378 z "},"Ŝ":{"ha":1276,"x_min":151,"x_max":1121,"o":"m 629 -26 q 493 -15 558 -26 q 368 22 428 -3 q 257 83 308 46 q 163 172 206 121 q 151 194 151 185 q 161 211 151 203 q 179 219 171 219 q 201 204 188 219 q 319 105 254 144 q 461 46 383 65 q 629 26 539 26 q 801 57 722 26 q 940 142 881 88 q 1033 274 1000 197 q 1065 447 1065 351 q 1031 604 1065 539 q 938 716 996 669 q 808 799 879 763 q 661 869 736 836 q 533 928 596 897 q 415 996 469 958 q 319 1083 361 1033 q 254 1197 278 1133 q 231 1346 231 1261 q 265 1522 231 1444 q 360 1655 300 1600 q 497 1738 419 1710 q 658 1767 574 1767 q 838 1739 758 1767 q 981 1668 918 1711 q 1093 1575 1043 1625 q 1105 1558 1104 1565 q 1096 1540 1106 1550 q 1076 1533 1085 1529 q 1053 1546 1068 1536 q 934 1635 994 1597 q 808 1694 874 1674 q 658 1715 742 1715 q 508 1688 576 1715 q 390 1611 439 1661 q 313 1494 340 1561 q 286 1346 286 1428 q 322 1180 286 1249 q 418 1063 358 1111 q 551 978 478 1014 q 699 911 625 942 q 852 838 776 876 q 989 746 928 799 q 1085 621 1050 693 q 1121 447 1121 549 q 1085 259 1121 346 q 983 108 1049 172 q 827 9 917 44 q 629 -26 738 -26 m 438 1843 q 422 1851 428 1843 q 415 1868 415 1858 q 417 1876 415 1872 q 421 1885 418 1881 l 651 2093 q 663 2102 658 2100 q 674 2104 668 2104 q 684 2102 679 2104 q 696 2093 689 2100 l 926 1882 q 932 1875 931 1879 q 933 1867 933 1871 q 926 1850 933 1857 q 910 1843 919 1843 q 901 1845 906 1843 q 893 1851 897 1847 l 674 2040 l 456 1851 q 447 1845 450 1847 q 438 1843 443 1843 z "},"Ș":{"ha":1276,"x_min":151,"x_max":1121,"o":"m 629 -26 q 493 -15 558 -26 q 368 22 428 -3 q 257 83 308 46 q 163 172 206 121 q 151 194 151 185 q 161 211 151 203 q 179 219 171 219 q 201 204 188 219 q 319 105 254 144 q 461 46 383 65 q 629 26 539 26 q 801 57 722 26 q 940 142 881 88 q 1033 274 1000 197 q 1065 447 1065 351 q 1031 604 1065 539 q 938 716 996 669 q 808 799 879 763 q 661 869 736 836 q 533 928 596 897 q 415 996 469 958 q 319 1083 361 1033 q 254 1197 278 1133 q 231 1346 231 1261 q 265 1522 231 1444 q 360 1655 300 1600 q 497 1738 419 1710 q 658 1767 574 1767 q 838 1739 758 1767 q 981 1668 918 1711 q 1093 1575 1043 1625 q 1105 1558 1104 1565 q 1096 1540 1106 1550 q 1076 1533 1085 1529 q 1053 1546 1068 1536 q 934 1635 994 1597 q 808 1694 874 1674 q 658 1715 742 1715 q 508 1688 576 1715 q 390 1611 439 1661 q 313 1494 340 1561 q 286 1346 286 1428 q 322 1180 286 1249 q 418 1063 358 1111 q 551 978 478 1014 q 699 911 625 942 q 852 838 776 876 q 989 746 928 799 q 1085 621 1050 693 q 1121 447 1121 549 q 1085 259 1121 346 q 983 108 1049 172 q 827 9 917 44 q 629 -26 738 -26 m 569 -407 q 555 -394 556 -401 q 563 -369 554 -386 q 592 -308 581 -339 q 610 -238 604 -276 q 615 -149 615 -200 q 621 -128 615 -137 q 642 -119 626 -119 q 664 -128 657 -119 q 671 -149 671 -137 q 663 -231 671 -187 q 640 -317 656 -275 q 604 -392 625 -358 q 590 -407 599 -401 q 569 -407 582 -412 z "},"Ŧ":{"ha":1282,"x_min":56,"x_max":1226,"o":"m 640 -19 q 614 1 614 -19 l 614 843 l 318 843 q 302 849 307 843 q 297 865 297 854 q 302 885 297 879 q 318 892 307 892 l 614 892 l 614 1688 l 71 1688 q 60 1693 65 1688 q 56 1711 56 1699 q 60 1731 56 1725 q 71 1736 65 1736 l 1210 1736 q 1222 1731 1217 1736 q 1226 1713 1226 1726 q 1222 1694 1226 1700 q 1210 1688 1217 1688 l 667 1688 l 667 892 l 963 892 q 979 885 975 892 q 983 865 983 879 q 979 849 983 854 q 963 843 975 843 l 667 843 l 667 1 q 661 -14 667 -8 q 640 -19 656 -19 z "},"Ť":{"ha":1282,"x_min":56,"x_max":1226,"o":"m 640 -19 q 614 1 614 -19 l 614 1688 l 71 1688 q 60 1693 65 1688 q 56 1711 56 1699 q 60 1731 56 1725 q 71 1736 65 1736 l 1210 1736 q 1222 1731 1217 1736 q 1226 1713 1226 1726 q 1222 1694 1226 1700 q 1210 1688 1217 1688 l 667 1688 l 667 1 q 661 -14 667 -8 q 640 -19 656 -19 m 878 2111 q 893 2103 886 2111 q 900 2085 900 2096 q 899 2077 900 2081 q 893 2069 897 2074 l 663 1861 q 651 1851 656 1854 q 640 1849 646 1849 q 630 1851 635 1849 q 618 1861 625 1854 l 388 2071 q 383 2079 385 2075 q 382 2086 382 2083 q 388 2104 382 2097 q 404 2111 394 2111 q 413 2108 410 2111 q 422 2103 417 2106 l 640 1913 l 860 2103 l 868 2108 q 878 2111 872 2111 z "},"Ţ":{"ha":1282,"x_min":56,"x_max":1226,"o":"m 615 -378 q 558 -371 592 -378 q 493 -346 525 -364 q 482 -331 483 -339 q 486 -312 481 -322 q 499 -302 492 -304 q 515 -304 506 -300 q 564 -321 539 -314 q 617 -328 589 -328 q 689 -306 661 -328 q 717 -244 717 -285 q 684 -185 717 -203 q 592 -175 651 -168 q 576 -174 582 -176 q 565 -167 569 -172 q 561 -149 560 -157 q 568 -128 563 -142 l 617 -10 q 614 1 614 -6 l 614 1688 l 71 1688 q 60 1693 65 1688 q 56 1711 56 1699 q 60 1731 56 1725 q 71 1736 65 1736 l 1210 1736 q 1222 1731 1217 1736 q 1226 1713 1226 1726 q 1222 1694 1226 1700 q 1210 1688 1217 1688 l 667 1688 l 667 1 q 667 0 667 0 l 667 0 l 667 0 q 661 -14 667 -8 q 661 -14 661 -14 l 613 -131 q 681 -131 649 -125 q 747 -167 721 -139 q 774 -244 774 -194 q 753 -315 774 -285 q 697 -361 732 -344 q 615 -378 661 -378 z "},"Ț":{"ha":1282,"x_min":56,"x_max":1226,"o":"m 640 -19 q 614 1 614 -19 l 614 1688 l 71 1688 q 60 1693 65 1688 q 56 1711 56 1699 q 60 1731 56 1725 q 71 1736 65 1736 l 1210 1736 q 1222 1731 1217 1736 q 1226 1713 1226 1726 q 1222 1694 1226 1700 q 1210 1688 1217 1688 l 667 1688 l 667 1 q 661 -14 667 -8 q 640 -19 656 -19 m 569 -407 q 555 -394 556 -401 q 563 -369 554 -386 q 592 -308 581 -339 q 610 -238 604 -276 q 615 -149 615 -200 q 621 -128 615 -137 q 642 -119 626 -119 q 664 -128 657 -119 q 671 -149 671 -137 q 663 -231 671 -187 q 640 -317 656 -275 q 604 -392 625 -358 q 590 -407 599 -401 q 569 -407 582 -412 z "},"Ú":{"ha":1601,"x_min":260,"x_max":1342,"o":"m 803 -26 q 567 8 668 -26 q 397 110 465 42 q 294 280 328 178 q 260 518 260 382 l 260 1746 q 265 1762 260 1757 q 285 1767 271 1767 q 306 1762 300 1767 q 311 1746 311 1757 l 311 514 q 366 242 311 350 q 531 80 421 133 q 803 26 640 26 q 1072 80 964 26 q 1235 242 1181 133 q 1289 514 1289 350 l 1289 1746 q 1295 1762 1289 1757 q 1315 1767 1301 1767 q 1342 1746 1342 1767 l 1342 518 q 1281 215 1342 336 q 1101 34 1221 94 q 803 -26 981 -26 m 710 1849 q 693 1858 701 1849 q 685 1875 685 1868 l 685 1882 q 689 1889 685 1885 l 940 2099 q 949 2106 946 2103 q 958 2110 953 2110 q 973 2105 967 2110 q 984 2093 979 2100 q 989 2079 989 2086 q 988 2071 989 2074 q 983 2064 988 2068 l 725 1858 q 717 1851 721 1854 q 710 1849 714 1849 z "},"Ŭ":{"ha":1601,"x_min":260,"x_max":1342,"o":"m 803 -26 q 567 8 668 -26 q 397 110 465 42 q 294 280 328 178 q 260 518 260 382 l 260 1746 q 265 1762 260 1757 q 285 1767 271 1767 q 306 1762 300 1767 q 311 1746 311 1757 l 311 514 q 366 242 311 350 q 531 80 421 133 q 803 26 640 26 q 1072 80 964 26 q 1235 242 1181 133 q 1289 514 1289 350 l 1289 1746 q 1295 1762 1289 1757 q 1315 1767 1301 1767 q 1342 1746 1342 1767 l 1342 518 q 1281 215 1342 336 q 1101 34 1221 94 q 803 -26 981 -26 m 800 1849 q 632 1909 697 1849 q 561 2089 567 1969 q 567 2106 561 2100 q 585 2111 572 2111 q 604 2106 599 2111 q 611 2089 610 2100 q 665 1950 615 1994 q 800 1906 715 1906 q 935 1950 883 1906 q 990 2089 986 1994 q 997 2106 992 2100 q 1015 2111 1003 2111 q 1035 2106 1029 2111 q 1040 2089 1040 2100 q 1006 1956 1036 2008 q 922 1876 975 1903 q 800 1849 869 1849 z "},"Ǔ":{"ha":1601,"x_min":260,"x_max":1342,"o":"m 803 -26 q 567 8 668 -26 q 397 110 465 42 q 294 280 328 178 q 260 518 260 382 l 260 1746 q 265 1762 260 1757 q 285 1767 271 1767 q 306 1762 300 1767 q 311 1746 311 1757 l 311 514 q 366 242 311 350 q 531 80 421 133 q 803 26 640 26 q 1072 80 964 26 q 1235 242 1181 133 q 1289 514 1289 350 l 1289 1746 q 1295 1762 1289 1757 q 1315 1767 1301 1767 q 1342 1746 1342 1767 l 1342 518 q 1281 215 1342 336 q 1101 34 1221 94 q 803 -26 981 -26 m 1038 2111 q 1053 2103 1046 2111 q 1060 2085 1060 2096 q 1058 2077 1060 2081 q 1053 2069 1057 2074 l 822 1861 q 810 1851 815 1854 q 800 1849 806 1849 q 790 1851 794 1849 q 778 1861 785 1854 l 547 2071 q 543 2079 544 2075 q 542 2086 542 2083 q 548 2104 542 2097 q 564 2111 554 2111 q 573 2108 569 2111 q 582 2103 576 2106 l 800 1913 l 1019 2103 l 1028 2108 q 1038 2111 1032 2111 z "},"Û":{"ha":1601,"x_min":260,"x_max":1342,"o":"m 803 -26 q 567 8 668 -26 q 397 110 465 42 q 294 280 328 178 q 260 518 260 382 l 260 1746 q 265 1762 260 1757 q 285 1767 271 1767 q 306 1762 300 1767 q 311 1746 311 1757 l 311 514 q 366 242 311 350 q 531 80 421 133 q 803 26 640 26 q 1072 80 964 26 q 1235 242 1181 133 q 1289 514 1289 350 l 1289 1746 q 1295 1762 1289 1757 q 1315 1767 1301 1767 q 1342 1746 1342 1767 l 1342 518 q 1281 215 1342 336 q 1101 34 1221 94 q 803 -26 981 -26 m 564 1843 q 548 1851 554 1843 q 542 1868 542 1858 q 543 1876 542 1872 q 547 1885 544 1881 l 778 2093 q 790 2102 785 2100 q 800 2104 794 2104 q 810 2102 806 2104 q 822 2093 815 2100 l 1053 1882 q 1058 1875 1057 1879 q 1060 1867 1060 1871 q 1053 1850 1060 1857 q 1036 1843 1046 1843 q 1028 1845 1032 1843 q 1019 1851 1024 1847 l 800 2040 l 582 1851 q 573 1845 576 1847 q 564 1843 569 1843 z "},"Ü":{"ha":1601,"x_min":260,"x_max":1342,"o":"m 803 -26 q 567 8 668 -26 q 397 110 465 42 q 294 280 328 178 q 260 518 260 382 l 260 1746 q 265 1762 260 1757 q 285 1767 271 1767 q 306 1762 300 1767 q 311 1746 311 1757 l 311 514 q 366 242 311 350 q 531 80 421 133 q 803 26 640 26 q 1072 80 964 26 q 1235 242 1181 133 q 1289 514 1289 350 l 1289 1746 q 1295 1762 1289 1757 q 1315 1767 1301 1767 q 1342 1746 1342 1767 l 1342 518 q 1281 215 1342 336 q 1101 34 1221 94 q 803 -26 981 -26 m 606 1908 q 566 1923 579 1908 q 553 1967 553 1938 q 566 2012 553 1997 q 606 2026 579 2026 q 645 2012 632 2026 q 658 1967 658 1997 q 644 1922 657 1936 q 606 1908 631 1908 m 996 1908 q 957 1923 969 1908 q 944 1967 944 1938 q 958 2012 944 1997 q 996 2026 971 2026 q 1035 2012 1021 2026 q 1049 1967 1049 1997 q 1035 1923 1049 1938 q 996 1908 1022 1908 z "},"Ù":{"ha":1601,"x_min":260,"x_max":1342,"o":"m 803 -26 q 567 8 668 -26 q 397 110 465 42 q 294 280 328 178 q 260 518 260 382 l 260 1746 q 265 1762 260 1757 q 285 1767 271 1767 q 306 1762 300 1767 q 311 1746 311 1757 l 311 514 q 366 242 311 350 q 531 80 421 133 q 803 26 640 26 q 1072 80 964 26 q 1235 242 1181 133 q 1289 514 1289 350 l 1289 1746 q 1295 1762 1289 1757 q 1315 1767 1301 1767 q 1342 1746 1342 1767 l 1342 518 q 1281 215 1342 336 q 1101 34 1221 94 q 803 -26 981 -26 m 881 1849 q 874 1851 876 1849 q 864 1858 871 1854 l 607 2064 q 603 2071 603 2068 l 603 2078 q 606 2092 603 2085 q 617 2105 610 2100 q 631 2110 624 2110 q 640 2106 636 2110 q 650 2099 643 2103 l 900 1889 q 906 1881 906 1885 q 907 1875 907 1878 q 897 1858 907 1868 q 881 1849 886 1849 z "},"Ű":{"ha":1601,"x_min":260,"x_max":1342,"o":"m 803 -26 q 567 8 668 -26 q 397 110 465 42 q 294 280 328 178 q 260 518 260 382 l 260 1746 q 265 1762 260 1757 q 285 1767 271 1767 q 306 1762 300 1767 q 311 1746 311 1757 l 311 514 q 366 242 311 350 q 531 80 421 133 q 803 26 640 26 q 1072 80 964 26 q 1235 242 1181 133 q 1289 514 1289 350 l 1289 1746 q 1295 1762 1289 1757 q 1315 1767 1301 1767 q 1342 1746 1342 1767 l 1342 518 q 1281 215 1342 336 q 1101 34 1221 94 q 803 -26 981 -26 m 651 1849 q 635 1858 644 1849 q 626 1875 626 1868 l 626 1882 q 631 1889 626 1886 l 882 2099 q 890 2106 888 2103 q 900 2110 893 2110 q 913 2106 906 2110 q 924 2093 919 2101 q 929 2078 929 2085 q 928 2071 929 2074 q 925 2065 928 2068 l 667 1858 q 658 1851 661 1854 q 651 1849 656 1849 m 910 1849 q 893 1858 903 1849 q 883 1875 883 1868 q 885 1881 883 1878 q 889 1889 886 1885 l 1140 2099 q 1149 2106 1146 2103 q 1157 2110 1153 2110 q 1172 2106 1165 2110 q 1183 2093 1179 2101 q 1186 2078 1186 2085 l 1186 2071 q 1182 2065 1186 2068 l 925 1858 q 917 1851 919 1854 q 910 1849 914 1849 z "},"Ū":{"ha":1601,"x_min":260,"x_max":1342,"o":"m 803 -26 q 567 8 668 -26 q 397 110 465 42 q 294 280 328 178 q 260 518 260 382 l 260 1746 q 265 1762 260 1757 q 285 1767 271 1767 q 306 1762 300 1767 q 311 1746 311 1757 l 311 514 q 366 242 311 350 q 531 80 421 133 q 803 26 640 26 q 1072 80 964 26 q 1235 242 1181 133 q 1289 514 1289 350 l 1289 1746 q 1295 1762 1289 1757 q 1315 1767 1301 1767 q 1342 1746 1342 1767 l 1342 518 q 1281 215 1342 336 q 1101 34 1221 94 q 803 -26 981 -26 m 588 1951 q 572 1957 576 1951 q 567 1974 567 1963 q 572 1994 567 1988 q 588 2000 576 2000 l 1013 2000 q 1028 1994 1024 2000 q 1033 1974 1033 1988 q 1028 1957 1033 1963 q 1013 1951 1024 1951 l 588 1951 z "},"Ų":{"ha":1601,"x_min":260,"x_max":1342,"o":"m 803 -26 q 567 8 668 -26 q 397 110 465 42 q 294 280 328 178 q 260 518 260 382 l 260 1746 q 265 1762 260 1757 q 285 1767 271 1767 q 306 1762 300 1767 q 311 1746 311 1757 l 311 514 q 366 242 311 350 q 531 80 421 133 q 803 26 640 26 q 1072 80 964 26 q 1235 242 1181 133 q 1289 514 1289 350 l 1289 1746 q 1295 1762 1289 1757 q 1315 1767 1301 1767 q 1342 1746 1342 1767 l 1342 518 q 1281 215 1342 336 q 1101 35 1221 94 q 1056 14 1079 24 q 1006 -26 1031 -4 q 944 -90 972 -57 q 901 -158 917 -122 q 885 -228 885 -193 q 903 -297 885 -275 q 953 -318 921 -318 q 1013 -303 978 -318 q 1075 -256 1047 -289 q 1091 -245 1083 -246 q 1104 -250 1099 -244 q 1115 -265 1114 -257 q 1108 -283 1115 -274 q 1064 -326 1090 -308 q 1008 -354 1038 -344 q 950 -364 979 -364 q 866 -332 900 -364 q 832 -232 832 -300 q 848 -160 832 -196 q 892 -89 864 -124 q 956 -24 919 -54 q 972 -10 964 -17 q 803 -26 896 -26 z "},"Ů":{"ha":1601,"x_min":260,"x_max":1342,"o":"m 803 -26 q 567 8 668 -26 q 397 110 465 42 q 294 280 328 178 q 260 518 260 382 l 260 1746 q 265 1762 260 1757 q 285 1767 271 1767 q 306 1762 300 1767 q 311 1746 311 1757 l 311 514 q 366 242 311 350 q 531 80 421 133 q 803 26 640 26 q 1072 80 964 26 q 1235 242 1181 133 q 1289 514 1289 350 l 1289 1746 q 1295 1762 1289 1757 q 1315 1767 1301 1767 q 1342 1746 1342 1767 l 1342 518 q 1281 215 1342 336 q 1101 34 1221 94 q 803 -26 981 -26 m 800 1829 q 709 1849 750 1829 q 646 1906 668 1869 q 624 1988 624 1942 q 646 2070 624 2035 q 709 2126 668 2106 q 800 2146 750 2146 q 892 2126 853 2146 q 954 2070 932 2106 q 976 1988 976 2035 q 954 1906 976 1942 q 892 1849 932 1869 q 800 1829 853 1829 m 800 1878 q 888 1908 854 1878 q 921 1988 921 1939 q 888 2067 921 2038 q 800 2097 854 2097 q 713 2067 746 2097 q 679 1988 679 2038 q 713 1908 679 1939 q 800 1878 746 1878 z "},"Ũ":{"ha":1601,"x_min":260,"x_max":1342,"o":"m 803 -26 q 567 8 668 -26 q 397 110 465 42 q 294 280 328 178 q 260 518 260 382 l 260 1746 q 265 1762 260 1757 q 285 1767 271 1767 q 306 1762 300 1767 q 311 1746 311 1757 l 311 514 q 366 242 311 350 q 531 80 421 133 q 803 26 640 26 q 1072 80 964 26 q 1235 242 1181 133 q 1289 514 1289 350 l 1289 1746 q 1295 1762 1289 1757 q 1315 1767 1301 1767 q 1342 1746 1342 1767 l 1342 518 q 1281 215 1342 336 q 1101 34 1221 94 q 803 -26 981 -26 m 567 1894 q 543 1919 543 1894 q 579 2028 546 1988 q 663 2069 613 2069 q 742 2051 707 2069 q 810 2008 778 2032 q 872 1966 842 1985 q 936 1947 903 1947 q 987 1973 968 1947 q 1007 2049 1006 1999 q 1033 2071 1010 2071 q 1053 2066 1049 2071 q 1056 2047 1057 2061 q 1021 1938 1054 1978 q 933 1899 988 1899 q 856 1917 892 1899 q 790 1960 821 1936 q 728 2002 758 1983 q 663 2021 697 2021 q 613 1995 631 2021 q 592 1915 594 1969 q 585 1899 590 1904 q 567 1894 581 1894 z "},"Ǘ":{"ha":1601,"x_min":260,"x_max":1342,"o":"m 803 -26 q 567 8 668 -26 q 397 110 465 42 q 294 280 328 178 q 260 518 260 382 l 260 1746 q 265 1762 260 1757 q 285 1767 271 1767 q 306 1762 300 1767 q 311 1746 311 1757 l 311 514 q 366 242 311 350 q 531 80 421 133 q 803 26 640 26 q 1072 80 964 26 q 1235 242 1181 133 q 1289 514 1289 350 l 1289 1746 q 1295 1762 1289 1757 q 1315 1767 1301 1767 q 1342 1746 1342 1767 l 1342 518 q 1281 215 1342 336 q 1101 34 1221 94 q 803 -26 981 -26 m 606 1908 q 566 1923 579 1908 q 553 1967 553 1938 q 566 2012 553 1997 q 606 2026 579 2026 q 645 2012 632 2026 q 658 1967 658 1997 q 644 1922 657 1936 q 606 1908 631 1908 m 996 1908 q 957 1923 969 1908 q 944 1967 944 1938 q 958 2012 944 1997 q 996 2026 971 2026 q 1035 2012 1021 2026 q 1049 1967 1049 1997 q 1035 1923 1049 1938 q 996 1908 1022 1908 m 710 2099 q 693 2108 701 2099 q 685 2125 685 2118 l 685 2132 q 689 2139 685 2135 l 940 2349 q 949 2356 946 2353 q 958 2360 953 2360 q 973 2355 967 2360 q 984 2343 979 2350 q 989 2329 989 2336 q 988 2321 989 2324 q 983 2314 988 2318 l 725 2108 q 717 2101 721 2104 q 710 2099 714 2099 z "},"Ǚ":{"ha":1601,"x_min":260,"x_max":1342,"o":"m 803 -26 q 567 8 668 -26 q 397 110 465 42 q 294 280 328 178 q 260 518 260 382 l 260 1746 q 265 1762 260 1757 q 285 1767 271 1767 q 306 1762 300 1767 q 311 1746 311 1757 l 311 514 q 366 242 311 350 q 531 80 421 133 q 803 26 640 26 q 1072 80 964 26 q 1235 242 1181 133 q 1289 514 1289 350 l 1289 1746 q 1295 1762 1289 1757 q 1315 1767 1301 1767 q 1342 1746 1342 1767 l 1342 518 q 1281 215 1342 336 q 1101 34 1221 94 q 803 -26 981 -26 m 606 1908 q 566 1923 579 1908 q 553 1967 553 1938 q 566 2012 553 1997 q 606 2026 579 2026 q 645 2012 632 2026 q 658 1967 658 1997 q 644 1922 657 1936 q 606 1908 631 1908 m 996 1908 q 957 1923 969 1908 q 944 1967 944 1938 q 958 2012 944 1997 q 996 2026 971 2026 q 1035 2012 1021 2026 q 1049 1967 1049 1997 q 1035 1923 1049 1938 q 996 1908 1022 1908 m 1038 2361 q 1053 2353 1046 2361 q 1060 2335 1060 2346 q 1058 2327 1060 2331 q 1053 2319 1057 2324 l 822 2111 q 810 2101 815 2104 q 800 2099 806 2099 q 790 2101 794 2099 q 778 2111 785 2104 l 547 2321 q 543 2329 544 2325 q 542 2336 542 2333 q 548 2354 542 2347 q 564 2361 554 2361 q 573 2358 569 2361 q 582 2353 576 2356 l 800 2163 l 1019 2353 l 1028 2358 q 1038 2361 1032 2361 z "},"Ǜ":{"ha":1601,"x_min":260,"x_max":1342,"o":"m 803 -26 q 567 8 668 -26 q 397 110 465 42 q 294 280 328 178 q 260 518 260 382 l 260 1746 q 265 1762 260 1757 q 285 1767 271 1767 q 306 1762 300 1767 q 311 1746 311 1757 l 311 514 q 366 242 311 350 q 531 80 421 133 q 803 26 640 26 q 1072 80 964 26 q 1235 242 1181 133 q 1289 514 1289 350 l 1289 1746 q 1295 1762 1289 1757 q 1315 1767 1301 1767 q 1342 1746 1342 1767 l 1342 518 q 1281 215 1342 336 q 1101 34 1221 94 q 803 -26 981 -26 m 606 1908 q 566 1923 579 1908 q 553 1967 553 1938 q 566 2012 553 1997 q 606 2026 579 2026 q 645 2012 632 2026 q 658 1967 658 1997 q 644 1922 657 1936 q 606 1908 631 1908 m 996 1908 q 957 1923 969 1908 q 944 1967 944 1938 q 958 2012 944 1997 q 996 2026 971 2026 q 1035 2012 1021 2026 q 1049 1967 1049 1997 q 1035 1923 1049 1938 q 996 1908 1022 1908 m 881 2099 q 874 2101 876 2099 q 864 2108 871 2104 l 607 2314 q 603 2321 603 2318 l 603 2328 q 606 2342 603 2335 q 617 2355 610 2350 q 631 2360 624 2360 q 640 2356 636 2360 q 650 2349 643 2353 l 900 2139 q 906 2131 906 2135 q 907 2125 907 2128 q 897 2108 907 2118 q 881 2099 886 2099 z "},"Ǖ":{"ha":1601,"x_min":260,"x_max":1342,"o":"m 803 -26 q 567 8 668 -26 q 397 110 465 42 q 294 280 328 178 q 260 518 260 382 l 260 1746 q 265 1762 260 1757 q 285 1767 271 1767 q 306 1762 300 1767 q 311 1746 311 1757 l 311 514 q 366 242 311 350 q 531 80 421 133 q 803 26 640 26 q 1072 80 964 26 q 1235 242 1181 133 q 1289 514 1289 350 l 1289 1746 q 1295 1762 1289 1757 q 1315 1767 1301 1767 q 1342 1746 1342 1767 l 1342 518 q 1281 215 1342 336 q 1101 34 1221 94 q 803 -26 981 -26 m 606 1908 q 566 1923 579 1908 q 553 1967 553 1938 q 566 2012 553 1997 q 606 2026 579 2026 q 645 2012 632 2026 q 658 1967 658 1997 q 644 1922 657 1936 q 606 1908 631 1908 m 996 1908 q 957 1923 969 1908 q 944 1967 944 1938 q 958 2012 944 1997 q 996 2026 971 2026 q 1035 2012 1021 2026 q 1049 1967 1049 1997 q 1035 1923 1049 1938 q 996 1908 1022 1908 m 588 2201 q 572 2207 576 2201 q 567 2224 567 2213 q 572 2244 567 2238 q 588 2250 576 2250 l 1013 2250 q 1028 2244 1024 2250 q 1033 2224 1033 2238 q 1028 2207 1033 2213 q 1013 2201 1024 2201 l 588 2201 z "},"Ụ":{"ha":1601,"x_min":260,"x_max":1342,"o":"m 803 -26 q 567 8 668 -26 q 397 110 465 42 q 294 280 328 178 q 260 518 260 382 l 260 1746 q 265 1762 260 1757 q 285 1767 271 1767 q 306 1762 300 1767 q 311 1746 311 1757 l 311 514 q 366 242 311 350 q 531 80 421 133 q 803 26 640 26 q 1072 80 964 26 q 1235 242 1181 133 q 1289 514 1289 350 l 1289 1746 q 1295 1762 1289 1757 q 1315 1767 1301 1767 q 1342 1746 1342 1767 l 1342 518 q 1281 215 1342 336 q 1101 34 1221 94 q 803 -26 981 -26 m 800 -294 q 761 -281 774 -294 q 749 -236 749 -267 q 762 -191 749 -206 q 800 -176 775 -176 q 840 -191 826 -176 q 853 -236 853 -206 q 840 -281 853 -267 q 800 -294 826 -294 z "},"Ủ":{"ha":1601,"x_min":260,"x_max":1342,"o":"m 803 -26 q 567 8 668 -26 q 397 110 465 42 q 294 280 328 178 q 260 518 260 382 l 260 1746 q 265 1762 260 1757 q 285 1767 271 1767 q 306 1762 300 1767 q 311 1746 311 1757 l 311 514 q 366 242 311 350 q 531 80 421 133 q 803 26 640 26 q 1072 80 964 26 q 1235 242 1181 133 q 1289 514 1289 350 l 1289 1746 q 1295 1762 1289 1757 q 1315 1767 1301 1767 q 1342 1746 1342 1767 l 1342 518 q 1281 215 1342 336 q 1101 34 1221 94 q 803 -26 981 -26 m 814 2149 q 911 2119 876 2149 q 946 2047 946 2090 q 927 1994 946 2018 q 867 1946 908 1971 q 828 1911 836 1925 q 833 1872 819 1897 l 836 1864 q 836 1848 840 1856 q 823 1836 832 1840 q 805 1833 814 1832 q 793 1843 796 1833 l 783 1864 q 778 1928 768 1900 q 822 1975 789 1956 q 874 2011 858 1994 q 890 2049 890 2028 q 867 2086 890 2072 q 808 2100 844 2100 q 756 2092 781 2100 q 708 2069 732 2085 q 688 2065 696 2063 q 679 2078 682 2068 q 685 2111 668 2096 q 742 2140 710 2131 q 814 2149 774 2149 z "},"Ư":{"ha":1601,"x_min":260,"x_max":1544,"o":"m 1497 2004 q 1540 1901 1535 1953 q 1519 1806 1544 1849 q 1443 1740 1494 1764 q 1342 1721 1400 1719 l 1342 518 q 1281 215 1342 336 q 1101 34 1221 94 q 803 -26 981 -26 q 567 8 668 -26 q 397 110 465 42 q 294 280 328 178 q 260 518 260 382 l 260 1746 q 265 1762 260 1757 q 285 1767 271 1767 q 306 1762 300 1767 q 311 1746 311 1757 l 311 514 q 366 242 311 350 q 531 80 421 133 q 803 26 640 26 q 1072 80 964 26 q 1235 242 1181 133 q 1289 514 1289 350 l 1289 1746 q 1295 1762 1289 1757 q 1315 1767 1301 1767 q 1333 1763 1328 1767 q 1443 1794 1407 1768 q 1483 1872 1483 1825 q 1446 1969 1482 1918 q 1444 1989 1440 1979 q 1458 2006 1449 1999 q 1480 2013 1468 2013 q 1497 2004 1492 2014 z "},"Ứ":{"ha":1601,"x_min":260,"x_max":1544,"o":"m 1497 2004 q 1540 1901 1535 1953 q 1519 1806 1544 1849 q 1443 1740 1494 1764 q 1342 1721 1400 1719 l 1342 518 q 1281 215 1342 336 q 1101 34 1221 94 q 803 -26 981 -26 q 567 8 668 -26 q 397 110 465 42 q 294 280 328 178 q 260 518 260 382 l 260 1746 q 265 1762 260 1757 q 285 1767 271 1767 q 306 1762 300 1767 q 311 1746 311 1757 l 311 514 q 366 242 311 350 q 531 80 421 133 q 803 26 640 26 q 1072 80 964 26 q 1235 242 1181 133 q 1289 514 1289 350 l 1289 1746 q 1295 1762 1289 1757 q 1315 1767 1301 1767 q 1333 1763 1328 1767 q 1443 1794 1407 1768 q 1483 1872 1483 1825 q 1446 1969 1482 1918 q 1444 1989 1440 1979 q 1458 2006 1449 1999 q 1480 2013 1468 2013 q 1497 2004 1492 2014 m 710 1849 q 693 1858 701 1849 q 685 1875 685 1868 l 685 1882 q 689 1889 685 1885 l 940 2099 q 949 2106 946 2103 q 958 2110 953 2110 q 973 2105 967 2110 q 984 2093 979 2100 q 989 2079 989 2086 q 988 2071 989 2074 q 983 2064 988 2068 l 725 1858 q 717 1851 721 1854 q 710 1849 714 1849 z "},"Ự":{"ha":1601,"x_min":260,"x_max":1544,"o":"m 1497 2004 q 1540 1901 1535 1953 q 1519 1806 1544 1849 q 1443 1740 1494 1764 q 1342 1721 1400 1719 l 1342 518 q 1281 215 1342 336 q 1101 34 1221 94 q 803 -26 981 -26 q 567 8 668 -26 q 397 110 465 42 q 294 280 328 178 q 260 518 260 382 l 260 1746 q 265 1762 260 1757 q 285 1767 271 1767 q 306 1762 300 1767 q 311 1746 311 1757 l 311 514 q 366 242 311 350 q 531 80 421 133 q 803 26 640 26 q 1072 80 964 26 q 1235 242 1181 133 q 1289 514 1289 350 l 1289 1746 q 1295 1762 1289 1757 q 1315 1767 1301 1767 q 1333 1763 1328 1767 q 1443 1794 1407 1768 q 1483 1872 1483 1825 q 1446 1969 1482 1918 q 1444 1989 1440 1979 q 1458 2006 1449 1999 q 1480 2013 1468 2013 q 1497 2004 1492 2014 m 800 -294 q 761 -281 774 -294 q 749 -236 749 -267 q 762 -191 749 -206 q 800 -176 775 -176 q 840 -191 826 -176 q 853 -236 853 -206 q 840 -281 853 -267 q 800 -294 826 -294 z "},"Ừ":{"ha":1601,"x_min":260,"x_max":1544,"o":"m 1497 2004 q 1540 1901 1535 1953 q 1519 1806 1544 1849 q 1443 1740 1494 1764 q 1342 1721 1400 1719 l 1342 518 q 1281 215 1342 336 q 1101 34 1221 94 q 803 -26 981 -26 q 567 8 668 -26 q 397 110 465 42 q 294 280 328 178 q 260 518 260 382 l 260 1746 q 265 1762 260 1757 q 285 1767 271 1767 q 306 1762 300 1767 q 311 1746 311 1757 l 311 514 q 366 242 311 350 q 531 80 421 133 q 803 26 640 26 q 1072 80 964 26 q 1235 242 1181 133 q 1289 514 1289 350 l 1289 1746 q 1295 1762 1289 1757 q 1315 1767 1301 1767 q 1333 1763 1328 1767 q 1443 1794 1407 1768 q 1483 1872 1483 1825 q 1446 1969 1482 1918 q 1444 1989 1440 1979 q 1458 2006 1449 1999 q 1480 2013 1468 2013 q 1497 2004 1492 2014 m 881 1849 q 874 1851 876 1849 q 864 1858 871 1854 l 607 2064 q 603 2071 603 2068 l 603 2078 q 606 2092 603 2085 q 617 2105 610 2100 q 631 2110 624 2110 q 640 2106 636 2110 q 650 2099 643 2103 l 900 1889 q 906 1881 906 1885 q 907 1875 907 1878 q 897 1858 907 1868 q 881 1849 886 1849 z "},"Ử":{"ha":1601,"x_min":260,"x_max":1544,"o":"m 1497 2004 q 1540 1901 1535 1953 q 1519 1806 1544 1849 q 1443 1740 1494 1764 q 1342 1721 1400 1719 l 1342 518 q 1281 215 1342 336 q 1101 34 1221 94 q 803 -26 981 -26 q 567 8 668 -26 q 397 110 465 42 q 294 280 328 178 q 260 518 260 382 l 260 1746 q 265 1762 260 1757 q 285 1767 271 1767 q 306 1762 300 1767 q 311 1746 311 1757 l 311 514 q 366 242 311 350 q 531 80 421 133 q 803 26 640 26 q 1072 80 964 26 q 1235 242 1181 133 q 1289 514 1289 350 l 1289 1746 q 1295 1762 1289 1757 q 1315 1767 1301 1767 q 1333 1763 1328 1767 q 1443 1794 1407 1768 q 1483 1872 1483 1825 q 1446 1969 1482 1918 q 1444 1989 1440 1979 q 1458 2006 1449 1999 q 1480 2013 1468 2013 q 1497 2004 1492 2014 m 814 2149 q 911 2119 876 2149 q 946 2047 946 2090 q 927 1994 946 2018 q 867 1946 908 1971 q 828 1911 836 1925 q 833 1872 819 1897 l 836 1864 q 836 1848 840 1856 q 823 1836 832 1840 q 805 1833 814 1832 q 793 1843 796 1833 l 783 1864 q 778 1928 768 1900 q 822 1975 789 1956 q 874 2011 858 1994 q 890 2049 890 2028 q 867 2086 890 2072 q 808 2100 844 2100 q 756 2092 781 2100 q 708 2069 732 2085 q 688 2065 696 2063 q 679 2078 682 2068 q 685 2111 668 2096 q 742 2140 710 2131 q 814 2149 774 2149 z "},"Ữ":{"ha":1601,"x_min":260,"x_max":1544,"o":"m 1497 2004 q 1540 1901 1535 1953 q 1519 1806 1544 1849 q 1443 1740 1494 1764 q 1342 1721 1400 1719 l 1342 518 q 1281 215 1342 336 q 1101 34 1221 94 q 803 -26 981 -26 q 567 8 668 -26 q 397 110 465 42 q 294 280 328 178 q 260 518 260 382 l 260 1746 q 265 1762 260 1757 q 285 1767 271 1767 q 306 1762 300 1767 q 311 1746 311 1757 l 311 514 q 366 242 311 350 q 531 80 421 133 q 803 26 640 26 q 1072 80 964 26 q 1235 242 1181 133 q 1289 514 1289 350 l 1289 1746 q 1295 1762 1289 1757 q 1315 1767 1301 1767 q 1333 1763 1328 1767 q 1443 1794 1407 1768 q 1483 1872 1483 1825 q 1446 1969 1482 1918 q 1444 1989 1440 1979 q 1458 2006 1449 1999 q 1480 2013 1468 2013 q 1497 2004 1492 2014 m 567 1894 q 543 1919 543 1894 q 579 2028 546 1988 q 663 2069 613 2069 q 742 2051 707 2069 q 810 2008 778 2032 q 872 1966 842 1985 q 936 1947 903 1947 q 987 1973 968 1947 q 1007 2049 1006 1999 q 1033 2071 1010 2071 q 1053 2066 1049 2071 q 1056 2047 1057 2061 q 1021 1938 1054 1978 q 933 1899 988 1899 q 856 1917 892 1899 q 790 1960 821 1936 q 728 2002 758 1983 q 663 2021 697 2021 q 613 1995 631 2021 q 592 1915 594 1969 q 585 1899 590 1904 q 567 1894 581 1894 z "},"Ẃ":{"ha":2186,"x_min":65,"x_max":2121,"o":"m 551 -19 q 533 -15 539 -19 q 522 1 526 -10 l 68 1736 q 68 1754 65 1747 q 83 1765 71 1761 q 104 1766 97 1769 q 117 1744 111 1763 l 554 67 l 1064 1746 q 1073 1762 1068 1757 q 1092 1767 1078 1767 q 1115 1762 1110 1767 q 1124 1746 1119 1757 l 1626 67 l 2072 1746 q 2083 1765 2076 1761 q 2104 1765 2090 1769 q 2119 1754 2117 1761 q 2118 1736 2121 1747 l 1657 1 q 1649 -15 1656 -10 q 1626 -19 1642 -19 q 1607 -15 1613 -19 q 1596 1 1601 -10 l 1094 1683 l 583 1 q 574 -15 581 -10 q 551 -19 568 -19 m 1001 1849 q 985 1858 993 1849 q 976 1875 976 1868 l 976 1882 q 981 1889 976 1885 l 1232 2099 q 1241 2106 1238 2103 q 1250 2110 1244 2110 q 1265 2105 1258 2110 q 1276 2093 1271 2100 q 1281 2079 1281 2086 q 1280 2071 1281 2074 q 1275 2064 1279 2068 l 1017 1858 q 1009 1851 1013 1854 q 1001 1849 1006 1849 z "},"Ŵ":{"ha":2186,"x_min":65,"x_max":2121,"o":"m 551 -19 q 533 -15 539 -19 q 522 1 526 -10 l 68 1736 q 68 1754 65 1747 q 83 1765 71 1761 q 104 1766 97 1769 q 117 1744 111 1763 l 554 67 l 1064 1746 q 1073 1762 1068 1757 q 1092 1767 1078 1767 q 1115 1762 1110 1767 q 1124 1746 1119 1757 l 1626 67 l 2072 1746 q 2083 1765 2076 1761 q 2104 1765 2090 1769 q 2119 1754 2117 1761 q 2118 1736 2121 1747 l 1657 1 q 1649 -15 1656 -10 q 1626 -19 1642 -19 q 1607 -15 1613 -19 q 1596 1 1601 -10 l 1094 1683 l 583 1 q 574 -15 581 -10 q 551 -19 568 -19 m 856 1843 q 840 1851 846 1843 q 833 1868 833 1858 q 835 1876 833 1872 q 839 1885 836 1881 l 1069 2093 q 1081 2102 1076 2100 q 1092 2104 1086 2104 q 1102 2102 1097 2104 q 1114 2093 1107 2100 l 1344 1882 q 1350 1875 1349 1879 q 1351 1867 1351 1871 q 1344 1850 1351 1857 q 1328 1843 1338 1843 q 1319 1845 1324 1843 q 1311 1851 1315 1847 l 1092 2040 l 874 1851 q 865 1845 868 1847 q 856 1843 861 1843 z "},"Ẅ":{"ha":2186,"x_min":65,"x_max":2121,"o":"m 551 -19 q 533 -15 539 -19 q 522 1 526 -10 l 68 1736 q 68 1754 65 1747 q 83 1765 71 1761 q 104 1766 97 1769 q 117 1744 111 1763 l 554 67 l 1064 1746 q 1073 1762 1068 1757 q 1092 1767 1078 1767 q 1115 1762 1110 1767 q 1124 1746 1119 1757 l 1626 67 l 2072 1746 q 2083 1765 2076 1761 q 2104 1765 2090 1769 q 2119 1754 2117 1761 q 2118 1736 2121 1747 l 1657 1 q 1649 -15 1656 -10 q 1626 -19 1642 -19 q 1607 -15 1613 -19 q 1596 1 1601 -10 l 1094 1683 l 583 1 q 574 -15 581 -10 q 551 -19 568 -19 m 897 1908 q 858 1923 871 1908 q 844 1967 844 1938 q 858 2012 844 1997 q 897 2026 871 2026 q 937 2012 924 2026 q 950 1967 950 1997 q 935 1922 949 1936 q 897 1908 922 1908 m 1288 1908 q 1249 1923 1261 1908 q 1236 1967 1236 1938 q 1249 2012 1236 1997 q 1288 2026 1263 2026 q 1326 2012 1313 2026 q 1340 1967 1340 1997 q 1327 1923 1340 1938 q 1288 1908 1314 1908 z "},"Ẁ":{"ha":2186,"x_min":65,"x_max":2121,"o":"m 551 -19 q 533 -15 539 -19 q 522 1 526 -10 l 68 1736 q 68 1754 65 1747 q 83 1765 71 1761 q 104 1766 97 1769 q 117 1744 111 1763 l 554 67 l 1064 1746 q 1073 1762 1068 1757 q 1092 1767 1078 1767 q 1115 1762 1110 1767 q 1124 1746 1119 1757 l 1626 67 l 2072 1746 q 2083 1765 2076 1761 q 2104 1765 2090 1769 q 2119 1754 2117 1761 q 2118 1736 2121 1747 l 1657 1 q 1649 -15 1656 -10 q 1626 -19 1642 -19 q 1607 -15 1613 -19 q 1596 1 1601 -10 l 1094 1683 l 583 1 q 574 -15 581 -10 q 551 -19 568 -19 m 1172 1849 q 1165 1851 1168 1849 q 1156 1858 1163 1854 l 899 2064 q 894 2071 894 2068 l 894 2078 q 898 2092 894 2085 q 908 2105 901 2100 q 922 2110 915 2110 q 931 2106 928 2110 q 942 2099 935 2103 l 1192 1889 q 1198 1881 1197 1885 q 1199 1875 1199 1878 q 1188 1858 1199 1868 q 1172 1849 1178 1849 z "},"Ý":{"ha":1181,"x_min":17,"x_max":1164,"o":"m 576 -19 q 550 1 550 -19 l 550 760 l 22 1733 q 20 1753 17 1746 q 33 1764 24 1760 q 53 1766 47 1771 q 65 1750 60 1761 l 576 807 l 1108 1743 q 1126 1765 1118 1760 q 1144 1764 1133 1769 q 1162 1752 1160 1758 q 1157 1733 1164 1746 l 601 760 l 601 1 q 576 -19 601 -19 m 500 1849 q 483 1858 492 1849 q 475 1875 475 1868 l 475 1882 q 479 1889 475 1885 l 731 2099 q 740 2106 736 2103 q 749 2110 743 2110 q 763 2105 757 2110 q 774 2093 769 2100 q 779 2079 779 2086 q 778 2071 779 2074 q 774 2064 778 2068 l 515 1858 q 508 1851 511 1854 q 500 1849 504 1849 z "},"Ŷ":{"ha":1181,"x_min":17,"x_max":1164,"o":"m 576 -19 q 550 1 550 -19 l 550 760 l 22 1733 q 20 1753 17 1746 q 33 1764 24 1760 q 53 1766 47 1771 q 65 1750 60 1761 l 576 807 l 1108 1743 q 1126 1765 1118 1760 q 1144 1764 1133 1769 q 1162 1752 1160 1758 q 1157 1733 1164 1746 l 601 760 l 601 1 q 576 -19 601 -19 m 354 1843 q 338 1851 344 1843 q 332 1868 332 1858 q 333 1876 332 1872 q 338 1885 335 1881 l 568 2093 q 580 2102 575 2100 q 590 2104 585 2104 q 601 2102 596 2104 q 613 2093 606 2100 l 843 1882 q 849 1875 847 1879 q 850 1867 850 1871 q 843 1850 850 1857 q 826 1843 836 1843 q 818 1845 822 1843 q 810 1851 814 1847 l 590 2040 l 372 1851 q 363 1845 367 1847 q 354 1843 360 1843 z "},"Ÿ":{"ha":1181,"x_min":17,"x_max":1164,"o":"m 576 -19 q 550 1 550 -19 l 550 760 l 22 1733 q 20 1753 17 1746 q 33 1764 24 1760 q 53 1766 47 1771 q 65 1750 60 1761 l 576 807 l 1108 1743 q 1126 1765 1118 1760 q 1144 1764 1133 1769 q 1162 1752 1160 1758 q 1157 1733 1164 1746 l 601 760 l 601 1 q 576 -19 601 -19 m 396 1908 q 356 1923 369 1908 q 343 1967 343 1938 q 356 2012 343 1997 q 396 2026 369 2026 q 435 2012 422 2026 q 449 1967 449 1997 q 434 1922 447 1936 q 396 1908 421 1908 m 786 1908 q 747 1923 760 1908 q 735 1967 735 1938 q 748 2012 735 1997 q 786 2026 761 2026 q 825 2012 811 2026 q 839 1967 839 1997 q 826 1923 839 1938 q 786 1908 813 1908 z "},"Ỳ":{"ha":1181,"x_min":17,"x_max":1164,"o":"m 576 -19 q 550 1 550 -19 l 550 760 l 22 1733 q 20 1753 17 1746 q 33 1764 24 1760 q 53 1766 47 1771 q 65 1750 60 1761 l 576 807 l 1108 1743 q 1126 1765 1118 1760 q 1144 1764 1133 1769 q 1162 1752 1160 1758 q 1157 1733 1164 1746 l 601 760 l 601 1 q 576 -19 601 -19 m 671 1849 q 664 1851 667 1849 q 654 1858 661 1854 l 397 2064 q 393 2071 393 2068 l 393 2078 q 397 2092 393 2085 q 407 2105 400 2100 q 421 2110 414 2110 q 430 2106 426 2110 q 440 2099 433 2103 l 690 1889 q 697 1881 696 1885 q 697 1875 697 1878 q 687 1858 697 1868 q 671 1849 676 1849 z "},"Ỵ":{"ha":1181,"x_min":17,"x_max":1164,"o":"m 576 -19 q 550 1 550 -19 l 550 760 l 22 1733 q 20 1753 17 1746 q 33 1764 24 1760 q 53 1766 47 1771 q 65 1750 60 1761 l 576 807 l 1108 1743 q 1126 1765 1118 1760 q 1144 1764 1133 1769 q 1162 1752 1160 1758 q 1157 1733 1164 1746 l 601 760 l 601 1 q 576 -19 601 -19 m 576 -294 q 538 -281 550 -294 q 525 -236 525 -267 q 538 -191 525 -206 q 576 -176 551 -176 q 616 -191 603 -176 q 629 -236 629 -206 q 616 -281 629 -267 q 576 -294 603 -294 z "},"Ỷ":{"ha":1181,"x_min":17,"x_max":1164,"o":"m 576 -19 q 550 1 550 -19 l 550 760 l 22 1733 q 20 1753 17 1746 q 33 1764 24 1760 q 53 1766 47 1771 q 65 1750 60 1761 l 576 807 l 1108 1743 q 1126 1765 1118 1760 q 1144 1764 1133 1769 q 1162 1752 1160 1758 q 1157 1733 1164 1746 l 601 760 l 601 1 q 576 -19 601 -19 m 604 2149 q 701 2119 667 2149 q 736 2047 736 2090 q 717 1994 736 2018 q 657 1946 699 1971 q 618 1911 626 1925 q 624 1872 610 1897 l 626 1864 q 626 1848 631 1856 q 613 1836 622 1840 q 595 1833 604 1832 q 583 1843 586 1833 l 574 1864 q 569 1928 558 1900 q 613 1975 579 1956 q 665 2011 649 1994 q 681 2049 681 2028 q 658 2086 681 2072 q 599 2100 635 2100 q 547 2092 571 2100 q 499 2069 522 2085 q 478 2065 486 2063 q 469 2078 472 2068 q 475 2111 458 2096 q 532 2140 500 2131 q 604 2149 564 2149 z "},"Ỹ":{"ha":1181,"x_min":17,"x_max":1164,"o":"m 576 -19 q 550 1 550 -19 l 550 760 l 22 1733 q 20 1753 17 1746 q 33 1764 24 1760 q 53 1766 47 1771 q 65 1750 60 1761 l 576 807 l 1108 1743 q 1126 1765 1118 1760 q 1144 1764 1133 1769 q 1162 1752 1160 1758 q 1157 1733 1164 1746 l 601 760 l 601 1 q 576 -19 601 -19 m 357 1894 q 333 1919 333 1894 q 369 2028 336 1988 q 453 2069 403 2069 q 533 2051 497 2069 q 600 2008 568 2032 q 663 1966 632 1985 q 726 1947 693 1947 q 777 1973 758 1947 q 797 2049 796 1999 q 824 2071 800 2071 q 843 2066 839 2071 q 846 2047 847 2061 q 811 1938 844 1978 q 724 1899 778 1899 q 647 1917 682 1899 q 580 1960 611 1936 q 518 2002 549 1983 q 453 2021 488 2021 q 403 1995 421 2021 q 382 1915 385 1969 q 376 1899 381 1904 q 357 1894 371 1894 z "},"Ź":{"ha":1136,"x_min":49,"x_max":1086,"o":"m 67 0 q 53 4 58 0 q 49 15 49 8 q 51 28 49 21 l 986 1688 l 121 1688 q 110 1693 115 1688 q 106 1711 106 1699 q 110 1731 106 1725 q 121 1736 115 1736 l 1040 1736 q 1059 1728 1056 1736 q 1056 1708 1063 1719 l 121 49 l 1069 49 q 1081 44 1076 49 q 1086 26 1086 39 q 1081 6 1086 13 q 1069 0 1076 0 l 67 0 m 478 1849 q 461 1858 469 1849 q 453 1875 453 1868 l 453 1882 q 457 1889 453 1885 l 708 2099 q 717 2106 714 2103 q 726 2110 721 2110 q 741 2105 735 2110 q 752 2093 747 2100 q 757 2079 757 2086 q 756 2071 757 2074 q 751 2064 756 2068 l 493 1858 q 485 1851 489 1854 q 478 1849 482 1849 z "},"Ž":{"ha":1136,"x_min":49,"x_max":1086,"o":"m 67 0 q 53 4 58 0 q 49 15 49 8 q 51 28 49 21 l 986 1688 l 121 1688 q 110 1693 115 1688 q 106 1711 106 1699 q 110 1731 106 1725 q 121 1736 115 1736 l 1040 1736 q 1059 1728 1056 1736 q 1056 1708 1063 1719 l 121 49 l 1069 49 q 1081 44 1076 49 q 1086 26 1086 39 q 1081 6 1086 13 q 1069 0 1076 0 l 67 0 m 806 2111 q 821 2103 814 2111 q 828 2085 828 2096 q 826 2077 828 2081 q 821 2069 825 2074 l 590 1861 q 578 1851 583 1854 q 568 1849 574 1849 q 558 1851 563 1849 q 546 1861 553 1854 l 315 2071 q 311 2079 313 2075 q 310 2086 310 2083 q 316 2104 310 2097 q 332 2111 322 2111 q 341 2108 338 2111 q 350 2103 344 2106 l 568 1913 l 788 2103 l 796 2108 q 806 2111 800 2111 z "},"Ż":{"ha":1136,"x_min":49,"x_max":1086,"o":"m 67 0 q 53 4 58 0 q 49 15 49 8 q 51 28 49 21 l 986 1688 l 121 1688 q 110 1693 115 1688 q 106 1711 106 1699 q 110 1731 106 1725 q 121 1736 115 1736 l 1040 1736 q 1059 1728 1056 1736 q 1056 1708 1063 1719 l 121 49 l 1069 49 q 1081 44 1076 49 q 1086 26 1086 39 q 1081 6 1086 13 q 1069 0 1076 0 l 67 0 m 568 1908 q 529 1922 542 1908 q 517 1967 517 1936 q 530 2012 517 1997 q 568 2026 543 2026 q 608 2012 594 2026 q 621 1967 621 1997 q 608 1922 621 1936 q 568 1908 594 1908 z "},"á":{"ha":865,"x_min":104,"x_max":865,"o":"m 374 -24 q 236 18 297 -24 q 140 140 175 60 q 104 332 104 219 q 117 459 104 400 q 157 566 131 518 q 223 649 183 614 q 314 702 263 683 q 429 721 365 721 q 522 707 478 721 q 615 664 567 693 l 615 694 q 622 710 615 706 q 640 715 628 715 q 660 710 654 715 q 665 694 665 706 l 665 122 q 672 67 665 89 q 695 33 679 44 q 735 22 711 22 q 765 28 750 22 q 796 46 781 33 q 826 76 811 58 q 840 85 833 85 q 854 76 847 85 q 863 64 861 71 q 860 49 865 57 q 823 11 844 28 q 777 -15 801 -6 q 729 -24 753 -24 q 682 -15 703 -24 q 646 9 661 -7 q 623 49 631 25 q 615 106 615 74 l 615 139 q 541 37 583 72 q 455 -11 499 1 q 374 -24 411 -24 m 160 338 q 185 176 160 247 q 260 65 210 106 q 383 25 310 25 q 474 47 429 25 q 557 119 519 68 q 615 261 594 171 l 615 611 q 517 660 564 647 q 424 674 471 674 q 334 659 375 674 q 261 617 293 644 q 206 548 229 589 q 172 454 183 507 q 160 338 160 401 m 347 875 q 331 883 340 875 q 321 900 321 892 q 323 906 321 903 q 326 914 325 910 l 500 1151 q 508 1159 504 1157 q 518 1161 513 1161 q 533 1156 525 1161 q 548 1144 542 1151 q 554 1131 554 1138 q 553 1124 554 1126 q 549 1117 551 1121 l 363 883 q 347 875 357 875 z "},"ă":{"ha":865,"x_min":104,"x_max":865,"o":"m 374 -24 q 236 18 297 -24 q 140 140 175 60 q 104 332 104 219 q 117 459 104 400 q 157 566 131 518 q 223 649 183 614 q 314 702 263 683 q 429 721 365 721 q 522 707 478 721 q 615 664 567 693 l 615 694 q 622 710 615 706 q 640 715 628 715 q 660 710 654 715 q 665 694 665 706 l 665 122 q 672 67 665 89 q 695 33 679 44 q 735 22 711 22 q 765 28 750 22 q 796 46 781 33 q 826 76 811 58 q 840 85 833 85 q 854 76 847 85 q 863 64 861 71 q 860 49 865 57 q 823 11 844 28 q 777 -15 801 -6 q 729 -24 753 -24 q 682 -15 703 -24 q 646 9 661 -7 q 623 49 631 25 q 615 106 615 74 l 615 139 q 541 37 583 72 q 455 -11 499 1 q 374 -24 411 -24 m 160 338 q 185 176 160 247 q 260 65 210 106 q 383 25 310 25 q 474 47 429 25 q 557 119 519 68 q 615 261 594 171 l 615 611 q 517 660 564 647 q 424 674 471 674 q 334 659 375 674 q 261 617 293 644 q 206 548 229 589 q 172 454 183 507 q 160 338 160 401 m 410 875 q 254 944 313 875 q 196 1139 196 1013 q 201 1156 196 1150 q 221 1161 207 1161 q 239 1156 233 1161 q 244 1139 244 1150 q 288 984 244 1038 q 410 931 332 931 q 531 984 488 931 q 575 1139 575 1038 q 581 1156 575 1150 q 599 1161 586 1161 q 618 1156 613 1161 q 624 1139 624 1150 q 597 997 624 1056 q 523 906 571 938 q 410 875 475 875 z "},"ǎ":{"ha":865,"x_min":104,"x_max":865,"o":"m 374 -24 q 236 18 297 -24 q 140 140 175 60 q 104 332 104 219 q 117 459 104 400 q 157 566 131 518 q 223 649 183 614 q 314 702 263 683 q 429 721 365 721 q 522 707 478 721 q 615 664 567 693 l 615 694 q 622 710 615 706 q 640 715 628 715 q 660 710 654 715 q 665 694 665 706 l 665 122 q 672 67 665 89 q 695 33 679 44 q 735 22 711 22 q 765 28 750 22 q 796 46 781 33 q 826 76 811 58 q 840 85 833 85 q 854 76 847 85 q 863 64 861 71 q 860 49 865 57 q 823 11 844 28 q 777 -15 801 -6 q 729 -24 753 -24 q 682 -15 703 -24 q 646 9 661 -7 q 623 49 631 25 q 615 106 615 74 l 615 139 q 541 37 583 72 q 455 -11 499 1 q 374 -24 411 -24 m 160 338 q 185 176 160 247 q 260 65 210 106 q 383 25 310 25 q 474 47 429 25 q 557 119 519 68 q 615 261 594 171 l 615 611 q 517 660 564 647 q 424 674 471 674 q 334 659 375 674 q 261 617 293 644 q 206 548 229 589 q 172 454 183 507 q 160 338 160 401 m 613 1161 q 630 1155 622 1161 q 638 1138 638 1149 q 636 1129 638 1133 q 631 1122 635 1125 l 432 888 q 421 877 426 879 q 410 875 415 875 q 399 877 404 875 q 388 888 394 879 l 189 1122 q 184 1129 186 1125 q 182 1138 182 1133 q 190 1155 182 1149 q 207 1161 197 1161 q 217 1159 213 1161 q 224 1153 221 1157 l 410 949 l 596 1153 q 603 1159 600 1157 q 613 1161 607 1161 z "},"â":{"ha":865,"x_min":104,"x_max":865,"o":"m 374 -24 q 236 18 297 -24 q 140 140 175 60 q 104 332 104 219 q 117 459 104 400 q 157 566 131 518 q 223 649 183 614 q 314 702 263 683 q 429 721 365 721 q 522 707 478 721 q 615 664 567 693 l 615 694 q 622 710 615 706 q 640 715 628 715 q 660 710 654 715 q 665 694 665 706 l 665 122 q 672 67 665 89 q 695 33 679 44 q 735 22 711 22 q 765 28 750 22 q 796 46 781 33 q 826 76 811 58 q 840 85 833 85 q 854 76 847 85 q 863 64 861 71 q 860 49 865 57 q 823 11 844 28 q 777 -15 801 -6 q 729 -24 753 -24 q 682 -15 703 -24 q 646 9 661 -7 q 623 49 631 25 q 615 106 615 74 l 615 139 q 541 37 583 72 q 455 -11 499 1 q 374 -24 411 -24 m 160 338 q 185 176 160 247 q 260 65 210 106 q 383 25 310 25 q 474 47 429 25 q 557 119 519 68 q 615 261 594 171 l 615 611 q 517 660 564 647 q 424 674 471 674 q 334 659 375 674 q 261 617 293 644 q 206 548 229 589 q 172 454 183 507 q 160 338 160 401 m 207 875 q 190 883 197 875 q 182 900 182 890 q 184 907 182 903 q 189 915 186 911 l 388 1150 q 399 1159 394 1157 q 410 1161 404 1161 q 421 1159 415 1161 q 432 1150 426 1157 l 631 915 q 636 907 635 911 q 638 900 638 903 q 630 883 638 890 q 613 875 622 875 q 603 878 607 875 q 596 883 600 881 l 410 1089 l 224 883 q 217 878 221 881 q 207 875 213 875 z "},"ä":{"ha":865,"x_min":104,"x_max":865,"o":"m 374 -24 q 236 18 297 -24 q 140 140 175 60 q 104 332 104 219 q 117 459 104 400 q 157 566 131 518 q 223 649 183 614 q 314 702 263 683 q 429 721 365 721 q 522 707 478 721 q 615 664 567 693 l 615 694 q 622 710 615 706 q 640 715 628 715 q 660 710 654 715 q 665 694 665 706 l 665 122 q 672 67 665 89 q 695 33 679 44 q 735 22 711 22 q 765 28 750 22 q 796 46 781 33 q 826 76 811 58 q 840 85 833 85 q 854 76 847 85 q 863 64 861 71 q 860 49 865 57 q 823 11 844 28 q 777 -15 801 -6 q 729 -24 753 -24 q 682 -15 703 -24 q 646 9 661 -7 q 623 49 631 25 q 615 106 615 74 l 615 139 q 541 37 583 72 q 455 -11 499 1 q 374 -24 411 -24 m 160 338 q 185 176 160 247 q 260 65 210 106 q 383 25 310 25 q 474 47 429 25 q 557 119 519 68 q 615 261 594 171 l 615 611 q 517 660 564 647 q 424 674 471 674 q 334 659 375 674 q 261 617 293 644 q 206 548 229 589 q 172 454 183 507 q 160 338 160 401 m 242 958 q 203 974 215 958 q 190 1018 190 989 q 203 1062 190 1047 q 242 1076 217 1076 q 281 1062 268 1076 q 294 1018 294 1047 q 281 973 294 988 q 242 958 267 958 m 578 958 q 539 974 551 958 q 526 1018 526 989 q 540 1062 526 1047 q 578 1076 553 1076 q 617 1062 604 1076 q 631 1018 631 1047 q 617 973 631 988 q 578 958 604 958 z "},"ǽ":{"ha":1242,"x_min":104,"x_max":1175,"o":"m 104 297 q 119 428 104 365 q 165 544 135 490 q 238 637 194 597 q 339 699 282 676 q 464 721 396 721 q 567 711 521 721 q 657 685 613 701 q 711 663 683 675 q 797 703 756 688 q 922 721 850 721 q 1090 674 1028 721 q 1151 550 1151 628 q 1127 456 1151 497 q 1058 383 1103 414 q 953 332 1014 353 q 818 301 892 311 q 669 290 747 290 q 701 151 675 207 q 787 53 735 83 q 896 22 839 22 q 1000 40 954 22 q 1078 82 1046 57 q 1131 131 1111 107 q 1145 137 1138 138 q 1160 131 1153 136 q 1171 117 1167 125 q 1168 101 1175 110 q 1114 48 1153 78 q 1019 -3 1075 18 q 896 -24 964 -24 q 747 20 810 -24 q 651 142 685 64 q 619 288 624 207 q 610 263 614 275 q 524 97 569 160 q 427 5 479 33 q 314 -24 375 -24 q 163 59 221 -24 q 104 297 104 142 m 646 525 q 656 554 650 540 q 679 619 667 590 q 585 656 628 640 q 458 674 531 674 q 337 646 392 674 q 242 568 282 618 q 181 450 203 518 q 160 303 160 382 q 176 158 160 221 q 228 60 193 96 q 319 25 264 25 q 410 51 367 25 q 492 135 453 76 q 570 289 532 193 q 646 525 608 385 l 646 525 m 735 618 q 690 490 707 556 q 668 338 669 414 q 796 344 735 336 q 915 367 860 351 q 1010 409 969 383 q 1073 469 1050 435 q 1096 549 1096 504 q 1045 642 1096 610 q 917 674 994 674 q 815 657 865 674 q 735 618 772 643 m 624 875 q 607 883 617 875 q 597 900 597 892 q 599 906 597 903 q 603 914 601 910 l 776 1151 q 785 1159 781 1157 q 794 1161 789 1161 q 810 1156 801 1161 q 824 1144 818 1151 q 831 1131 831 1138 q 829 1124 831 1126 q 825 1117 828 1121 l 639 883 q 624 875 633 875 z "},"à":{"ha":865,"x_min":104,"x_max":865,"o":"m 374 -24 q 236 18 297 -24 q 140 140 175 60 q 104 332 104 219 q 117 459 104 400 q 157 566 131 518 q 223 649 183 614 q 314 702 263 683 q 429 721 365 721 q 522 707 478 721 q 615 664 567 693 l 615 694 q 622 710 615 706 q 640 715 628 715 q 660 710 654 715 q 665 694 665 706 l 665 122 q 672 67 665 89 q 695 33 679 44 q 735 22 711 22 q 765 28 750 22 q 796 46 781 33 q 826 76 811 58 q 840 85 833 85 q 854 76 847 85 q 863 64 861 71 q 860 49 865 57 q 823 11 844 28 q 777 -15 801 -6 q 729 -24 753 -24 q 682 -15 703 -24 q 646 9 661 -7 q 623 49 631 25 q 615 106 615 74 l 615 139 q 541 37 583 72 q 455 -11 499 1 q 374 -24 411 -24 m 160 338 q 185 176 160 247 q 260 65 210 106 q 383 25 310 25 q 474 47 429 25 q 557 119 519 68 q 615 261 594 171 l 615 611 q 517 660 564 647 q 424 674 471 674 q 334 659 375 674 q 261 617 293 644 q 206 548 229 589 q 172 454 183 507 q 160 338 160 401 m 471 875 q 463 876 467 875 q 456 883 458 878 l 269 1117 q 265 1124 267 1121 q 264 1131 264 1126 q 270 1144 264 1138 q 285 1156 276 1151 q 300 1161 293 1161 q 318 1151 310 1161 l 492 914 q 496 906 494 910 q 497 900 497 903 q 488 883 497 892 q 471 875 478 875 z "},"ā":{"ha":865,"x_min":104,"x_max":865,"o":"m 374 -24 q 236 18 297 -24 q 140 140 175 60 q 104 332 104 219 q 117 459 104 400 q 157 566 131 518 q 223 649 183 614 q 314 702 263 683 q 429 721 365 721 q 522 707 478 721 q 615 664 567 693 l 615 694 q 622 710 615 706 q 640 715 628 715 q 660 710 654 715 q 665 694 665 706 l 665 122 q 672 67 665 89 q 695 33 679 44 q 735 22 711 22 q 765 28 750 22 q 796 46 781 33 q 826 76 811 58 q 840 85 833 85 q 854 76 847 85 q 863 64 861 71 q 860 49 865 57 q 823 11 844 28 q 777 -15 801 -6 q 729 -24 753 -24 q 682 -15 703 -24 q 646 9 661 -7 q 623 49 631 25 q 615 106 615 74 l 615 139 q 541 37 583 72 q 455 -11 499 1 q 374 -24 411 -24 m 160 338 q 185 176 160 247 q 260 65 210 106 q 383 25 310 25 q 474 47 429 25 q 557 119 519 68 q 615 261 594 171 l 615 611 q 517 660 564 647 q 424 674 471 674 q 334 659 375 674 q 261 617 293 644 q 206 548 229 589 q 172 454 183 507 q 160 338 160 401 m 224 994 q 208 1000 213 994 q 203 1018 203 1006 q 208 1037 203 1031 q 224 1043 213 1043 l 596 1043 q 612 1037 607 1043 q 617 1018 617 1031 q 612 1000 617 1006 q 596 994 607 994 l 224 994 z "},"ą":{"ha":865,"x_min":104,"x_max":865,"o":"m 374 -24 q 236 18 297 -24 q 140 140 175 60 q 104 332 104 219 q 117 459 104 400 q 157 566 131 518 q 223 649 183 614 q 314 702 263 683 q 429 721 365 721 q 522 707 478 721 q 615 664 567 693 l 615 694 q 622 710 615 706 q 640 715 628 715 q 660 710 654 715 q 665 694 665 706 l 665 122 q 672 67 665 89 q 695 33 679 44 q 735 22 711 22 q 765 28 750 22 q 796 46 781 33 q 826 76 811 58 q 840 85 833 85 q 854 76 847 85 q 863 64 861 71 q 860 49 865 57 q 824 11 844 28 q 789 -10 807 -1 q 739 -50 764 -29 q 679 -108 706 -78 q 637 -169 653 -137 q 621 -232 621 -200 q 638 -292 621 -271 q 685 -312 654 -312 q 741 -297 707 -312 q 803 -249 775 -282 q 819 -238 811 -239 q 832 -243 826 -237 q 842 -258 842 -250 q 836 -276 843 -267 q 792 -319 818 -301 q 737 -347 765 -337 q 682 -357 708 -357 q 601 -326 632 -357 q 571 -236 571 -296 q 585 -171 571 -203 q 625 -108 600 -139 q 683 -47 650 -76 q 714 -22 699 -35 q 682 -15 697 -21 q 646 9 661 -7 q 623 49 631 25 q 615 106 615 74 l 615 139 q 541 37 583 72 q 455 -11 499 1 q 374 -24 411 -24 m 160 338 q 185 176 160 247 q 260 65 210 106 q 383 25 310 25 q 474 47 429 25 q 557 119 519 68 q 615 261 594 171 l 615 611 q 517 660 564 647 q 424 674 471 674 q 334 659 375 674 q 261 617 293 644 q 206 548 229 589 q 172 454 183 507 q 160 338 160 401 z "},"å":{"ha":865,"x_min":104,"x_max":865,"o":"m 374 -24 q 236 18 297 -24 q 140 140 175 60 q 104 332 104 219 q 117 459 104 400 q 157 566 131 518 q 223 649 183 614 q 314 702 263 683 q 429 721 365 721 q 522 707 478 721 q 615 664 567 693 l 615 694 q 622 710 615 706 q 640 715 628 715 q 660 710 654 715 q 665 694 665 706 l 665 122 q 672 67 665 89 q 695 33 679 44 q 735 22 711 22 q 765 28 750 22 q 796 46 781 33 q 826 76 811 58 q 840 85 833 85 q 854 76 847 85 q 863 64 861 71 q 860 49 865 57 q 823 11 844 28 q 777 -15 801 -6 q 729 -24 753 -24 q 682 -15 703 -24 q 646 9 661 -7 q 623 49 631 25 q 615 106 615 74 l 615 139 q 541 37 583 72 q 455 -11 499 1 q 374 -24 411 -24 m 160 338 q 185 176 160 247 q 260 65 210 106 q 383 25 310 25 q 474 47 429 25 q 557 119 519 68 q 615 261 594 171 l 615 611 q 517 660 564 647 q 424 674 471 674 q 334 659 375 674 q 261 617 293 644 q 206 548 229 589 q 172 454 183 507 q 160 338 160 401 m 410 849 q 289 895 336 849 q 242 1015 242 942 q 263 1101 242 1064 q 323 1160 285 1139 q 410 1181 361 1181 q 531 1135 483 1181 q 578 1015 578 1089 q 556 928 578 967 q 497 869 535 890 q 410 849 460 849 m 410 897 q 469 912 444 897 q 508 953 494 926 q 522 1015 522 981 q 492 1100 522 1068 q 410 1132 461 1132 q 351 1117 376 1132 q 311 1076 325 1103 q 297 1015 297 1050 q 328 930 297 963 q 410 897 358 897 z "},"ã":{"ha":865,"x_min":104,"x_max":865,"o":"m 374 -24 q 236 18 297 -24 q 140 140 175 60 q 104 332 104 219 q 117 459 104 400 q 157 566 131 518 q 223 649 183 614 q 314 702 263 683 q 429 721 365 721 q 522 707 478 721 q 615 664 567 693 l 615 694 q 622 710 615 706 q 640 715 628 715 q 660 710 654 715 q 665 694 665 706 l 665 122 q 672 67 665 89 q 695 33 679 44 q 735 22 711 22 q 765 28 750 22 q 796 46 781 33 q 826 76 811 58 q 840 85 833 85 q 854 76 847 85 q 863 64 861 71 q 860 49 865 57 q 823 11 844 28 q 777 -15 801 -6 q 729 -24 753 -24 q 682 -15 703 -24 q 646 9 661 -7 q 623 49 631 25 q 615 106 615 74 l 615 139 q 541 37 583 72 q 455 -11 499 1 q 374 -24 411 -24 m 160 338 q 185 176 160 247 q 260 65 210 106 q 383 25 310 25 q 474 47 429 25 q 557 119 519 68 q 615 261 594 171 l 615 611 q 517 660 564 647 q 424 674 471 674 q 334 659 375 674 q 261 617 293 644 q 206 548 229 589 q 172 454 183 507 q 160 338 160 401 m 194 910 q 171 935 171 910 q 207 1044 174 1004 q 292 1085 240 1085 q 364 1066 333 1085 q 419 1024 394 1047 q 470 981 444 1000 q 526 963 496 963 q 578 988 560 963 q 599 1064 597 1014 q 625 1088 603 1088 q 645 1083 640 1088 q 650 1063 650 1078 q 613 953 646 993 q 525 914 579 914 q 456 933 486 914 q 401 975 426 951 q 349 1017 375 999 q 292 1036 324 1036 q 241 1010 260 1036 q 219 932 222 985 q 213 915 218 919 q 194 910 208 910 z "},"ắ":{"ha":865,"x_min":104,"x_max":865,"o":"m 374 -24 q 236 18 297 -24 q 140 140 175 60 q 104 332 104 219 q 117 459 104 400 q 157 566 131 518 q 223 649 183 614 q 314 702 263 683 q 429 721 365 721 q 522 707 478 721 q 615 664 567 693 l 615 694 q 622 710 615 706 q 640 715 628 715 q 660 710 654 715 q 665 694 665 706 l 665 122 q 672 67 665 89 q 695 33 679 44 q 735 22 711 22 q 765 28 750 22 q 796 46 781 33 q 826 76 811 58 q 840 85 833 85 q 854 76 847 85 q 863 64 861 71 q 860 49 865 57 q 823 11 844 28 q 777 -15 801 -6 q 729 -24 753 -24 q 682 -15 703 -24 q 646 9 661 -7 q 623 49 631 25 q 615 106 615 74 l 615 139 q 541 37 583 72 q 455 -11 499 1 q 374 -24 411 -24 m 160 338 q 185 176 160 247 q 260 65 210 106 q 383 25 310 25 q 474 47 429 25 q 557 119 519 68 q 615 261 594 171 l 615 611 q 517 660 564 647 q 424 674 471 674 q 334 659 375 674 q 261 617 293 644 q 206 548 229 589 q 172 454 183 507 q 160 338 160 401 m 410 875 q 254 944 313 875 q 196 1139 196 1013 q 201 1156 196 1150 q 221 1161 207 1161 q 239 1156 233 1161 q 244 1139 244 1150 q 288 984 244 1038 q 410 931 332 931 q 531 984 488 931 q 575 1139 575 1038 q 581 1156 575 1150 q 599 1161 586 1161 q 618 1156 613 1161 q 624 1139 624 1150 q 597 997 624 1056 q 523 906 571 938 q 410 875 475 875 m 347 1206 q 331 1214 340 1206 q 321 1231 321 1222 q 323 1237 321 1233 q 326 1244 325 1240 l 500 1482 q 508 1490 504 1488 q 518 1492 513 1492 q 533 1487 525 1492 q 548 1475 542 1482 q 554 1461 554 1468 q 553 1454 554 1457 q 549 1447 551 1451 l 363 1214 q 347 1206 357 1206 z "},"ặ":{"ha":865,"x_min":104,"x_max":865,"o":"m 374 -24 q 236 18 297 -24 q 140 140 175 60 q 104 332 104 219 q 117 459 104 400 q 157 566 131 518 q 223 649 183 614 q 314 702 263 683 q 429 721 365 721 q 522 707 478 721 q 615 664 567 693 l 615 694 q 622 710 615 706 q 640 715 628 715 q 660 710 654 715 q 665 694 665 706 l 665 122 q 672 67 665 89 q 695 33 679 44 q 735 22 711 22 q 765 28 750 22 q 796 46 781 33 q 826 76 811 58 q 840 85 833 85 q 854 76 847 85 q 863 64 861 71 q 860 49 865 57 q 823 11 844 28 q 777 -15 801 -6 q 729 -24 753 -24 q 682 -15 703 -24 q 646 9 661 -7 q 623 49 631 25 q 615 106 615 74 l 615 139 q 541 37 583 72 q 455 -11 499 1 q 374 -24 411 -24 m 160 338 q 185 176 160 247 q 260 65 210 106 q 383 25 310 25 q 474 47 429 25 q 557 119 519 68 q 615 261 594 171 l 615 611 q 517 660 564 647 q 424 674 471 674 q 334 659 375 674 q 261 617 293 644 q 206 548 229 589 q 172 454 183 507 q 160 338 160 401 m 401 -294 q 363 -281 375 -294 q 350 -236 350 -267 q 363 -191 350 -206 q 401 -176 376 -176 q 441 -191 428 -176 q 454 -236 454 -206 q 441 -281 454 -267 q 401 -294 428 -294 m 410 875 q 254 944 313 875 q 196 1139 196 1013 q 201 1156 196 1150 q 221 1161 207 1161 q 239 1156 233 1161 q 244 1139 244 1150 q 288 984 244 1038 q 410 931 332 931 q 531 984 488 931 q 575 1139 575 1038 q 581 1156 575 1150 q 599 1161 586 1161 q 618 1156 613 1161 q 624 1139 624 1150 q 597 997 624 1056 q 523 906 571 938 q 410 875 475 875 z "},"ằ":{"ha":865,"x_min":104,"x_max":865,"o":"m 374 -24 q 236 18 297 -24 q 140 140 175 60 q 104 332 104 219 q 117 459 104 400 q 157 566 131 518 q 223 649 183 614 q 314 702 263 683 q 429 721 365 721 q 522 707 478 721 q 615 664 567 693 l 615 694 q 622 710 615 706 q 640 715 628 715 q 660 710 654 715 q 665 694 665 706 l 665 122 q 672 67 665 89 q 695 33 679 44 q 735 22 711 22 q 765 28 750 22 q 796 46 781 33 q 826 76 811 58 q 840 85 833 85 q 854 76 847 85 q 863 64 861 71 q 860 49 865 57 q 823 11 844 28 q 777 -15 801 -6 q 729 -24 753 -24 q 682 -15 703 -24 q 646 9 661 -7 q 623 49 631 25 q 615 106 615 74 l 615 139 q 541 37 583 72 q 455 -11 499 1 q 374 -24 411 -24 m 160 338 q 185 176 160 247 q 260 65 210 106 q 383 25 310 25 q 474 47 429 25 q 557 119 519 68 q 615 261 594 171 l 615 611 q 517 660 564 647 q 424 674 471 674 q 334 659 375 674 q 261 617 293 644 q 206 548 229 589 q 172 454 183 507 q 160 338 160 401 m 410 875 q 254 944 313 875 q 196 1139 196 1013 q 201 1156 196 1150 q 221 1161 207 1161 q 239 1156 233 1161 q 244 1139 244 1150 q 288 984 244 1038 q 410 931 332 931 q 531 984 488 931 q 575 1139 575 1038 q 581 1156 575 1150 q 599 1161 586 1161 q 618 1156 613 1161 q 624 1139 624 1150 q 597 997 624 1056 q 523 906 571 938 q 410 875 475 875 m 471 1206 q 463 1207 467 1206 q 456 1214 458 1208 l 269 1447 q 265 1454 267 1451 q 264 1461 264 1457 q 270 1475 264 1468 q 285 1487 276 1482 q 300 1492 293 1492 q 318 1482 310 1492 l 492 1244 q 496 1237 494 1240 q 497 1231 497 1233 q 488 1214 497 1222 q 471 1206 478 1206 z "},"ẳ":{"ha":865,"x_min":104,"x_max":865,"o":"m 374 -24 q 236 18 297 -24 q 140 140 175 60 q 104 332 104 219 q 117 459 104 400 q 157 566 131 518 q 223 649 183 614 q 314 702 263 683 q 429 721 365 721 q 522 707 478 721 q 615 664 567 693 l 615 694 q 622 710 615 706 q 640 715 628 715 q 660 710 654 715 q 665 694 665 706 l 665 122 q 672 67 665 89 q 695 33 679 44 q 735 22 711 22 q 765 28 750 22 q 796 46 781 33 q 826 76 811 58 q 840 85 833 85 q 854 76 847 85 q 863 64 861 71 q 860 49 865 57 q 823 11 844 28 q 777 -15 801 -6 q 729 -24 753 -24 q 682 -15 703 -24 q 646 9 661 -7 q 623 49 631 25 q 615 106 615 74 l 615 139 q 541 37 583 72 q 455 -11 499 1 q 374 -24 411 -24 m 160 338 q 185 176 160 247 q 260 65 210 106 q 383 25 310 25 q 474 47 429 25 q 557 119 519 68 q 615 261 594 171 l 615 611 q 517 660 564 647 q 424 674 471 674 q 334 659 375 674 q 261 617 293 644 q 206 548 229 589 q 172 454 183 507 q 160 338 160 401 m 410 875 q 254 944 313 875 q 196 1139 196 1013 q 201 1156 196 1150 q 221 1161 207 1161 q 239 1156 233 1161 q 244 1139 244 1150 q 288 984 244 1038 q 410 931 332 931 q 531 984 488 931 q 575 1139 575 1038 q 581 1156 575 1150 q 599 1161 586 1161 q 618 1156 613 1161 q 624 1139 624 1150 q 597 997 624 1056 q 523 906 571 938 q 410 875 475 875 m 421 1425 q 506 1396 471 1425 q 540 1324 540 1367 q 526 1270 540 1293 q 476 1221 513 1247 q 440 1187 446 1199 q 449 1149 435 1175 l 451 1142 q 451 1124 456 1132 q 438 1113 447 1117 q 420 1110 429 1110 q 408 1119 411 1111 l 397 1142 q 390 1203 382 1178 q 432 1251 399 1229 q 473 1287 461 1271 q 485 1324 485 1303 q 466 1362 485 1347 q 415 1376 447 1376 q 369 1368 392 1376 q 325 1344 347 1360 q 307 1342 315 1339 q 296 1353 299 1344 q 300 1386 285 1374 q 355 1415 325 1406 q 421 1425 385 1425 z "},"ẵ":{"ha":865,"x_min":104,"x_max":865,"o":"m 374 -24 q 236 18 297 -24 q 140 140 175 60 q 104 332 104 219 q 117 459 104 400 q 157 566 131 518 q 223 649 183 614 q 314 702 263 683 q 429 721 365 721 q 522 707 478 721 q 615 664 567 693 l 615 694 q 622 710 615 706 q 640 715 628 715 q 660 710 654 715 q 665 694 665 706 l 665 122 q 672 67 665 89 q 695 33 679 44 q 735 22 711 22 q 765 28 750 22 q 796 46 781 33 q 826 76 811 58 q 840 85 833 85 q 854 76 847 85 q 863 64 861 71 q 860 49 865 57 q 823 11 844 28 q 777 -15 801 -6 q 729 -24 753 -24 q 682 -15 703 -24 q 646 9 661 -7 q 623 49 631 25 q 615 106 615 74 l 615 139 q 541 37 583 72 q 455 -11 499 1 q 374 -24 411 -24 m 160 338 q 185 176 160 247 q 260 65 210 106 q 383 25 310 25 q 474 47 429 25 q 557 119 519 68 q 615 261 594 171 l 615 611 q 517 660 564 647 q 424 674 471 674 q 334 659 375 674 q 261 617 293 644 q 206 548 229 589 q 172 454 183 507 q 160 338 160 401 m 410 875 q 254 944 313 875 q 196 1139 196 1013 q 201 1156 196 1150 q 221 1161 207 1161 q 239 1156 233 1161 q 244 1139 244 1150 q 288 984 244 1038 q 410 931 332 931 q 531 984 488 931 q 575 1139 575 1038 q 581 1156 575 1150 q 599 1161 586 1161 q 618 1156 613 1161 q 624 1139 624 1150 q 597 997 624 1056 q 523 906 571 938 q 410 875 475 875 m 194 1240 q 171 1265 171 1240 q 207 1375 174 1335 q 292 1415 240 1415 q 364 1397 333 1415 q 419 1354 394 1378 q 470 1312 444 1331 q 526 1293 496 1293 q 578 1319 560 1293 q 599 1394 597 1344 q 625 1418 603 1418 q 645 1413 640 1418 q 650 1393 650 1408 q 613 1284 646 1324 q 525 1244 579 1244 q 456 1263 486 1244 q 401 1306 426 1282 q 349 1348 375 1329 q 292 1367 324 1367 q 241 1341 260 1367 q 219 1263 222 1315 q 213 1245 218 1250 q 194 1240 208 1240 z "},"ấ":{"ha":865,"x_min":104,"x_max":865,"o":"m 374 -24 q 236 18 297 -24 q 140 140 175 60 q 104 332 104 219 q 117 459 104 400 q 157 566 131 518 q 223 649 183 614 q 314 702 263 683 q 429 721 365 721 q 522 707 478 721 q 615 664 567 693 l 615 694 q 622 710 615 706 q 640 715 628 715 q 660 710 654 715 q 665 694 665 706 l 665 122 q 672 67 665 89 q 695 33 679 44 q 735 22 711 22 q 765 28 750 22 q 796 46 781 33 q 826 76 811 58 q 840 85 833 85 q 854 76 847 85 q 863 64 861 71 q 860 49 865 57 q 823 11 844 28 q 777 -15 801 -6 q 729 -24 753 -24 q 682 -15 703 -24 q 646 9 661 -7 q 623 49 631 25 q 615 106 615 74 l 615 139 q 541 37 583 72 q 455 -11 499 1 q 374 -24 411 -24 m 160 338 q 185 176 160 247 q 260 65 210 106 q 383 25 310 25 q 474 47 429 25 q 557 119 519 68 q 615 261 594 171 l 615 611 q 517 660 564 647 q 424 674 471 674 q 334 659 375 674 q 261 617 293 644 q 206 548 229 589 q 172 454 183 507 q 160 338 160 401 m 207 875 q 190 883 197 875 q 182 900 182 890 q 184 907 182 903 q 189 915 186 911 l 388 1150 q 399 1159 394 1157 q 410 1161 404 1161 q 421 1159 415 1161 q 432 1150 426 1157 l 631 915 q 636 907 635 911 q 638 900 638 903 q 630 883 638 890 q 613 875 622 875 q 603 878 607 875 q 596 883 600 881 l 410 1089 l 224 883 q 217 878 221 881 q 207 875 213 875 m 601 1083 q 585 1092 594 1083 q 575 1108 575 1100 q 577 1115 575 1111 q 581 1122 579 1118 l 754 1360 q 763 1367 758 1365 q 772 1369 767 1369 q 788 1365 779 1369 q 802 1353 796 1360 q 808 1339 808 1346 q 807 1332 808 1335 q 803 1325 806 1329 l 617 1092 q 601 1083 611 1083 z "},"ậ":{"ha":865,"x_min":104,"x_max":865,"o":"m 374 -24 q 236 18 297 -24 q 140 140 175 60 q 104 332 104 219 q 117 459 104 400 q 157 566 131 518 q 223 649 183 614 q 314 702 263 683 q 429 721 365 721 q 522 707 478 721 q 615 664 567 693 l 615 694 q 622 710 615 706 q 640 715 628 715 q 660 710 654 715 q 665 694 665 706 l 665 122 q 672 67 665 89 q 695 33 679 44 q 735 22 711 22 q 765 28 750 22 q 796 46 781 33 q 826 76 811 58 q 840 85 833 85 q 854 76 847 85 q 863 64 861 71 q 860 49 865 57 q 823 11 844 28 q 777 -15 801 -6 q 729 -24 753 -24 q 682 -15 703 -24 q 646 9 661 -7 q 623 49 631 25 q 615 106 615 74 l 615 139 q 541 37 583 72 q 455 -11 499 1 q 374 -24 411 -24 m 160 338 q 185 176 160 247 q 260 65 210 106 q 383 25 310 25 q 474 47 429 25 q 557 119 519 68 q 615 261 594 171 l 615 611 q 517 660 564 647 q 424 674 471 674 q 334 659 375 674 q 261 617 293 644 q 206 548 229 589 q 172 454 183 507 q 160 338 160 401 m 401 -294 q 363 -281 375 -294 q 350 -236 350 -267 q 363 -191 350 -206 q 401 -176 376 -176 q 441 -191 428 -176 q 454 -236 454 -206 q 441 -281 454 -267 q 401 -294 428 -294 m 207 875 q 190 883 197 875 q 182 900 182 890 q 184 907 182 903 q 189 915 186 911 l 388 1150 q 399 1159 394 1157 q 410 1161 404 1161 q 421 1159 415 1161 q 432 1150 426 1157 l 631 915 q 636 907 635 911 q 638 900 638 903 q 630 883 638 890 q 613 875 622 875 q 603 878 607 875 q 596 883 600 881 l 410 1089 l 224 883 q 217 878 221 881 q 207 875 213 875 z "},"ầ":{"ha":865,"x_min":104,"x_max":865,"o":"m 374 -24 q 236 18 297 -24 q 140 140 175 60 q 104 332 104 219 q 117 459 104 400 q 157 566 131 518 q 223 649 183 614 q 314 702 263 683 q 429 721 365 721 q 522 707 478 721 q 615 664 567 693 l 615 694 q 622 710 615 706 q 640 715 628 715 q 660 710 654 715 q 665 694 665 706 l 665 122 q 672 67 665 89 q 695 33 679 44 q 735 22 711 22 q 765 28 750 22 q 796 46 781 33 q 826 76 811 58 q 840 85 833 85 q 854 76 847 85 q 863 64 861 71 q 860 49 865 57 q 823 11 844 28 q 777 -15 801 -6 q 729 -24 753 -24 q 682 -15 703 -24 q 646 9 661 -7 q 623 49 631 25 q 615 106 615 74 l 615 139 q 541 37 583 72 q 455 -11 499 1 q 374 -24 411 -24 m 160 338 q 185 176 160 247 q 260 65 210 106 q 383 25 310 25 q 474 47 429 25 q 557 119 519 68 q 615 261 594 171 l 615 611 q 517 660 564 647 q 424 674 471 674 q 334 659 375 674 q 261 617 293 644 q 206 548 229 589 q 172 454 183 507 q 160 338 160 401 m 207 875 q 190 883 197 875 q 182 900 182 890 q 184 907 182 903 q 189 915 186 911 l 388 1150 q 399 1159 394 1157 q 410 1161 404 1161 q 421 1159 415 1161 q 432 1150 426 1157 l 631 915 q 636 907 635 911 q 638 900 638 903 q 630 883 638 890 q 613 875 622 875 q 603 878 607 875 q 596 883 600 881 l 410 1089 l 224 883 q 217 878 221 881 q 207 875 213 875 m 683 1083 q 675 1085 679 1083 q 668 1092 671 1086 l 482 1325 q 478 1332 479 1329 q 476 1339 476 1335 q 483 1353 476 1346 q 497 1365 489 1360 q 513 1369 506 1369 q 531 1360 522 1369 l 704 1122 q 708 1115 707 1118 q 710 1108 710 1111 q 700 1092 710 1100 q 683 1083 690 1083 z "},"ẩ":{"ha":865,"x_min":104,"x_max":865,"o":"m 374 -24 q 236 18 297 -24 q 140 140 175 60 q 104 332 104 219 q 117 459 104 400 q 157 566 131 518 q 223 649 183 614 q 314 702 263 683 q 429 721 365 721 q 522 707 478 721 q 615 664 567 693 l 615 694 q 622 710 615 706 q 640 715 628 715 q 660 710 654 715 q 665 694 665 706 l 665 122 q 672 67 665 89 q 695 33 679 44 q 735 22 711 22 q 765 28 750 22 q 796 46 781 33 q 826 76 811 58 q 840 85 833 85 q 854 76 847 85 q 863 64 861 71 q 860 49 865 57 q 823 11 844 28 q 777 -15 801 -6 q 729 -24 753 -24 q 682 -15 703 -24 q 646 9 661 -7 q 623 49 631 25 q 615 106 615 74 l 615 139 q 541 37 583 72 q 455 -11 499 1 q 374 -24 411 -24 m 160 338 q 185 176 160 247 q 260 65 210 106 q 383 25 310 25 q 474 47 429 25 q 557 119 519 68 q 615 261 594 171 l 615 611 q 517 660 564 647 q 424 674 471 674 q 334 659 375 674 q 261 617 293 644 q 206 548 229 589 q 172 454 183 507 q 160 338 160 401 m 207 875 q 190 883 197 875 q 182 900 182 890 q 184 907 182 903 q 189 915 186 911 l 388 1150 q 399 1159 394 1157 q 410 1161 404 1161 q 421 1159 415 1161 q 432 1150 426 1157 l 631 915 q 636 907 635 911 q 638 900 638 903 q 630 883 638 890 q 613 875 622 875 q 603 878 607 875 q 596 883 600 881 l 410 1089 l 224 883 q 217 878 221 881 q 207 875 213 875 m 621 1372 q 706 1343 671 1372 q 740 1271 740 1314 q 726 1217 740 1240 q 676 1168 713 1194 q 640 1134 646 1146 q 649 1096 635 1122 l 651 1089 q 651 1072 656 1079 q 638 1060 647 1064 q 620 1058 629 1057 q 608 1067 611 1058 l 597 1089 q 590 1151 582 1125 q 632 1199 599 1176 q 673 1234 661 1218 q 685 1271 685 1250 q 666 1309 685 1294 q 615 1324 647 1324 q 569 1315 592 1324 q 525 1292 547 1307 q 507 1289 515 1286 q 496 1300 499 1292 q 500 1333 485 1321 q 555 1363 525 1353 q 621 1372 585 1372 z "},"ẫ":{"ha":865,"x_min":104,"x_max":865,"o":"m 374 -24 q 236 18 297 -24 q 140 140 175 60 q 104 332 104 219 q 117 459 104 400 q 157 566 131 518 q 223 649 183 614 q 314 702 263 683 q 429 721 365 721 q 522 707 478 721 q 615 664 567 693 l 615 694 q 622 710 615 706 q 640 715 628 715 q 660 710 654 715 q 665 694 665 706 l 665 122 q 672 67 665 89 q 695 33 679 44 q 735 22 711 22 q 765 28 750 22 q 796 46 781 33 q 826 76 811 58 q 840 85 833 85 q 854 76 847 85 q 863 64 861 71 q 860 49 865 57 q 823 11 844 28 q 777 -15 801 -6 q 729 -24 753 -24 q 682 -15 703 -24 q 646 9 661 -7 q 623 49 631 25 q 615 106 615 74 l 615 139 q 541 37 583 72 q 455 -11 499 1 q 374 -24 411 -24 m 160 338 q 185 176 160 247 q 260 65 210 106 q 383 25 310 25 q 474 47 429 25 q 557 119 519 68 q 615 261 594 171 l 615 611 q 517 660 564 647 q 424 674 471 674 q 334 659 375 674 q 261 617 293 644 q 206 548 229 589 q 172 454 183 507 q 160 338 160 401 m 207 875 q 190 883 197 875 q 182 900 182 890 q 184 907 182 903 q 189 915 186 911 l 388 1150 q 399 1159 394 1157 q 410 1161 404 1161 q 421 1159 415 1161 q 432 1150 426 1157 l 631 915 q 636 907 635 911 q 638 900 638 903 q 630 883 638 890 q 613 875 622 875 q 603 878 607 875 q 596 883 600 881 l 410 1089 l 224 883 q 217 878 221 881 q 207 875 213 875 m 194 1240 q 171 1265 171 1240 q 207 1375 174 1335 q 292 1415 240 1415 q 364 1397 333 1415 q 419 1354 394 1378 q 470 1312 444 1331 q 526 1293 496 1293 q 578 1319 560 1293 q 599 1394 597 1344 q 625 1418 603 1418 q 645 1413 640 1418 q 650 1393 650 1408 q 613 1284 646 1324 q 525 1244 579 1244 q 456 1263 486 1244 q 401 1306 426 1282 q 349 1348 375 1329 q 292 1367 324 1367 q 241 1341 260 1367 q 219 1263 222 1315 q 213 1245 218 1250 q 194 1240 208 1240 z "},"ạ":{"ha":865,"x_min":104,"x_max":865,"o":"m 374 -24 q 236 18 297 -24 q 140 140 175 60 q 104 332 104 219 q 117 459 104 400 q 157 566 131 518 q 223 649 183 614 q 314 702 263 683 q 429 721 365 721 q 522 707 478 721 q 615 664 567 693 l 615 694 q 622 710 615 706 q 640 715 628 715 q 660 710 654 715 q 665 694 665 706 l 665 122 q 672 67 665 89 q 695 33 679 44 q 735 22 711 22 q 765 28 750 22 q 796 46 781 33 q 826 76 811 58 q 840 85 833 85 q 854 76 847 85 q 863 64 861 71 q 860 49 865 57 q 823 11 844 28 q 777 -15 801 -6 q 729 -24 753 -24 q 682 -15 703 -24 q 646 9 661 -7 q 623 49 631 25 q 615 106 615 74 l 615 139 q 541 37 583 72 q 455 -11 499 1 q 374 -24 411 -24 m 160 338 q 185 176 160 247 q 260 65 210 106 q 383 25 310 25 q 474 47 429 25 q 557 119 519 68 q 615 261 594 171 l 615 611 q 517 660 564 647 q 424 674 471 674 q 334 659 375 674 q 261 617 293 644 q 206 548 229 589 q 172 454 183 507 q 160 338 160 401 m 401 -294 q 363 -281 375 -294 q 350 -236 350 -267 q 363 -191 350 -206 q 401 -176 376 -176 q 441 -191 428 -176 q 454 -236 454 -206 q 441 -281 454 -267 q 401 -294 428 -294 z "},"ả":{"ha":865,"x_min":104,"x_max":865,"o":"m 374 -24 q 236 18 297 -24 q 140 140 175 60 q 104 332 104 219 q 117 459 104 400 q 157 566 131 518 q 223 649 183 614 q 314 702 263 683 q 429 721 365 721 q 522 707 478 721 q 615 664 567 693 l 615 694 q 622 710 615 706 q 640 715 628 715 q 660 710 654 715 q 665 694 665 706 l 665 122 q 672 67 665 89 q 695 33 679 44 q 735 22 711 22 q 765 28 750 22 q 796 46 781 33 q 826 76 811 58 q 840 85 833 85 q 854 76 847 85 q 863 64 861 71 q 860 49 865 57 q 823 11 844 28 q 777 -15 801 -6 q 729 -24 753 -24 q 682 -15 703 -24 q 646 9 661 -7 q 623 49 631 25 q 615 106 615 74 l 615 139 q 541 37 583 72 q 455 -11 499 1 q 374 -24 411 -24 m 160 338 q 185 176 160 247 q 260 65 210 106 q 383 25 310 25 q 474 47 429 25 q 557 119 519 68 q 615 261 594 171 l 615 611 q 517 660 564 647 q 424 674 471 674 q 334 659 375 674 q 261 617 293 644 q 206 548 229 589 q 172 454 183 507 q 160 338 160 401 m 414 1164 q 499 1135 464 1164 q 533 1063 533 1106 q 519 1009 533 1032 q 469 960 506 986 q 433 926 439 938 q 442 888 428 914 l 444 881 q 444 863 449 871 q 431 852 440 856 q 413 849 422 849 q 401 858 404 850 l 390 881 q 383 942 375 917 q 425 990 392 968 q 466 1026 454 1010 q 478 1063 478 1042 q 459 1101 478 1086 q 408 1115 440 1115 q 363 1107 385 1115 q 318 1083 340 1099 q 300 1081 308 1078 q 289 1092 292 1083 q 293 1125 278 1113 q 348 1154 318 1144 q 414 1164 378 1164 z "}}}
